mtllib material.mtl
usemtl material_0
v -0.00366715 -0.00199612 0.00559845
v -0.00366715 -0.00199612 0.00559845
v -0.00366715 -0.00199612 0.00559845
v -0.00366715 -0.00199612 0.00559845
v -0.00473666 -0.00199612 0.00472966
v -0.00560545 -0.00199612 0.00366015
v -0.00560545 -0.00199612 0.00366015
v -0.00560545 -0.00199612 0.00366015
v -0.00658408 -0.00199612 0.00121710
v -0.00658408 -0.00199612 0.00121710
v -0.00658408 -0.00199612 0.00121710
v -0.00658408 -0.00199612 0.00121710
v 0.00472266 -0.00199612 0.00472966
v 0.00472266 -0.00199612 0.00472966
v -0.00246909 -0.00199612 0.00621912
v -0.00122410 -0.00199612 0.00657708
v -0.00122410 -0.00199612 0.00657708
v -0.00541831 -0.00199612 -0.00393155
v -0.00541831 -0.00199612 -0.00393155
v -0.00541831 -0.00199612 -0.00393155
v -0.00669574 -0.00199612 -0.00000000
v -0.00669574 -0.00199612 -0.00000000
v -0.00636837 -0.00199612 -0.00206694
v -0.00622612 -0.00199612 0.00246209
v -0.00393854 -0.00199612 -0.00541131
v -0.00393854 -0.00199612 -0.00541131
v 0.00205994 -0.00199612 -0.00636138
v 0.00205994 -0.00199612 -0.00636138
v -0.00207394 -0.00199612 -0.00636138
v 0.00121011 -0.00199612 0.00657708
v 0.00121011 -0.00199612 0.00657708
v -0.00000700 -0.00199612 0.00668875
v 0.00365315 -0.00199612 0.00559845
v 0.00365315 -0.00199612 0.00559845
v 0.00245509 -0.00199612 0.00621912
v 0.00621212 -0.00199612 0.00246209
v 0.00621212 -0.00199612 0.00246209
v 0.00621212 -0.00199612 0.00246209
v 0.00559145 -0.00199612 0.00366015
v 0.00392455 -0.00199612 -0.00541131
v 0.00635438 -0.00199612 -0.00206694
v -0.00000700 -0.00199612 -0.00668875
v 0.00668175 -0.00199612 -0.00000000
v 0.00657008 -0.00199612 0.00121710
v 0.00657008 -0.00199612 0.00121710
v 0.00540431 -0.00199612 -0.00393155
v -0.00075812 0.02805207 -0.00181337
v -0.00075812 0.02805207 -0.00181337
v -0.00075812 0.02805207 -0.00181337
v -0.00139489 0.02805207 -0.00138789
v -0.00182036 0.02805207 -0.00075112
v -0.00182036 0.02805207 -0.00075112
v -0.00196977 0.02805207 0.00000000
v -0.00196977 0.02805207 0.00000000
v -0.00196977 0.02805207 0.00000000
v -0.00139489 0.02805207 0.00138789
v -0.00139489 0.02805207 0.00138789
v 0.00180637 0.02805207 0.00075112
v -0.00182036 0.02805207 0.00075112
v -0.00075812 0.02805207 0.00181337
v -0.00000700 0.02805207 0.00196277
v 0.00074412 0.02805207 -0.00181337
v -0.00000700 0.02805207 -0.00196277
v 0.00138089 0.02805207 -0.00138789
v 0.00195578 0.02805207 0.00000000
v 0.00180637 0.02805207 -0.00075112
v 0.00074412 0.02805207 0.00181337
v 0.00138089 0.02805207 0.00138789
v -0.00320724 0.02051719 0.00000000
v -0.00272992 0.02734324 0.00000000
v -0.00261962 0.02734324 -0.00076713
v -0.00260743 0.01369116 -0.00260043
v -0.00229766 0.02734324 -0.00147212
v -0.00179013 0.02734324 -0.00205784
v -0.00113814 0.02734324 -0.00247685
v -0.00141434 0.01369116 -0.00339762
v -0.00340462 0.01369116 -0.00140734
v -0.00368456 0.01369116 0.00000000
v -0.00000700 0.01369116 -0.00367756
v -0.00039451 0.02734324 -0.00269520
v 0.00038051 0.02734324 -0.00269520
v 0.00112414 0.02734324 -0.00247685
v 0.00140034 0.01369116 -0.00339762
v 0.00177613 0.02734324 -0.00205784
v 0.00339063 0.01369116 -0.00140734
v 0.00228367 0.02734324 -0.00147212
v 0.00260562 0.02734324 -0.00076713
v 0.00319324 0.02051719 0.00000000
v 0.00271592 0.02734324 0.00000000
v 0.00259343 0.01369116 -0.00260043
v 0.00367056 0.01369116 0.00000000
v -0.00177589 0.02782890 -0.00176889
v -0.00231816 0.02782890 -0.00095732
v -0.00160108 0.02799407 -0.00159409
v -0.00189269 0.02758169 -0.00188569
v -0.00247077 0.02758169 -0.00102053
v -0.00096431 0.02782890 -0.00231117
v -0.00086971 0.02799407 -0.00208277
v -0.00102753 0.02758169 -0.00246377
v -0.00000700 0.02782890 -0.00250159
v -0.00000700 0.02799407 -0.00225438
v -0.00000700 0.02758169 -0.00266677
v 0.00095032 0.02782890 -0.00231117
v 0.00085572 0.02799407 -0.00208277
v 0.00101353 0.02758169 -0.00246377
v 0.00176189 0.02782890 -0.00176889
v 0.00158709 0.02799407 -0.00159409
v 0.00187869 0.02758169 -0.00188569
v 0.00230417 0.02782890 -0.00095732
v 0.00207578 0.02799407 -0.00086271
v 0.00245678 0.02758169 -0.00102053
v -0.00208977 0.02799407 -0.00086271
v -0.00196977 0.02805207 0.00000000
v -0.00182036 0.02805207 -0.00075112
v -0.00233531 0.02795867 0.00000000
v -0.00261124 0.02770137 0.00000000
v -0.00139489 0.02805207 -0.00138789
v -0.00075812 0.02805207 -0.00181337
v -0.00272992 0.02734324 0.00000000
v -0.00261962 0.02734324 -0.00076713
v -0.00229766 0.02734324 -0.00147212
v -0.00179013 0.02734324 -0.00205784
v -0.00039451 0.02734324 -0.00269520
v -0.00113814 0.02734324 -0.00247685
v 0.00074412 0.02805207 -0.00181337
v 0.00138089 0.02805207 -0.00138789
v -0.00000700 0.02805207 -0.00196277
v 0.00180637 0.02805207 -0.00075112
v 0.00195578 0.02805207 0.00000000
v 0.00232132 0.02795867 0.00000000
v 0.00259725 0.02770137 0.00000000
v 0.00038051 0.02734324 -0.00269520
v 0.00177613 0.02734324 -0.00205784
v 0.00112414 0.02734324 -0.00247685
v 0.00271592 0.02734324 0.00000000
v 0.00228367 0.02734324 -0.00147212
v 0.00260562 0.02734324 -0.00076713
v -0.00521917 -0.00179723 -0.00521217
v -0.00681702 -0.00179723 -0.00282080
v -0.00541183 -0.00156349 -0.00540483
v -0.00498795 -0.00194539 -0.00498095
v -0.00651492 -0.00194539 -0.00269567
v -0.00282780 -0.00179723 -0.00681002
v -0.00270267 -0.00194539 -0.00650793
v -0.00000700 -0.00179723 -0.00737112
v -0.00000700 -0.00156349 -0.00764358
v -0.00000700 -0.00194539 -0.00704413
v 0.00281381 -0.00179723 -0.00681002
v 0.00291808 -0.00156349 -0.00706175
v 0.00268867 -0.00194539 -0.00650793
v 0.00520517 -0.00179723 -0.00521217
v 0.00497395 -0.00194539 -0.00498095
v 0.00680303 -0.00179723 -0.00282080
v 0.00539783 -0.00156349 -0.00540483
v 0.00650093 -0.00194539 -0.00269567
v -0.00706875 -0.00156349 -0.00292507
v -0.00784676 -0.00126285 -0.00000000
v -0.00752919 -0.00126285 -0.00220872
v -0.00756727 -0.00164989 -0.00000000
v -0.00660222 -0.00126285 -0.00423849
v -0.00514095 -0.00126285 -0.00592489
v -0.00326375 -0.00126285 -0.00713129
v -0.00293207 -0.00156349 -0.00706175
v -0.00112271 -0.00126285 -0.00775996
v -0.00716464 -0.00190639 -0.00000000
v -0.00636837 -0.00199612 -0.00206694
v -0.00669574 -0.00199612 -0.00000000
v -0.00541831 -0.00199612 -0.00393155
v -0.00393854 -0.00199612 -0.00541131
v -0.00000700 -0.00199612 -0.00668875
v -0.00207394 -0.00199612 -0.00636138
v 0.00110872 -0.00126285 -0.00775996
v 0.00324976 -0.00126285 -0.00713129
v 0.00512695 -0.00126285 -0.00592489
v 0.00705475 -0.00156349 -0.00292507
v 0.00658823 -0.00126285 -0.00423849
v 0.00751519 -0.00126285 -0.00220872
v 0.00783276 -0.00126285 -0.00000000
v 0.00755328 -0.00164989 -0.00000000
v 0.00205994 -0.00199612 -0.00636138
v 0.00392455 -0.00199612 -0.00541131
v 0.00540431 -0.00199612 -0.00393155
v 0.00715064 -0.00190639 -0.00000000
v 0.00668175 -0.00199612 -0.00000000
v 0.00635438 -0.00199612 -0.00206694
v 0.00743368 -0.00080398 -0.00308203
v 0.00783276 -0.00126285 -0.00000000
v 0.00751519 -0.00126285 -0.00220872
v 0.00658823 -0.00126285 -0.00423849
v 0.00826070 -0.00034512 -0.00000000
v 0.00512695 -0.00126285 -0.00592489
v 0.00324976 -0.00126285 -0.00713129
v 0.00307503 -0.00080398 -0.00744068
v 0.00110872 -0.00126285 -0.00775996
v 0.00792580 -0.00034512 -0.00232928
v 0.00540719 -0.00034512 -0.00624831
v 0.00694823 -0.00034512 -0.00446986
v -0.00000700 -0.00080398 -0.00805373
v 0.00116962 -0.00034512 -0.00818355
v -0.00118361 -0.00034512 -0.00818355
v 0.00342753 -0.00034512 -0.00752056
v -0.00112271 -0.00126285 -0.00775996
v -0.00326375 -0.00126285 -0.00713129
v -0.00308903 -0.00080398 -0.00744068
v -0.00514095 -0.00126285 -0.00592489
v -0.00752919 -0.00126285 -0.00220872
v -0.00744767 -0.00080398 -0.00308203
v -0.00660222 -0.00126285 -0.00423849
v -0.00570184 -0.00080398 -0.00569485
v -0.00784676 -0.00126285 -0.00000000
v -0.00542119 -0.00034512 -0.00624831
v -0.00696223 -0.00034512 -0.00446986
v -0.00793980 -0.00034512 -0.00232928
v -0.00827470 -0.00034512 -0.00000000
v -0.00827470 0.00067088 0.00000000
v -0.00793980 0.00067088 -0.00232928
v -0.00793980 -0.00034512 -0.00232928
v -0.00696223 0.00067088 -0.00446986
v -0.00696223 -0.00034512 -0.00446986
v -0.00542119 0.00067088 -0.00624831
v -0.00344152 0.00067088 -0.00752056
v -0.00344152 -0.00034512 -0.00752056
v -0.00118361 0.00067088 -0.00818355
v -0.00118361 -0.00034512 -0.00818355
v -0.00542119 -0.00034512 -0.00624831
v 0.00116962 0.00067088 -0.00818355
v 0.00116962 -0.00034512 -0.00818355
v 0.00342753 0.00067088 -0.00752056
v 0.00342753 -0.00034512 -0.00752056
v 0.00540719 0.00067088 -0.00624831
v 0.00540719 -0.00034512 -0.00624831
v 0.00694823 0.00067088 -0.00446986
v 0.00792580 0.00067088 -0.00232928
v 0.00792580 -0.00034512 -0.00232928
v 0.00826070 0.00067088 0.00000000
v 0.00826070 -0.00034512 -0.00000000
v 0.00694823 -0.00034512 -0.00446986
v -0.00642654 0.00524522 0.00000000
v -0.00457839 0.00981957 0.00000000
v -0.00435465 0.00981957 -0.00141264
v -0.00793980 0.00067088 -0.00232928
v -0.00370533 0.00981957 -0.00268700
v -0.00696223 0.00067088 -0.00446986
v -0.00269400 0.00981957 -0.00369833
v -0.00542119 0.00067088 -0.00624831
v -0.00141964 0.00981957 -0.00434765
v -0.00344152 0.00067088 -0.00752056
v -0.00827470 0.00067088 0.00000000
v -0.00118361 0.00067088 -0.00818355
v -0.00000700 0.00981957 -0.00457139
v 0.00140564 0.00981957 -0.00434765
v 0.00116962 0.00067088 -0.00818355
v 0.00268000 0.00981957 -0.00369833
v 0.00342753 0.00067088 -0.00752056
v 0.00369134 0.00981957 -0.00268700
v 0.00434065 0.00981957 -0.00141264
v 0.00694823 0.00067088 -0.00446986
v 0.00641255 0.00524522 0.00000000
v 0.00456439 0.00981957 0.00000000
v 0.00540719 0.00067088 -0.00624831
v 0.00826070 0.00067088 0.00000000
v 0.00792580 0.00067088 -0.00232928
v 0.00413161 0.01107647 0.00000000
v 0.00434065 0.00981957 0.00141264
v 0.00456439 0.00981957 0.00000000
v 0.00366848 0.01169356 0.00152243
v 0.00369134 0.00981957 0.00268700
v 0.00268000 0.00981957 0.00369833
v 0.00280609 0.01169356 0.00281309
v 0.00151543 0.01169356 0.00367548
v -0.00000700 0.01169356 0.00397831
v -0.00000700 0.00981957 0.00457139
v 0.00140564 0.00981957 0.00434765
v 0.00339063 0.01369116 0.00140734
v 0.00383257 0.01237174 0.00000000
v 0.00367056 0.01369116 0.00000000
v 0.00259343 0.01369116 0.00260043
v 0.00140034 0.01369116 0.00339763
v -0.00000700 0.01369116 0.00367756
v -0.00141964 0.00981957 0.00434765
v -0.00152943 0.01169356 0.00367548
v -0.00269400 0.00981957 0.00369833
v -0.00435465 0.00981957 0.00141264
v -0.00370533 0.00981957 0.00268700
v -0.00368247 0.01169356 0.00152243
v -0.00414560 0.01107647 0.00000000
v -0.00457839 0.00981957 0.00000000
v -0.00282009 0.01169356 0.00281309
v -0.00141434 0.01369116 0.00339763
v -0.00260743 0.01369116 0.00260043
v -0.00340462 0.01369116 0.00140734
v -0.00368456 0.01369116 0.00000000
v -0.00384657 0.01237174 0.00000000
v -0.00414560 0.01107647 0.00000000
v -0.00435465 0.00981957 -0.00141264
v -0.00457839 0.00981957 0.00000000
v -0.00368247 0.01169356 -0.00152243
v -0.00370533 0.00981957 -0.00268700
v -0.00269400 0.00981957 -0.00369833
v -0.00282009 0.01169356 -0.00281309
v -0.00152943 0.01169356 -0.00367547
v -0.00000700 0.01169356 -0.00397831
v -0.00000700 0.00981957 -0.00457139
v -0.00141964 0.00981957 -0.00434765
v -0.00340462 0.01369116 -0.00140734
v -0.00384657 0.01237174 0.00000000
v -0.00368456 0.01369116 0.00000000
v -0.00260743 0.01369116 -0.00260043
v -0.00141434 0.01369116 -0.00339762
v -0.00000700 0.01369116 -0.00367756
v 0.00140564 0.00981957 -0.00434765
v 0.00151543 0.01169356 -0.00367547
v 0.00268000 0.00981957 -0.00369833
v 0.00434065 0.00981957 -0.00141264
v 0.00369134 0.00981957 -0.00268700
v 0.00366848 0.01169356 -0.00152243
v 0.00413161 0.01107647 0.00000000
v 0.00456439 0.00981957 0.00000000
v 0.00280609 0.01169356 -0.00281309
v 0.00140034 0.01369116 -0.00339762
v 0.00259343 0.01369116 -0.00260043
v 0.00339063 0.01369116 -0.00140734
v 0.00367056 0.01369116 0.00000000
v 0.00383257 0.01237174 0.00000000
v 0.00641255 0.00524522 0.00000000
v 0.00456439 0.00981957 0.00000000
v 0.00434065 0.00981957 0.00141264
v 0.00792580 0.00067088 0.00232928
v 0.00369134 0.00981957 0.00268700
v 0.00694823 0.00067088 0.00446986
v 0.00268000 0.00981957 0.00369833
v 0.00540719 0.00067088 0.00624831
v 0.00140564 0.00981957 0.00434765
v 0.00342753 0.00067088 0.00752056
v 0.00826070 0.00067088 0.00000000
v 0.00116962 0.00067088 0.00818355
v -0.00000700 0.00981957 0.00457139
v -0.00141964 0.00981957 0.00434765
v -0.00118361 0.00067088 0.00818355
v -0.00269400 0.00981957 0.00369833
v -0.00344152 0.00067088 0.00752056
v -0.00370533 0.00981957 0.00268700
v -0.00435465 0.00981957 0.00141264
v -0.00696223 0.00067088 0.00446986
v -0.00642654 0.00524522 0.00000000
v -0.00457839 0.00981957 0.00000000
v -0.00542119 0.00067088 0.00624831
v -0.00827470 0.00067088 0.00000000
v -0.00793980 0.00067088 0.00232928
v 0.00826070 0.00067088 0.00000000
v 0.00792580 0.00067088 0.00232928
v 0.00792580 -0.00034512 0.00232928
v 0.00694823 0.00067088 0.00446986
v 0.00694823 -0.00034512 0.00446986
v 0.00540719 0.00067088 0.00624831
v 0.00342753 0.00067088 0.00752056
v 0.00342753 -0.00034512 0.00752056
v 0.00116962 0.00067088 0.00818355
v 0.00116962 -0.00034512 0.00818355
v 0.00540719 -0.00034512 0.00624831
v -0.00118361 -0.00034512 0.00818355
v -0.00118361 0.00067088 0.00818355
v -0.00344152 0.00067088 0.00752056
v -0.00344152 -0.00034512 0.00752056
v -0.00542119 0.00067088 0.00624831
v -0.00542119 -0.00034512 0.00624831
v -0.00696223 0.00067088 0.00446986
v -0.00793980 0.00067088 0.00232928
v -0.00793980 -0.00034512 0.00232928
v -0.00827470 0.00067088 0.00000000
v -0.00827470 -0.00034512 -0.00000000
v -0.00696223 -0.00034512 0.00446986
v -0.00744767 -0.00080398 0.00308203
v -0.00784676 -0.00126285 -0.00000000
v -0.00752919 -0.00126285 0.00220872
v -0.00660222 -0.00126285 0.00423849
v -0.00827470 -0.00034512 -0.00000000
v -0.00514095 -0.00126285 0.00592489
v -0.00326375 -0.00126285 0.00713129
v -0.00308903 -0.00080398 0.00744068
v -0.00112271 -0.00126285 0.00775996
v -0.00793980 -0.00034512 0.00232928
v -0.00542119 -0.00034512 0.00624831
v -0.00696223 -0.00034512 0.00446986
v -0.00000700 -0.00080398 0.00805373
v -0.00118361 -0.00034512 0.00818355
v 0.00116962 -0.00034512 0.00818355
v -0.00344152 -0.00034512 0.00752056
v 0.00110872 -0.00126285 0.00775996
v 0.00307503 -0.00080398 0.00744068
v 0.00324976 -0.00126285 0.00713129
v 0.00512695 -0.00126285 0.00592489
v 0.00751519 -0.00126285 0.00220872
v 0.00743368 -0.00080398 0.00308203
v 0.00658823 -0.00126285 0.00423849
v 0.00568785 -0.00080398 0.00569485
v 0.00783276 -0.00126285 -0.00000000
v 0.00540719 -0.00034512 0.00624831
v 0.00694823 -0.00034512 0.00446986
v 0.00792580 -0.00034512 0.00232928
v 0.00826070 -0.00034512 -0.00000000
v 0.00520517 -0.00179723 0.00521217
v 0.00680303 -0.00179723 0.00282080
v 0.00539783 -0.00156349 0.00540483
v 0.00497395 -0.00194539 0.00498095
v 0.00650093 -0.00194539 0.00269567
v 0.00281381 -0.00179723 0.00681002
v 0.00291808 -0.00156349 0.00706175
v 0.00268867 -0.00194539 0.00650793
v -0.00000700 -0.00179723 0.00737112
v -0.00000700 -0.00194539 0.00704413
v -0.00282780 -0.00179723 0.00681002
v -0.00000700 -0.00156349 0.00764358
v -0.00270267 -0.00194539 0.00650793
v -0.00521917 -0.00179723 0.00521217
v -0.00541183 -0.00156349 0.00540483
v -0.00498795 -0.00194539 0.00498095
v -0.00681702 -0.00179723 0.00282080
v -0.00651492 -0.00194539 0.00269567
v 0.00705475 -0.00156349 0.00292507
v 0.00783276 -0.00126285 -0.00000000
v 0.00751519 -0.00126285 0.00220872
v 0.00658823 -0.00126285 0.00423849
v 0.00755328 -0.00164989 -0.00000000
v 0.00715064 -0.00190639 -0.00000000
v 0.00512695 -0.00126285 0.00592489
v 0.00324976 -0.00126285 0.00713129
v 0.00110872 -0.00126285 0.00775996
v 0.00657008 -0.00199612 0.00121710
v 0.00668175 -0.00199612 -0.00000000
v 0.00559145 -0.00199612 0.00366015
v 0.00621212 -0.00199612 0.00246209
v 0.00472266 -0.00199612 0.00472966
v 0.00365315 -0.00199612 0.00559845
v 0.00245509 -0.00199612 0.00621912
v 0.00121011 -0.00199612 0.00657708
v -0.00000700 -0.00199612 0.00668875
v -0.00112271 -0.00126285 0.00775996
v -0.00326375 -0.00126285 0.00713129
v -0.00293207 -0.00156349 0.00706175
v -0.00514095 -0.00126285 0.00592489
v -0.00660222 -0.00126285 0.00423849
v -0.00706875 -0.00156349 0.00292507
v -0.00752919 -0.00126285 0.00220872
v -0.00784676 -0.00126285 -0.00000000
v -0.00756727 -0.00164989 -0.00000000
v -0.00716464 -0.00190639 -0.00000000
v -0.00122410 -0.00199612 0.00657708
v -0.00366715 -0.00199612 0.00559845
v -0.00246909 -0.00199612 0.00621912
v -0.00473666 -0.00199612 0.00472966
v -0.00658408 -0.00199612 0.00121710
v -0.00560545 -0.00199612 0.00366015
v -0.00622612 -0.00199612 0.00246209
v -0.00669574 -0.00199612 -0.00000000
v 0.00176189 0.02782890 0.00176889
v 0.00230417 0.02782890 0.00095732
v 0.00207578 0.02799407 0.00086271
v 0.00187869 0.02758169 0.00188569
v 0.00245678 0.02758169 0.00102053
v 0.00095032 0.02782890 0.00231117
v 0.00158709 0.02799407 0.00159409
v 0.00101353 0.02758169 0.00246377
v -0.00000700 0.02782890 0.00250159
v 0.00085572 0.02799407 0.00208277
v -0.00000700 0.02758169 0.00266677
v -0.00096431 0.02782890 0.00231117
v -0.00000700 0.02799407 0.00225438
v -0.00102753 0.02758169 0.00246377
v -0.00177589 0.02782890 0.00176889
v -0.00086971 0.02799407 0.00208277
v -0.00189269 0.02758169 0.00188569
v -0.00231816 0.02782890 0.00095732
v -0.00160108 0.02799407 0.00159409
v -0.00247077 0.02758169 0.00102053
v 0.00180637 0.02805207 0.00075112
v 0.00195578 0.02805207 0.00000000
v 0.00232132 0.02795867 0.00000000
v 0.00259725 0.02770137 0.00000000
v 0.00138089 0.02805207 0.00138789
v 0.00074412 0.02805207 0.00181337
v -0.00000700 0.02805207 0.00196277
v 0.00271592 0.02734324 0.00000000
v 0.00260562 0.02734324 0.00076713
v 0.00228367 0.02734324 0.00147212
v 0.00177613 0.02734324 0.00205784
v 0.00038051 0.02734324 0.00269520
v 0.00112414 0.02734324 0.00247685
v -0.00075812 0.02805207 0.00181337
v -0.00139489 0.02805207 0.00138789
v -0.00208977 0.02799407 0.00086271
v -0.00182036 0.02805207 0.00075112
v -0.00196977 0.02805207 0.00000000
v -0.00233531 0.02795867 0.00000000
v -0.00261124 0.02770137 0.00000000
v -0.00039451 0.02734324 0.00269520
v -0.00179013 0.02734324 0.00205784
v -0.00113814 0.02734324 0.00247685
v -0.00272992 0.02734324 0.00000000
v -0.00229766 0.02734324 0.00147212
v -0.00261962 0.02734324 0.00076713
v 0.00319324 0.02051719 0.00000000
v 0.00271592 0.02734324 0.00000000
v 0.00260562 0.02734324 0.00076713
v 0.00259343 0.01369116 0.00260043
v 0.00228367 0.02734324 0.00147212
v 0.00177613 0.02734324 0.00205784
v 0.00112414 0.02734324 0.00247685
v 0.00140034 0.01369116 0.00339763
v 0.00339063 0.01369116 0.00140734
v 0.00367056 0.01369116 0.00000000
v -0.00000700 0.01369116 0.00367756
v 0.00038051 0.02734324 0.00269520
v -0.00039451 0.02734324 0.00269520
v -0.00113814 0.02734324 0.00247685
v -0.00141434 0.01369116 0.00339763
v -0.00179013 0.02734324 0.00205784
v -0.00340462 0.01369116 0.00140734
v -0.00229766 0.02734324 0.00147212
v -0.00261962 0.02734324 0.00076713
v -0.00320724 0.02051719 0.00000000
v -0.00272992 0.02734324 0.00000000
v -0.00260743 0.01369116 0.00260043
v -0.00368456 0.01369116 0.00000000
v -0.00344152 -0.00034512 -0.00752056
v -0.00827470 -0.00034512 -0.00000000
v 0.00826070 -0.00034512 -0.00000000
v 0.00342753 -0.00034512 0.00752056
vn 0.00000000 0.00000000 -1.00000000
vn -0.00000000 0.00000000 -1.00000000
vn 0.00000000 0.00000000 -1.00000000
vn 0.00000000 0.00000000 -1.00000000
vn 0.00000000 0.00000000 -1.00000000
vn -0.00000000 0.00000000 -1.00000000
vn 0.00000000 0.00000000 -1.00000000
vn 0.00000000 0.00000000 -1.00000000
vn 0.00000000 0.00000000 -1.00000000
vn -0.00000000 0.00000000 -1.00000000
vn 0.00000000 0.00000000 -1.00000000
vn -0.00000000 0.00000000 -1.00000000
vn 0.00000000 0.00000000 -1.00000000
vn 0.00000000 0.00000000 -1.00000000
vn 0.00000000 0.00000000 -1.00000000
vn 0.00000000 0.00000000 -1.00000000
vn 0.00000000 0.00000000 -1.00000000
vn -0.00000000 0.00000000 -1.00000000
vn 0.00000000 0.00000000 -1.00000000
vn 0.00000000 0.00000000 -1.00000000
vn 0.00000000 0.00000000 -1.00000000
vn 0.00000000 0.00000000 -1.00000000
vn 0.00000000 0.00000000 -1.00000000
vn 0.00000000 0.00000000 -1.00000000
vn 0.00000000 0.00000000 -1.00000000
vn -0.00000000 0.00000000 -1.00000000
vn -0.00000000 0.00000000 -1.00000000
vn 0.00000000 0.00000000 -1.00000000
vn 0.00000000 0.00000000 -1.00000000
vn 0.00000000 0.00000000 -1.00000000
vn -0.00000000 0.00000000 -1.00000000
vn 0.00000000 0.00000000 -1.00000000
vn 0.00000000 0.00000000 -1.00000000
vn -0.00000000 0.00000000 -1.00000000
vn -0.00000000 0.00000000 -1.00000000
vn 0.00000000 0.00000000 -1.00000000
vn -0.00000000 0.00000000 -1.00000000
vn 0.00000000 0.00000000 -1.00000000
vn 0.00000000 0.00000000 -1.00000000
vn 0.00000000 0.00000000 -1.00000000
vn 0.00000000 0.00000000 -1.00000000
vn 0.00000000 0.00000000 -1.00000000
vn 0.00000000 0.00000000 -1.00000000
vn 0.00000000 0.00000000 -1.00000000
vn -0.00000000 0.00000000 -1.00000000
vn 0.00000000 0.00000000 -1.00000000
vn 0.00000000 0.00000000 1.00000000
vn 0.00001000 0.00000000 1.00000000
vn -0.00000000 0.00000000 1.00000000
vn 0.00000000 0.00000000 1.00000000
vn 0.00001000 0.00000000 1.00000000
vn 0.00000000 0.00000000 1.00000000
vn 0.00001000 0.00000000 1.00000000
vn -0.00000000 0.00000000 1.00000000
vn 0.00000000 0.00000000 1.00000000
vn 0.00000000 0.00000000 1.00000000
vn -0.00000000 0.00000000 1.00000000
vn 0.00000000 0.00000000 1.00000000
vn 0.00000000 0.00000000 1.00000000
vn 0.00000000 0.00000000 1.00000000
vn 0.00000000 0.00000000 1.00000000
vn 0.00000000 0.00000000 1.00000000
vn 0.00000000 0.00000000 1.00000000
vn 0.00000000 0.00000000 1.00000000
vn 0.00000000 0.00000000 1.00000000
vn 0.00000000 0.00000000 1.00000000
vn 0.00000000 0.00000000 1.00000000
vn 0.00000000 0.00000000 1.00000000
vn -0.98219000 0.17625000 0.06513000
vn -0.98746000 0.14197000 0.06903000
vn -0.95732000 0.28023000 0.07077000
vn -0.70519000 0.70587000 0.06674000
vn -0.83900000 0.53937000 0.07181000
vn -0.65238000 0.75466000 0.06992000
vn -0.41519000 0.90707000 0.06955000
vn -0.38220000 0.92166000 0.06690000
vn -0.92221000 0.38070000 0.06772000
vn -0.97849000 0.19462000 0.06842000
vn 0.00000000 0.99780000 0.06626000
vn -0.14243000 0.98722000 0.07151000
vn 0.14243000 0.98722000 0.07151000
vn 0.41519000 0.90707000 0.06955000
vn 0.38220000 0.92166000 0.06690000
vn 0.65238000 0.75466000 0.06992000
vn 0.92221000 0.38070000 0.06772000
vn 0.83900000 0.53937000 0.07181000
vn 0.95732000 0.28023000 0.07077000
vn 0.98219000 0.17625000 0.06513000
vn 0.98746000 0.14197000 0.06903000
vn 0.70519000 0.70587000 0.06674000
vn 0.97849000 0.19462000 0.06839000
vn -0.50830000 0.50830000 0.69517000
vn -0.66202000 0.27913000 0.69556000
vn -0.28502000 0.28502000 0.91517000
vn -0.65312000 0.64518000 0.39645000
vn -0.85078000 0.35421000 0.38820000
vn -0.27510000 0.66413000 0.69517000
vn -0.15424000 0.37239000 0.91517000
vn -0.34692000 0.84714000 0.40250000
vn 0.00000000 0.71885000 0.69517000
vn 0.00000000 0.40306000 0.91517000
vn 0.00000000 0.92120000 0.38909000
vn 0.27507000 0.66413000 0.69517000
vn 0.15424000 0.37239000 0.91517000
vn 0.34692000 0.84714000 0.40250000
vn 0.50830000 0.50830000 0.69517000
vn 0.28502000 0.28502000 0.91517000
vn 0.65312000 0.64518000 0.39645000
vn 0.66202000 0.27913000 0.69556000
vn 0.36944000 0.15580000 0.91610000
vn 0.85078000 0.35421000 0.38820000
vn -0.36944000 0.15580000 0.91610000
vn -0.23731000 0.03226000 0.97090000
vn -0.18022000 0.07465000 0.98079000
vn -0.49942000 0.08072000 0.86259000
vn -0.84134000 0.14786000 0.51989000
vn -0.13792000 0.13792000 0.98079000
vn -0.07465000 0.18022000 0.98079000
vn -0.93085000 0.15955000 0.32872000
vn -0.91171000 0.19551000 0.36132000
vn -0.78757000 0.51647000 0.33614000
vn -0.59351000 0.75380000 0.28203000
vn -0.15937000 0.93170000 0.32641000
vn -0.43091000 0.86780000 0.24748000
vn 0.07465000 0.18022000 0.98079000
vn 0.13792000 0.13792000 0.98079000
vn 0.00000000 0.19508000 0.98079000
vn 0.18022000 0.07465000 0.98079000
vn 0.23731000 0.03226000 0.97090000
vn 0.49942000 0.08072000 0.86259000
vn 0.84134000 0.14786000 0.51989000
vn 0.15937000 0.93170000 0.32641000
vn 0.59351000 0.75380000 0.28203000
vn 0.43091000 0.86780000 0.24748000
vn 0.93085000 0.15955000 0.32872000
vn 0.78757000 0.51647000 0.33614000
vn 0.91171000 0.19551000 0.36132000
vn -0.38863000 0.38863000 -0.83543000
vn -0.50713000 0.21186000 -0.83542000
vn -0.56066000 0.53814000 -0.62933000
vn -0.20591000 0.20591000 -0.95666000
vn -0.26942000 0.11429000 -0.95622000
vn -0.21031000 0.50777000 -0.83543000
vn -0.11393000 0.27043000 -0.95598000
vn 0.00000000 0.54961000 -0.83542000
vn 0.00000000 0.79305000 -0.60915000
vn 0.00000000 0.29756000 -0.95470000
vn 0.21031000 0.50777000 -0.83543000
vn 0.27767000 0.70784000 -0.64951000
vn 0.11393000 0.27043000 -0.95598000
vn 0.38863000 0.38863000 -0.83543000
vn 0.20591000 0.20591000 -0.95666000
vn 0.50713000 0.21186000 -0.83542000
vn 0.56066000 0.53814000 -0.62933000
vn 0.26942000 0.11429000 -0.95622000
vn -0.72620000 0.30955000 -0.61386000
vn -0.78695000 0.14772000 -0.59907000
vn -0.67625000 0.13038000 -0.72505000
vn -0.69266000 0.13132000 -0.70920000
vn -0.58884000 0.38863000 -0.70869000
vn -0.46130000 0.61447000 -0.64002000
vn -0.37741000 0.71963000 -0.58284000
vn -0.27767000 0.70784000 -0.64951000
vn -0.12711000 0.70460000 -0.69813000
vn -0.38765000 0.07019000 -0.91913000
vn -0.18275000 0.03665000 -0.98248000
vn -0.18861000 0.03110000 -0.98156000
vn -0.16563000 0.11252000 -0.97975000
vn -0.11252000 0.16563000 -0.97975000
vn 0.00000000 0.14130000 -0.98997000
vn -0.03961000 0.16615000 -0.98531000
vn 0.12711000 0.70460000 -0.69813000
vn 0.37740000 0.71964000 -0.58282000
vn 0.46130000 0.61447000 -0.64002000
vn 0.72620000 0.30955000 -0.61386000
vn 0.58884000 0.38863000 -0.70869000
vn 0.67625000 0.13038000 -0.72505000
vn 0.78695000 0.14772000 -0.59907000
vn 0.69266000 0.13132000 -0.70920000
vn 0.03961000 0.16615000 -0.98531000
vn 0.11252000 0.16563000 -0.97975000
vn 0.16563000 0.11252000 -0.97975000
vn 0.38765000 0.07019000 -0.91913000
vn 0.18861000 0.03110000 -0.98156000
vn 0.18275000 0.03665000 -0.98248000
vn 0.83214000 0.36824000 -0.41466000
vn 0.90453000 0.17500000 -0.38885000
vn 0.96709000 0.18308000 -0.17668000
vn 0.76377000 0.62396000 0.16532000
vn 0.87941000 0.16975000 -0.44478000
vn 0.56941000 0.58320000 0.57936000
vn 0.42349000 0.81765000 -0.39001000
vn 0.34245000 0.83942000 -0.42202000
vn 0.17286000 0.95640000 -0.23539000
vn 0.79267000 0.15952000 -0.58841000
vn 0.37093000 0.38472000 -0.84522000
vn 0.53889000 0.42831000 -0.72536000
vn 0.00000000 0.91126000 -0.41182000
vn 0.14463000 0.81792000 -0.55686000
vn -0.14463000 0.81792000 -0.55686000
vn 0.40631000 0.79494000 -0.45053000
vn -0.17286000 0.95640000 -0.23539000
vn -0.42349000 0.81765000 -0.39001000
vn -0.33263000 0.84391000 -0.42092000
vn -0.56964000 0.75510000 -0.32454000
vn -0.96709000 0.18308000 -0.17668000
vn -0.83859000 0.35469000 -0.41347000
vn -0.81484000 0.53800000 -0.21586000
vn -0.65632000 0.62900000 -0.41665000
vn -0.90453000 0.17500000 -0.38885000
vn -0.52670000 0.68748000 -0.49997000
vn -0.68738000 0.45257000 -0.56805000
vn -0.79267000 0.15952000 -0.58841000
vn -0.87941000 0.16975000 -0.44478000
vn -0.98982000 0.14231000 0.00000000
vn -0.95950000 0.28172000 0.00000000
vn -0.95950000 0.28172000 0.00000000
vn -0.84125000 0.54064000 0.00000000
vn -0.84125000 0.54064000 0.00000000
vn -0.65486000 0.75575000 0.00000000
vn -0.41540000 0.90964000 0.00000000
vn -0.41540000 0.90964000 0.00000000
vn -0.14231000 0.98982000 0.00000000
vn -0.14231000 0.98982000 0.00000000
vn -0.65486000 0.75575000 0.00000000
vn 0.14231000 0.98982000 0.00000000
vn 0.14231000 0.98982000 0.00000000
vn 0.41540000 0.90964000 0.00000000
vn 0.41540000 0.90964000 0.00000000
vn 0.65486000 0.75575000 0.00000000
vn 0.65486000 0.75575000 0.00000000
vn 0.84125000 0.54064000 0.00000000
vn 0.95950000 0.28172000 0.00000000
vn 0.95950000 0.28172000 0.00000000
vn 0.98982000 0.14231000 0.00000000
vn 0.98982000 0.14231000 0.00000000
vn 0.84125000 0.54064000 0.00000000
vn -0.91776000 0.13700000 0.37277000
vn -0.91735000 0.14527000 0.37063000
vn -0.88142000 0.28447000 0.37706000
vn -0.88998000 0.26079000 0.37408000
vn -0.74870000 0.54321000 0.37996000
vn -0.78084000 0.50134000 0.37276000
vn -0.54370000 0.74769000 0.38125000
vn -0.60810000 0.70137000 0.37188000
vn -0.28575000 0.87887000 0.38201000
vn -0.38586000 0.84454000 0.37130000
vn -0.91905000 0.13212000 0.37133000
vn -0.13221000 0.91918000 0.37099000
vn 0.00000000 0.92406000 0.38225000
vn 0.28575000 0.87887000 0.38201000
vn 0.13221000 0.91918000 0.37099000
vn 0.54370000 0.74769000 0.38125000
vn 0.38586000 0.84454000 0.37130000
vn 0.74870000 0.54321000 0.37996000
vn 0.88142000 0.28447000 0.37706000
vn 0.78084000 0.50134000 0.37276000
vn 0.91776000 0.13700000 0.37277000
vn 0.91735000 0.14527000 0.37063000
vn 0.60810000 0.70137000 0.37188000
vn 0.91905000 0.13212000 0.37133000
vn 0.88998000 0.26079000 0.37408000
vn 0.94292000 -0.16889000 0.28703000
vn 0.90872000 -0.28144000 0.30824000
vn 0.93510000 -0.14808000 0.32197000
vn 0.90093000 -0.36226000 0.23894000
vn 0.77452000 -0.55979000 0.29454000
vn 0.55979000 -0.77452000 0.29454000
vn 0.68619000 -0.68619000 0.24144000
vn 0.37011000 -0.89764000 0.23930000
vn 0.00000000 -0.97161000 0.23659000
vn 0.00000000 -0.95340000 0.30172000
vn 0.28898000 -0.90937000 0.29921000
vn 0.91692000 -0.37270000 0.14265000
vn 0.96787000 -0.18787000 0.16712000
vn 0.97375000 -0.19368000 0.11954000
vn 0.69923000 -0.69923000 0.14887000
vn 0.37841000 -0.91359000 0.14887000
vn 0.00000000 -0.98886000 0.14887000
vn -0.28898000 -0.90937000 0.29921000
vn -0.37011000 -0.89764000 0.23930000
vn -0.55979000 -0.77452000 0.29454000
vn -0.90872000 -0.28144000 0.30824000
vn -0.77452000 -0.55979000 0.29454000
vn -0.90093000 -0.36226000 0.23894000
vn -0.94292000 -0.16889000 0.28703000
vn -0.93510000 -0.14808000 0.32197000
vn -0.68619000 -0.68619000 0.24144000
vn -0.37841000 -0.91359000 0.14887000
vn -0.69923000 -0.69923000 0.14887000
vn -0.91692000 -0.37270000 0.14265000
vn -0.97375000 -0.19368000 0.11954000
vn -0.96787000 -0.18787000 0.16712000
vn -0.94292000 0.16889000 0.28703000
vn -0.90872000 0.28144000 0.30824000
vn -0.93510000 0.14808000 0.32197000
vn -0.90093000 0.36226000 0.23894000
vn -0.77452000 0.55979000 0.29454000
vn -0.55979000 0.77452000 0.29454000
vn -0.68619000 0.68619000 0.24144000
vn -0.37011000 0.89764000 0.23930000
vn 0.00000000 0.97161000 0.23659000
vn 0.00000000 0.95340000 0.30172000
vn -0.28898000 0.90937000 0.29921000
vn -0.91692000 0.37270000 0.14265000
vn -0.96787000 0.18787000 0.16712000
vn -0.97375000 0.19368000 0.11954000
vn -0.69923000 0.69923000 0.14887000
vn -0.37841000 0.91359000 0.14887000
vn 0.00000000 0.98886000 0.14887000
vn 0.28898000 0.90937000 0.29921000
vn 0.37011000 0.89764000 0.23930000
vn 0.55979000 0.77452000 0.29454000
vn 0.90872000 0.28144000 0.30824000
vn 0.77452000 0.55979000 0.29454000
vn 0.90093000 0.36226000 0.23894000
vn 0.94292000 0.16889000 0.28703000
vn 0.93510000 0.14808000 0.32197000
vn 0.68619000 0.68619000 0.24144000
vn 0.37841000 0.91359000 0.14887000
vn 0.69923000 0.69923000 0.14887000
vn 0.91692000 0.37270000 0.14265000
vn 0.97375000 0.19368000 0.11954000
vn 0.96787000 0.18787000 0.16712000
vn 0.91776000 -0.13700000 0.37277000
vn 0.91735000 -0.14527000 0.37063000
vn 0.88142000 -0.28447000 0.37706000
vn 0.88998000 -0.26079000 0.37408000
vn 0.74870000 -0.54321000 0.37996000
vn 0.78084000 -0.50134000 0.37276000
vn 0.54370000 -0.74769000 0.38125000
vn 0.60810000 -0.70137000 0.37188000
vn 0.28575000 -0.87887000 0.38201000
vn 0.38586000 -0.84454000 0.37130000
vn 0.91905000 -0.13212000 0.37133000
vn 0.13221000 -0.91918000 0.37099000
vn 0.00000000 -0.92406000 0.38225000
vn -0.28575000 -0.87887000 0.38201000
vn -0.13221000 -0.91918000 0.37099000
vn -0.54370000 -0.74769000 0.38125000
vn -0.38586000 -0.84454000 0.37130000
vn -0.74870000 -0.54321000 0.37996000
vn -0.88142000 -0.28447000 0.37706000
vn -0.78084000 -0.50134000 0.37276000
vn -0.91776000 -0.13700000 0.37277000
vn -0.91735000 -0.14527000 0.37063000
vn -0.60810000 -0.70137000 0.37188000
vn -0.91905000 -0.13212000 0.37133000
vn -0.88998000 -0.26079000 0.37408000
vn 0.98982000 -0.14231000 0.00000000
vn 0.95950000 -0.28172000 0.00000000
vn 0.95950000 -0.28172000 0.00000000
vn 0.84125000 -0.54064000 0.00000000
vn 0.84125000 -0.54064000 0.00000000
vn 0.65486000 -0.75575000 0.00000000
vn 0.41540000 -0.90964000 0.00000000
vn 0.41540000 -0.90964000 0.00000000
vn 0.14231000 -0.98982000 0.00000000
vn 0.14231000 -0.98982000 0.00000000
vn 0.65486000 -0.75575000 0.00000000
vn -0.14231000 -0.98982000 0.00000000
vn -0.14231000 -0.98982000 0.00000000
vn -0.41540000 -0.90964000 0.00000000
vn -0.41540000 -0.90964000 0.00000000
vn -0.65486000 -0.75575000 0.00000000
vn -0.65486000 -0.75575000 0.00000000
vn -0.84125000 -0.54064000 0.00000000
vn -0.95950000 -0.28172000 0.00000000
vn -0.95950000 -0.28172000 0.00000000
vn -0.98982000 -0.14231000 0.00000000
vn -0.98982000 -0.14231000 0.00000000
vn -0.84125000 -0.54064000 0.00000000
vn -0.83214000 -0.36824000 -0.41466000
vn -0.90453000 -0.17500000 -0.38885000
vn -0.96709000 -0.18308000 -0.17668000
vn -0.76377000 -0.62396000 0.16532000
vn -0.87941000 -0.16975000 -0.44478000
vn -0.56941000 -0.58320000 0.57936000
vn -0.42349000 -0.81765000 -0.39001000
vn -0.34245000 -0.83942000 -0.42202000
vn -0.17286000 -0.95640000 -0.23539000
vn -0.79267000 -0.15952000 -0.58841000
vn -0.37093000 -0.38472000 -0.84522000
vn -0.53889000 -0.42831000 -0.72536000
vn 0.00000000 -0.91126000 -0.41182000
vn -0.14463000 -0.81792000 -0.55686000
vn 0.14463000 -0.81792000 -0.55686000
vn -0.40631000 -0.79494000 -0.45053000
vn 0.17286000 -0.95640000 -0.23539000
vn 0.33263000 -0.84391000 -0.42092000
vn 0.42349000 -0.81765000 -0.39001000
vn 0.56964000 -0.75510000 -0.32454000
vn 0.96709000 -0.18308000 -0.17668000
vn 0.83859000 -0.35469000 -0.41347000
vn 0.81484000 -0.53800000 -0.21586000
vn 0.65632000 -0.62900000 -0.41665000
vn 0.90453000 -0.17500000 -0.38885000
vn 0.52670000 -0.68748000 -0.49997000
vn 0.68738000 -0.45257000 -0.56805000
vn 0.79267000 -0.15952000 -0.58841000
vn 0.87941000 -0.16975000 -0.44478000
vn 0.38863000 -0.38863000 -0.83543000
vn 0.50713000 -0.21186000 -0.83542000
vn 0.56066000 -0.53814000 -0.62933000
vn 0.21193000 -0.21193000 -0.95403000
vn 0.27568000 -0.11591000 -0.95424000
vn 0.21031000 -0.50777000 -0.83543000
vn 0.27767000 -0.70784000 -0.64951000
vn 0.11509000 -0.27668000 -0.95405000
vn 0.00000000 -0.54961000 -0.83542000
vn 0.00000000 -0.30016000 -0.95389000
vn -0.21031000 -0.50777000 -0.83543000
vn 0.00000000 -0.79305000 -0.60915000
vn -0.11509000 -0.27668000 -0.95405000
vn -0.38863000 -0.38863000 -0.83543000
vn -0.56066000 -0.53814000 -0.62933000
vn -0.21193000 -0.21193000 -0.95403000
vn -0.50713000 -0.21186000 -0.83542000
vn -0.27568000 -0.11591000 -0.95424000
vn 0.72620000 -0.30955000 -0.61386000
vn 0.78695000 -0.14772000 -0.59907000
vn 0.67625000 -0.13038000 -0.72505000
vn 0.58884000 -0.38863000 -0.70869000
vn 0.69266000 -0.13132000 -0.70920000
vn 0.39131000 -0.06604000 -0.91788000
vn 0.46130000 -0.61447000 -0.64002000
vn 0.37740000 -0.71964000 -0.58282000
vn 0.12711000 -0.70460000 -0.69813000
vn 0.23017000 -0.04138000 -0.97227000
vn 0.18790000 -0.01721000 -0.98204000
vn 0.17561000 -0.11698000 -0.97749000
vn 0.13343000 -0.04996000 -0.98980000
vn 0.09992000 -0.09992000 -0.98997000
vn 0.11698000 -0.17561000 -0.97749000
vn 0.04996000 -0.13343000 -0.98980000
vn 0.04093000 -0.20775000 -0.97733000
vn 0.00000000 -0.14130000 -0.98997000
vn -0.12711000 -0.70460000 -0.69813000
vn -0.37740000 -0.71964000 -0.58282000
vn -0.27767000 -0.70784000 -0.64951000
vn -0.46130000 -0.61447000 -0.64002000
vn -0.58884000 -0.38863000 -0.70869000
vn -0.72620000 -0.30955000 -0.61386000
vn -0.67625000 -0.13038000 -0.72505000
vn -0.78695000 -0.14772000 -0.59907000
vn -0.69266000 -0.13132000 -0.70920000
vn -0.39131000 -0.06604000 -0.91788000
vn -0.04093000 -0.20775000 -0.97733000
vn -0.11698000 -0.17561000 -0.97749000
vn -0.04996000 -0.13343000 -0.98980000
vn -0.09992000 -0.09992000 -0.98997000
vn -0.23017000 -0.04138000 -0.97227000
vn -0.17561000 -0.11698000 -0.97749000
vn -0.13343000 -0.04996000 -0.98980000
vn -0.18790000 -0.01721000 -0.98204000
vn 0.50830000 -0.50830000 0.69517000
vn 0.66202000 -0.27913000 0.69556000
vn 0.36944000 -0.15580000 0.91610000
vn 0.65312000 -0.64518000 0.39645000
vn 0.85078000 -0.35421000 0.38820000
vn 0.27507000 -0.66413000 0.69517000
vn 0.28502000 -0.28502000 0.91517000
vn 0.34692000 -0.84714000 0.40250000
vn 0.00000000 -0.71885000 0.69517000
vn 0.15424000 -0.37239000 0.91517000
vn 0.00000000 -0.92120000 0.38909000
vn -0.27507000 -0.66413000 0.69517000
vn 0.00000000 -0.40306000 0.91517000
vn -0.34692000 -0.84714000 0.40250000
vn -0.50830000 -0.50830000 0.69517000
vn -0.15424000 -0.37239000 0.91517000
vn -0.65312000 -0.64518000 0.39645000
vn -0.66202000 -0.27913000 0.69556000
vn -0.28502000 -0.28502000 0.91517000
vn -0.85078000 -0.35421000 0.38820000
vn 0.18022000 -0.07465000 0.98079000
vn 0.23731000 -0.03226000 0.97090000
vn 0.49942000 -0.08072000 0.86259000
vn 0.84134000 -0.14786000 0.51989000
vn 0.13792000 -0.13792000 0.98079000
vn 0.07465000 -0.18022000 0.98079000
vn 0.00000000 -0.19508000 0.98079000
vn 0.93085000 -0.15955000 0.32872000
vn 0.91171000 -0.19551000 0.36132000
vn 0.78757000 -0.51647000 0.33614000
vn 0.59351000 -0.75380000 0.28203000
vn 0.15937000 -0.93170000 0.32641000
vn 0.43091000 -0.86780000 0.24748000
vn -0.07465000 -0.18022000 0.98079000
vn -0.13792000 -0.13792000 0.98079000
vn -0.36944000 -0.15580000 0.91610000
vn -0.18022000 -0.07465000 0.98079000
vn -0.23731000 -0.03226000 0.97090000
vn -0.49942000 -0.08072000 0.86259000
vn -0.84134000 -0.14786000 0.51989000
vn -0.15937000 -0.93170000 0.32641000
vn -0.59351000 -0.75380000 0.28203000
vn -0.43091000 -0.86780000 0.24748000
vn -0.93085000 -0.15955000 0.32872000
vn -0.78757000 -0.51647000 0.33614000
vn -0.91171000 -0.19551000 0.36132000
vn 0.98219000 -0.17625000 0.06513000
vn 0.98746000 -0.14197000 0.06903000
vn 0.95732000 -0.28023000 0.07077000
vn 0.70519000 -0.70587000 0.06674000
vn 0.83900000 -0.53937000 0.07181000
vn 0.65238000 -0.75466000 0.06992000
vn 0.41519000 -0.90707000 0.06955000
vn 0.38220000 -0.92166000 0.06690000
vn 0.92221000 -0.38070000 0.06772000
vn 0.97849000 -0.19462000 0.06839000
vn 0.00000000 -0.99780000 0.06626000
vn 0.14243000 -0.98722000 0.07151000
vn -0.14243000 -0.98722000 0.07151000
vn -0.41519000 -0.90707000 0.06955000
vn -0.38220000 -0.92166000 0.06690000
vn -0.65238000 -0.75466000 0.06992000
vn -0.92221000 -0.38070000 0.06772000
vn -0.83900000 -0.53937000 0.07181000
vn -0.95732000 -0.28023000 0.07077000
vn -0.98219000 -0.17625000 0.06513000
vn -0.98746000 -0.14197000 0.06903000
vn -0.70519000 -0.70587000 0.06674000
vn -0.97849000 -0.19462000 0.06842000
vn -0.40631000 0.79494000 -0.45053000
vn -0.98982000 0.14231000 0.00000000
vn 0.98982000 -0.14231000 0.00000000
vn 0.40631000 -0.79494000 -0.45053000
vt 0.25752000 0.06556000
vt 0.25752000 0.06556000
vt 0.25752000 0.06556000
vt 0.25752000 0.06556000
vt 0.23950000 0.04339000
vt 0.21733000 0.02538000
vt 0.21733000 0.02538000
vt 0.21733000 0.02538000
vt 0.16668000 0.00509000
vt 0.16668000 0.00509000
vt 0.16668000 0.00509000
vt 0.16668000 0.00509000
vt 0.23950000 0.23950000
vt 0.23950000 0.23950000
vt 0.27038000 0.09040000
vt 0.27781000 0.11621000
vt 0.27781000 0.11621000
vt 0.05994000 0.02926000
vt 0.05994000 0.02926000
vt 0.05994000 0.02926000
vt 0.14145000 0.00277000
vt 0.14145000 0.00277000
vt 0.09859000 0.00956000
vt 0.19249000 0.01251000
vt 0.02926000 0.05994000
vt 0.02926000 0.05994000
vt 0.00956000 0.18430000
vt 0.00956000 0.18430000
vt 0.00956000 0.09859000
vt 0.27781000 0.16668000
vt 0.27781000 0.16668000
vt 0.28012000 0.14145000
vt 0.25752000 0.21733000
vt 0.25752000 0.21733000
vt 0.27038000 0.19249000
vt 0.19249000 0.27038000
vt 0.19249000 0.27038000
vt 0.19249000 0.27038000
vt 0.21733000 0.25752000
vt 0.02926000 0.22296000
vt 0.09859000 0.27333000
vt 0.00277000 0.14145000
vt 0.14145000 0.28012000
vt 0.16668000 0.27781000
vt 0.16668000 0.27781000
vt 0.05994000 0.25364000
vt 0.43462000 0.70030000
vt 0.43462000 0.70030000
vt 0.43462000 0.70030000
vt 0.42165000 0.70912000
vt 0.41298000 0.72232000
vt 0.41298000 0.72232000
vt 0.40994000 0.73790000
vt 0.40994000 0.73790000
vt 0.40994000 0.73790000
vt 0.42165000 0.76667000
vt 0.42165000 0.76667000
vt 0.48684000 0.75347000
vt 0.41298000 0.75347000
vt 0.43462000 0.77549000
vt 0.44991000 0.77859000
vt 0.46521000 0.70030000
vt 0.44991000 0.69720000
vt 0.47818000 0.70912000
vt 0.48989000 0.73790000
vt 0.48684000 0.72232000
vt 0.46521000 0.77549000
vt 0.47818000 0.76667000
vt 0.55100000 0.00000000
vt 0.69287000 0.00000000
vt 0.69287000 0.02150000
vt 0.40914000 0.05913000
vt 0.69287000 0.04300000
vt 0.69287000 0.06451000
vt 0.69287000 0.08601000
vt 0.40914000 0.08869000
vt 0.40914000 0.02956000
vt 0.40914000 0.00000000
vt 0.40914000 0.11826000
vt 0.69287000 0.10751000
vt 0.69287000 0.12901000
vt 0.69287000 0.15051000
vt 0.40914000 0.14783000
vt 0.69287000 0.17202000
vt 0.40914000 0.20696000
vt 0.69287000 0.19352000
vt 0.69287000 0.21502000
vt 0.55100000 0.23652000
vt 0.69287000 0.23652000
vt 0.40914000 0.17739000
vt 0.40914000 0.23652000
vt 0.45322000 0.40430000
vt 0.43118000 0.40430000
vt 0.45322000 0.39850000
vt 0.45322000 0.41011000
vt 0.43118000 0.41011000
vt 0.47526000 0.40430000
vt 0.47526000 0.39850000
vt 0.47526000 0.41011000
vt 0.49730000 0.40430000
vt 0.49730000 0.39850000
vt 0.49730000 0.41011000
vt 0.51934000 0.40430000
vt 0.51934000 0.39850000
vt 0.51934000 0.41011000
vt 0.54138000 0.40430000
vt 0.54138000 0.39850000
vt 0.54138000 0.41011000
vt 0.56343000 0.40430000
vt 0.56343000 0.39850000
vt 0.56343000 0.41011000
vt 0.43118000 0.39850000
vt 0.40914000 0.39270000
vt 0.43118000 0.39270000
vt 0.40914000 0.40009000
vt 0.40914000 0.40749000
vt 0.45322000 0.39270000
vt 0.47526000 0.39270000
vt 0.40914000 0.41488000
vt 0.42517000 0.41488000
vt 0.44120000 0.41488000
vt 0.45723000 0.41488000
vt 0.48929000 0.41488000
vt 0.47326000 0.41488000
vt 0.51934000 0.39270000
vt 0.54138000 0.39270000
vt 0.49730000 0.39270000
vt 0.56343000 0.39270000
vt 0.58547000 0.39270000
vt 0.58547000 0.40009000
vt 0.58547000 0.40749000
vt 0.50532000 0.41488000
vt 0.53738000 0.41488000
vt 0.52135000 0.41488000
vt 0.58547000 0.41488000
vt 0.55341000 0.41488000
vt 0.56944000 0.41488000
vt 0.61875000 0.79074000
vt 0.55545000 0.79074000
vt 0.61875000 0.78365000
vt 0.61875000 0.79783000
vt 0.55545000 0.79783000
vt 0.68205000 0.79074000
vt 0.68205000 0.79783000
vt 0.74534000 0.79074000
vt 0.74534000 0.78365000
vt 0.74534000 0.79783000
vt 0.80864000 0.79074000
vt 0.80864000 0.78365000
vt 0.80864000 0.79783000
vt 0.87194000 0.79074000
vt 0.87194000 0.79783000
vt 0.93524000 0.79074000
vt 0.87194000 0.78365000
vt 0.93524000 0.79783000
vt 0.55545000 0.78365000
vt 0.49215000 0.77656000
vt 0.53819000 0.77656000
vt 0.49215000 0.78601000
vt 0.58422000 0.77656000
vt 0.63026000 0.77656000
vt 0.67629000 0.77656000
vt 0.68205000 0.78365000
vt 0.72233000 0.77656000
vt 0.49215000 0.79547000
vt 0.54279000 0.80492000
vt 0.49215000 0.80492000
vt 0.59343000 0.80492000
vt 0.64407000 0.80492000
vt 0.74534000 0.80492000
vt 0.69471000 0.80492000
vt 0.76836000 0.77656000
vt 0.81440000 0.77656000
vt 0.86043000 0.77656000
vt 0.93524000 0.78365000
vt 0.90647000 0.77656000
vt 0.95250000 0.77656000
vt 0.99854000 0.77656000
vt 0.99854000 0.78601000
vt 0.79598000 0.80492000
vt 0.84662000 0.80492000
vt 0.89726000 0.80492000
vt 0.99854000 0.79547000
vt 0.99854000 0.80492000
vt 0.94790000 0.80492000
vt 0.47602000 0.42611000
vt 0.40914000 0.41635000
vt 0.45778000 0.41635000
vt 0.50642000 0.41635000
vt 0.40914000 0.43588000
vt 0.55506000 0.41635000
vt 0.60369000 0.41635000
vt 0.60977000 0.42611000
vt 0.65233000 0.41635000
vt 0.45778000 0.43588000
vt 0.55506000 0.43588000
vt 0.50642000 0.43588000
vt 0.67665000 0.42611000
vt 0.65233000 0.43588000
vt 0.70097000 0.43588000
vt 0.60369000 0.43588000
vt 0.70097000 0.41635000
vt 0.74961000 0.41635000
vt 0.74353000 0.42611000
vt 0.79825000 0.41635000
vt 0.89553000 0.41635000
vt 0.87729000 0.42611000
vt 0.84689000 0.41635000
vt 0.81041000 0.42611000
vt 0.94417000 0.41635000
vt 0.79825000 0.43588000
vt 0.84689000 0.43588000
vt 0.89553000 0.43588000
vt 0.94417000 0.43588000
vt 0.40914000 0.43734000
vt 0.45778000 0.43734000
vt 0.45778000 0.45694000
vt 0.50642000 0.43734000
vt 0.50642000 0.45694000
vt 0.55506000 0.43734000
vt 0.60369000 0.43734000
vt 0.60369000 0.45694000
vt 0.65233000 0.43734000
vt 0.65233000 0.45694000
vt 0.55506000 0.45694000
vt 0.70097000 0.43734000
vt 0.70097000 0.45694000
vt 0.74961000 0.43734000
vt 0.74961000 0.45694000
vt 0.79825000 0.43734000
vt 0.79825000 0.45694000
vt 0.84689000 0.43734000
vt 0.89553000 0.43734000
vt 0.89553000 0.45694000
vt 0.94417000 0.43734000
vt 0.94417000 0.45694000
vt 0.84689000 0.45694000
vt 0.30612000 0.28616000
vt 0.40767000 0.28616000
vt 0.40767000 0.33967000
vt 0.20457000 0.33480000
vt 0.40767000 0.39317000
vt 0.20457000 0.38344000
vt 0.40767000 0.44667000
vt 0.20457000 0.43208000
vt 0.40767000 0.50018000
vt 0.20457000 0.48072000
vt 0.20457000 0.28616000
vt 0.20457000 0.52936000
vt 0.40767000 0.55368000
vt 0.40767000 0.60718000
vt 0.20457000 0.57800000
vt 0.40767000 0.66068000
vt 0.20457000 0.62664000
vt 0.40767000 0.71419000
vt 0.40767000 0.76769000
vt 0.20457000 0.72391000
vt 0.30612000 0.82119000
vt 0.40767000 0.82119000
vt 0.20457000 0.67528000
vt 0.20457000 0.82119000
vt 0.20457000 0.77255000
vt 0.40914000 0.26422000
vt 0.43824000 0.23799000
vt 0.40914000 0.23799000
vt 0.44552000 0.27680000
vt 0.46735000 0.23799000
vt 0.49645000 0.23799000
vt 0.48190000 0.27680000
vt 0.51828000 0.27680000
vt 0.55466000 0.27680000
vt 0.55466000 0.23799000
vt 0.52556000 0.23799000
vt 0.44552000 0.31669000
vt 0.40914000 0.29046000
vt 0.40914000 0.31669000
vt 0.48190000 0.31669000
vt 0.51828000 0.31669000
vt 0.55466000 0.31669000
vt 0.58377000 0.23799000
vt 0.59105000 0.27680000
vt 0.61287000 0.23799000
vt 0.67108000 0.23799000
vt 0.64198000 0.23799000
vt 0.66381000 0.27680000
vt 0.70019000 0.26422000
vt 0.70019000 0.23799000
vt 0.62743000 0.27680000
vt 0.59105000 0.31669000
vt 0.62743000 0.31669000
vt 0.66381000 0.31669000
vt 0.70019000 0.31669000
vt 0.70019000 0.29046000
vt 0.49215000 0.72262000
vt 0.52126000 0.69639000
vt 0.49215000 0.69639000
vt 0.52853000 0.73520000
vt 0.55036000 0.69639000
vt 0.57947000 0.69639000
vt 0.56491000 0.73520000
vt 0.60130000 0.73520000
vt 0.63768000 0.73520000
vt 0.63768000 0.69639000
vt 0.60857000 0.69639000
vt 0.52853000 0.77509000
vt 0.49215000 0.74886000
vt 0.49215000 0.77509000
vt 0.56491000 0.77509000
vt 0.60130000 0.77509000
vt 0.63768000 0.77509000
vt 0.66678000 0.69639000
vt 0.67406000 0.73520000
vt 0.69589000 0.69639000
vt 0.75410000 0.69639000
vt 0.72499000 0.69639000
vt 0.74682000 0.73520000
vt 0.78320000 0.72262000
vt 0.78320000 0.69639000
vt 0.71044000 0.73520000
vt 0.67406000 0.77509000
vt 0.71044000 0.77509000
vt 0.74682000 0.77509000
vt 0.78320000 0.77509000
vt 0.78320000 0.74886000
vt 0.10155000 0.28616000
vt 0.20310000 0.28616000
vt 0.20310000 0.33967000
vt 0.00000000 0.33480000
vt 0.20310000 0.39317000
vt 0.00000000 0.38344000
vt 0.20310000 0.44667000
vt 0.00000000 0.43208000
vt 0.20310000 0.50018000
vt 0.00000000 0.48072000
vt 0.00000000 0.28616000
vt 0.00000000 0.52936000
vt 0.20310000 0.55368000
vt 0.20310000 0.60718000
vt 0.00000000 0.57800000
vt 0.20310000 0.66068000
vt 0.00000000 0.62664000
vt 0.20310000 0.71419000
vt 0.20310000 0.76769000
vt 0.00000000 0.72391000
vt 0.10155000 0.82119000
vt 0.20310000 0.82119000
vt 0.00000000 0.67528000
vt 0.00000000 0.82119000
vt 0.00000000 0.77255000
vt 0.40914000 0.31816000
vt 0.45778000 0.31816000
vt 0.45778000 0.33776000
vt 0.50642000 0.31816000
vt 0.50642000 0.33776000
vt 0.55506000 0.31816000
vt 0.60369000 0.31816000
vt 0.60369000 0.33776000
vt 0.65233000 0.31816000
vt 0.65233000 0.33776000
vt 0.55506000 0.33776000
vt 0.70097000 0.33776000
vt 0.70097000 0.31816000
vt 0.74961000 0.31816000
vt 0.74961000 0.33776000
vt 0.79825000 0.31816000
vt 0.79825000 0.33776000
vt 0.84689000 0.31816000
vt 0.89553000 0.31816000
vt 0.89553000 0.33776000
vt 0.94417000 0.31816000
vt 0.94417000 0.33776000
vt 0.84689000 0.33776000
vt 0.47602000 0.81615000
vt 0.40914000 0.80638000
vt 0.45778000 0.80638000
vt 0.50642000 0.80638000
vt 0.40914000 0.82591000
vt 0.55506000 0.80638000
vt 0.60369000 0.80638000
vt 0.60977000 0.81615000
vt 0.65233000 0.80638000
vt 0.45778000 0.82591000
vt 0.55506000 0.82591000
vt 0.50642000 0.82591000
vt 0.67665000 0.81615000
vt 0.65233000 0.82591000
vt 0.70097000 0.82591000
vt 0.60369000 0.82591000
vt 0.70097000 0.80638000
vt 0.74353000 0.81615000
vt 0.74961000 0.80638000
vt 0.79825000 0.80638000
vt 0.89553000 0.80638000
vt 0.87729000 0.81615000
vt 0.84689000 0.80638000
vt 0.81041000 0.81615000
vt 0.94417000 0.80638000
vt 0.79825000 0.82591000
vt 0.84689000 0.82591000
vt 0.89553000 0.82591000
vt 0.94417000 0.82591000
vt 0.53610000 0.35340000
vt 0.47262000 0.35340000
vt 0.53610000 0.34631000
vt 0.53610000 0.36049000
vt 0.47262000 0.36049000
vt 0.59958000 0.35340000
vt 0.59958000 0.34631000
vt 0.59958000 0.36049000
vt 0.66306000 0.35340000
vt 0.66306000 0.36049000
vt 0.72654000 0.35340000
vt 0.66306000 0.34631000
vt 0.72654000 0.36049000
vt 0.79002000 0.35340000
vt 0.79002000 0.34631000
vt 0.79002000 0.36049000
vt 0.85351000 0.35340000
vt 0.85351000 0.36049000
vt 0.47262000 0.34631000
vt 0.40914000 0.33922000
vt 0.45531000 0.33922000
vt 0.50148000 0.33922000
vt 0.40914000 0.34867000
vt 0.40914000 0.35813000
vt 0.54764000 0.33922000
vt 0.59381000 0.33922000
vt 0.63998000 0.33922000
vt 0.43872000 0.36758000
vt 0.40914000 0.36758000
vt 0.50274000 0.36758000
vt 0.47008000 0.36758000
vt 0.53610000 0.36758000
vt 0.56946000 0.36758000
vt 0.60213000 0.36758000
vt 0.63348000 0.36758000
vt 0.66306000 0.36758000
vt 0.68615000 0.33922000
vt 0.73232000 0.33922000
vt 0.72654000 0.34631000
vt 0.77848000 0.33922000
vt 0.82465000 0.33922000
vt 0.85351000 0.34631000
vt 0.87082000 0.33922000
vt 0.91699000 0.33922000
vt 0.91699000 0.34867000
vt 0.91699000 0.35813000
vt 0.69264000 0.36758000
vt 0.75666000 0.36758000
vt 0.72400000 0.36758000
vt 0.79002000 0.36758000
vt 0.88741000 0.36758000
vt 0.82338000 0.36758000
vt 0.85605000 0.36758000
vt 0.91699000 0.36758000
vt 0.45322000 0.38065000
vt 0.43118000 0.38065000
vt 0.43118000 0.37485000
vt 0.45322000 0.38646000
vt 0.43118000 0.38646000
vt 0.47526000 0.38065000
vt 0.45322000 0.37485000
vt 0.47526000 0.38646000
vt 0.49730000 0.38065000
vt 0.47526000 0.37485000
vt 0.49730000 0.38646000
vt 0.51934000 0.38065000
vt 0.49730000 0.37485000
vt 0.51934000 0.38646000
vt 0.54138000 0.38065000
vt 0.51934000 0.37485000
vt 0.54138000 0.38646000
vt 0.56343000 0.38065000
vt 0.54138000 0.37485000
vt 0.56343000 0.38646000
vt 0.43118000 0.36904000
vt 0.40914000 0.36904000
vt 0.40914000 0.37644000
vt 0.40914000 0.38384000
vt 0.45322000 0.36904000
vt 0.47526000 0.36904000
vt 0.49730000 0.36904000
vt 0.40914000 0.39123000
vt 0.42517000 0.39123000
vt 0.44120000 0.39123000
vt 0.45723000 0.39123000
vt 0.48929000 0.39123000
vt 0.47326000 0.39123000
vt 0.51934000 0.36904000
vt 0.54138000 0.36904000
vt 0.56343000 0.37485000
vt 0.56343000 0.36904000
vt 0.58547000 0.36904000
vt 0.58547000 0.37644000
vt 0.58547000 0.38384000
vt 0.50532000 0.39123000
vt 0.53738000 0.39123000
vt 0.52135000 0.39123000
vt 0.58547000 0.39123000
vt 0.55341000 0.39123000
vt 0.56944000 0.39123000
vt 0.55100000 0.45840000
vt 0.69287000 0.45840000
vt 0.69287000 0.47991000
vt 0.40914000 0.51753000
vt 0.69287000 0.50141000
vt 0.69287000 0.52291000
vt 0.69287000 0.54441000
vt 0.40914000 0.54710000
vt 0.40914000 0.48797000
vt 0.40914000 0.45840000
vt 0.40914000 0.57666000
vt 0.69287000 0.56591000
vt 0.69287000 0.58742000
vt 0.69287000 0.60892000
vt 0.40914000 0.60623000
vt 0.69287000 0.63042000
vt 0.40914000 0.66536000
vt 0.69287000 0.65192000
vt 0.69287000 0.67342000
vt 0.55100000 0.69492000
vt 0.69287000 0.69492000
vt 0.40914000 0.63580000
vt 0.40914000 0.69492000
vt 0.74961000 0.43588000
vt 0.40914000 0.45694000
vt 0.40914000 0.33776000
vt 0.74961000 0.82591000
f 1/1/1 5/5/5 8/8/8
f 2/2/2 6/6/6 12/12/12
f 14/14/14 3/3/3 9/9/9
f 15/15/15 4/4/4 16/16/16
f 3/3/3 14/14/14 17/17/17
f 20/20/20 21/21/21 23/23/23
f 11/11/11 22/22/22 19/19/19
f 9/9/9 7/7/7 24/24/24
f 18/18/18 26/26/26 10/10/10
f 28/28/28 9/9/9 25/25/25
f 25/25/25 29/29/29 28/28/28
f 30/30/30 32/32/32 17/17/17
f 34/34/34 35/35/35 31/31/31
f 14/14/14 33/33/33 30/30/30
f 36/36/36 39/39/39 13/13/13
f 9/9/9 28/28/28 14/14/14
f 38/38/38 14/14/14 28/28/28
f 40/40/40 41/41/41 28/28/28
f 28/28/28 29/29/29 42/42/42
f 41/41/41 43/43/43 44/44/44
f 41/41/41 40/40/40 46/46/46
f 44/44/44 28/28/28 41/41/41
f 27/27/27 45/45/45 37/37/37
f 14/14/14 30/30/30 17/17/17
f 47/47/47 50/50/50 52/52/52
f 53/53/53 48/48/48 51/51/51
f 56/56/56 58/58/58 47/47/47
f 56/56/56 55/55/55 59/59/59
f 49/49/49 54/54/54 57/57/57
f 60/60/60 61/61/61 56/56/56
f 62/62/62 63/63/63 47/47/47
f 64/64/64 62/62/62 58/58/58
f 64/64/64 65/65/65 66/66/66
f 65/65/65 64/64/64 58/58/58
f 58/58/58 61/61/61 67/67/67
f 67/67/67 68/68/68 58/58/58
f 61/61/61 58/58/58 56/56/56
f 62/62/62 47/47/47 58/58/58
f 69/69/69 70/70/70 71/71/71
f 72/72/72 73/73/73 74/74/74
f 74/74/74 75/75/75 76/76/76
f 77/77/77 71/71/71 73/73/73
f 78/78/78 69/69/69 77/77/77
f 77/77/77 69/69/69 71/71/71
f 72/72/72 77/77/77 73/73/73
f 79/79/79 76/76/76 80/80/80
f 81/81/81 82/82/82 83/83/83
f 82/82/82 84/84/84 83/83/83
f 85/85/85 86/86/86 87/87/87
f 88/88/88 87/87/87 89/89/89
f 90/90/90 84/84/84 86/86/86
f 91/91/91 85/85/85 88/88/88
f 86/86/86 85/85/85 90/90/90
f 88/88/88 85/85/85 87/87/87
f 80/80/80 81/81/81 79/79/79
f 92/92/92 93/93/93 94/94/94
f 95/95/95 96/96/96 93/93/93
f 97/97/97 92/92/92 98/98/98
f 99/99/99 95/95/95 92/92/92
f 100/100/100 97/97/97 101/101/101
f 102/102/102 99/99/99 100/100/100
f 103/103/103 100/100/100 104/104/104
f 105/105/105 102/102/102 100/100/100
f 106/106/106 103/103/103 107/107/107
f 108/108/108 105/105/105 103/103/103
f 109/109/109 106/106/106 110/110/110
f 111/111/111 108/108/108 109/109/109
f 112/112/112 113/113/113 114/114/114
f 93/93/93 115/115/115 112/112/112
f 113/113/113 112/112/112 115/115/115
f 116/116/116 115/115/115 93/93/93
f 94/94/94 112/112/112 117/117/117
f 117/117/117 118/118/118 98/98/98
f 101/101/101 98/98/98 118/118/118
f 119/119/119 116/116/116 96/96/96
f 96/96/96 116/116/116 93/93/93
f 96/96/96 120/120/120 119/119/119
f 96/96/96 121/121/121 120/120/120
f 96/96/96 95/95/95 121/121/121
f 95/95/95 99/99/99 122/122/122
f 123/123/123 124/124/124 99/99/99
f 125/125/125 126/126/126 104/104/104
f 125/125/125 104/104/104 127/127/127
f 126/126/126 128/128/128 107/107/107
f 110/110/110 128/128/128 129/129/129
f 109/109/109 110/110/110 130/130/130
f 131/131/131 109/109/109 130/130/130
f 102/102/102 105/105/105 132/132/132
f 133/133/133 134/134/134 105/105/105
f 123/123/123 102/102/102 132/132/132
f 135/135/135 111/111/111 131/131/131
f 108/108/108 111/111/111 136/136/136
f 111/111/111 137/137/137 136/136/136
f 111/111/111 135/135/135 137/137/137
f 131/131/131 111/111/111 109/109/109
f 138/138/138 139/139/139 140/140/140
f 141/141/141 142/142/142 139/139/139
f 143/143/143 138/138/138 140/140/140
f 144/144/144 141/141/141 143/143/143
f 145/145/145 143/143/143 146/146/146
f 147/147/147 144/144/144 145/145/145
f 148/148/148 145/145/145 149/149/149
f 150/150/150 147/147/147 145/145/145
f 151/151/151 148/148/148 149/149/149
f 152/152/152 150/150/150 151/151/151
f 153/153/153 151/151/151 154/154/154
f 155/155/155 152/152/152 153/153/153
f 156/156/156 157/157/157 158/158/158
f 159/159/159 157/157/157 156/156/156
f 160/160/160 156/156/156 158/158/158
f 140/140/140 156/156/156 160/160/160
f 156/156/156 139/139/139 159/159/159
f 161/161/161 162/162/162 163/163/163
f 162/162/162 164/164/164 163/163/163
f 142/142/142 165/165/165 139/139/139
f 159/159/159 139/139/139 165/165/165
f 166/166/166 167/167/167 142/142/142
f 165/165/165 142/142/142 167/167/167
f 168/168/168 166/166/166 142/142/142
f 141/141/141 169/169/169 168/168/168
f 142/142/142 141/141/141 168/168/168
f 141/141/141 144/144/144 169/169/169
f 170/170/170 171/171/171 147/147/147
f 172/172/172 173/173/173 149/149/149
f 173/173/173 174/174/174 149/149/149
f 164/164/164 172/172/172 146/146/146
f 175/175/175 176/176/176 177/177/177
f 175/175/175 177/177/177 178/178/178
f 175/175/175 154/154/154 176/176/176
f 178/178/178 179/179/179 175/175/175
f 153/153/153 175/175/175 179/179/179
f 147/147/147 150/150/150 180/180/180
f 181/181/181 180/180/180 150/150/150
f 182/182/182 181/181/181 152/152/152
f 155/155/155 153/153/153 183/183/183
f 179/179/179 183/183/183 153/153/153
f 184/184/184 155/155/155 183/183/183
f 152/152/152 155/155/155 182/182/182
f 155/155/155 184/184/184 185/185/185
f 186/186/186 187/187/187 188/188/188
f 189/189/189 186/186/186 188/188/188
f 190/190/190 187/187/187 186/186/186
f 186/186/186 189/189/189 191/191/191
f 192/192/192 193/193/193 191/191/191
f 193/193/193 186/186/186 191/191/191
f 192/192/192 194/194/194 193/193/193
f 195/195/195 190/190/190 186/186/186
f 196/196/196 197/197/197 186/186/186
f 195/195/195 186/186/186 197/197/197
f 193/193/193 198/198/198 199/199/199
f 199/199/199 198/198/198 200/200/200
f 196/196/196 193/193/193 201/201/201
f 193/193/193 196/196/196 186/186/186
f 198/198/198 194/194/194 202/202/202
f 202/202/202 203/203/203 204/204/204
f 203/203/203 205/205/205 204/204/204
f 198/198/198 204/204/204 200/200/200
f 206/206/206 207/207/207 208/208/208
f 208/208/208 209/209/209 205/205/205
f 210/210/210 207/207/207 206/206/206
f 204/204/204 209/209/209 211/211/211
f 211/211/211 209/209/209 212/212/212
f 213/213/213 212/212/212 207/207/207
f 209/209/209 207/207/207 212/212/212
f 207/207/207 214/214/214 213/213/213
f 214/214/214 207/207/207 210/210/210
f 207/207/207 209/209/209 208/208/208
f 215/215/215 216/216/216 217/217/217
f 216/216/216 218/218/218 219/219/219
f 220/220/220 221/221/221 222/222/222
f 221/221/221 223/223/223 224/224/224
f 218/218/218 220/220/220 225/225/225
f 223/223/223 226/226/226 227/227/227
f 226/226/226 228/228/228 229/229/229
f 228/228/228 230/230/230 231/231/231
f 232/232/232 233/233/233 234/234/234
f 233/233/233 235/235/235 236/236/236
f 230/230/230 232/232/232 237/237/237
f 238/238/238 239/239/239 240/240/240
f 240/240/240 241/241/241 238/238/238
f 240/240/240 242/242/242 243/243/243
f 242/242/242 244/244/244 245/245/245
f 244/244/244 246/246/246 247/247/247
f 238/238/238 241/241/241 248/248/248
f 249/249/249 247/247/247 246/246/246
f 250/250/250 251/251/251 252/252/252
f 251/251/251 253/253/253 254/254/254
f 255/255/255 256/256/256 257/257/257
f 258/258/258 256/256/256 259/259/259
f 253/253/253 255/255/255 260/260/260
f 258/258/258 261/261/261 262/262/262
f 262/262/262 256/256/256 258/258/258
f 249/249/249 250/250/250 252/252/252
f 263/263/263 264/264/264 265/265/265
f 264/264/264 263/263/263 266/266/266
f 267/267/267 264/264/264 266/266/266
f 268/268/268 269/269/269 270/270/270
f 268/268/268 267/267/267 269/269/269
f 271/271/271 272/272/272 273/273/273
f 274/274/274 266/266/266 275/275/275
f 263/263/263 275/275/275 266/266/266
f 275/275/275 276/276/276 274/274/274
f 266/266/266 274/274/274 269/269/269
f 269/269/269 277/277/277 270/270/270
f 270/270/270 278/278/278 279/279/279
f 269/269/269 267/267/267 266/266/266
f 280/280/280 281/281/281 282/282/282
f 281/281/281 271/271/271 279/279/279
f 281/281/281 280/280/280 271/271/271
f 283/283/283 284/284/284 285/285/285
f 283/283/283 286/286/286 287/287/287
f 284/284/284 282/282/282 288/288/288
f 283/283/283 285/285/285 286/286/286
f 281/281/281 289/289/289 290/290/290
f 288/288/288 290/290/290 291/291/291
f 291/291/291 292/292/292 293/293/293
f 286/286/286 285/285/285 293/293/293
f 285/285/285 284/284/284 288/288/288
f 294/294/294 295/295/295 296/296/296
f 295/295/295 294/294/294 297/297/297
f 298/298/298 295/295/295 297/297/297
f 299/299/299 300/300/300 301/301/301
f 299/299/299 298/298/298 300/300/300
f 302/302/302 303/303/303 304/304/304
f 305/305/305 297/297/297 306/306/306
f 294/294/294 306/306/306 297/297/297
f 306/306/306 307/307/307 305/305/305
f 297/297/297 305/305/305 300/300/300
f 300/300/300 308/308/308 301/301/301
f 301/301/301 309/309/309 310/310/310
f 300/300/300 298/298/298 297/297/297
f 311/311/311 312/312/312 313/313/313
f 312/312/312 302/302/302 310/310/310
f 312/312/312 311/311/311 302/302/302
f 314/314/314 315/315/315 316/316/316
f 314/314/314 317/317/317 318/318/318
f 315/315/315 313/313/313 319/319/319
f 314/314/314 316/316/316 317/317/317
f 312/312/312 320/320/320 321/321/321
f 319/319/319 321/321/321 322/322/322
f 322/322/322 323/323/323 324/324/324
f 317/317/317 316/316/316 324/324/324
f 316/316/316 315/315/315 319/319/319
f 325/325/325 326/326/326 327/327/327
f 327/327/327 328/328/328 325/325/325
f 327/327/327 329/329/329 330/330/330
f 329/329/329 331/331/331 332/332/332
f 331/331/331 333/333/333 334/334/334
f 325/325/325 328/328/328 335/335/335
f 336/336/336 334/334/334 333/333/333
f 337/337/337 338/338/338 339/339/339
f 338/338/338 340/340/340 341/341/341
f 342/342/342 343/343/343 344/344/344
f 345/345/345 343/343/343 346/346/346
f 340/340/340 342/342/342 347/347/347
f 345/345/345 348/348/348 349/349/349
f 349/349/349 343/343/343 345/345/345
f 336/336/336 337/337/337 339/339/339
f 350/350/350 351/351/351 352/352/352
f 351/351/351 353/353/353 354/354/354
f 355/355/355 356/356/356 357/357/357
f 356/356/356 358/358/358 359/359/359
f 353/353/353 355/355/355 360/360/360
f 361/361/361 359/359/359 358/358/358
f 362/362/362 363/363/363 364/364/364
f 365/365/365 366/366/366 364/364/364
f 367/367/367 368/368/368 369/369/369
f 368/368/368 370/370/370 371/371/371
f 365/365/365 367/367/367 372/372/372
f 373/373/373 374/374/374 375/375/375
f 376/376/376 373/373/373 375/375/375
f 377/377/377 374/374/374 373/373/373
f 373/373/373 376/376/376 378/378/378
f 379/379/379 380/380/380 378/378/378
f 380/380/380 373/373/373 378/378/378
f 379/379/379 381/381/381 380/380/380
f 382/382/382 377/377/377 373/373/373
f 383/383/383 384/384/384 373/373/373
f 382/382/382 373/373/373 384/384/384
f 380/380/380 385/385/385 386/386/386
f 386/386/386 385/385/385 387/387/387
f 383/383/383 380/380/380 388/388/388
f 380/380/380 383/383/383 373/373/373
f 385/385/385 381/381/381 389/389/389
f 390/390/390 389/389/389 391/391/391
f 391/391/391 392/392/392 390/390/390
f 385/385/385 390/390/390 387/387/387
f 393/393/393 394/394/394 395/395/395
f 395/395/395 396/396/396 392/392/392
f 397/397/397 394/394/394 393/393/393
f 390/390/390 396/396/396 398/398/398
f 398/398/398 396/396/396 399/399/399
f 400/400/400 399/399/399 394/394/394
f 396/396/396 394/394/394 399/399/399
f 394/394/394 401/401/401 400/400/400
f 401/401/401 394/394/394 397/397/397
f 394/394/394 396/396/396 395/395/395
f 389/389/389 390/390/390 385/385/385
f 402/402/402 403/403/403 404/404/404
f 405/405/405 406/406/406 403/403/403
f 407/407/407 402/402/402 408/408/408
f 409/409/409 405/405/405 402/402/402
f 410/410/410 407/407/407 408/408/408
f 411/411/411 409/409/409 410/410/410
f 412/412/412 410/410/410 413/413/413
f 414/414/414 411/411/411 410/410/410
f 415/415/415 412/412/412 416/416/416
f 417/417/417 414/414/414 412/412/412
f 418/418/418 415/415/415 416/416/416
f 419/419/419 417/417/417 418/418/418
f 420/420/420 421/421/421 422/422/422
f 423/423/423 420/420/420 422/422/422
f 424/424/424 421/421/421 420/420/420
f 425/425/425 424/424/424 403/403/403
f 403/403/403 406/406/406 425/425/425
f 404/404/404 423/423/423 426/426/426
f 426/426/426 427/427/427 408/408/408
f 427/427/427 428/428/428 408/408/408
f 420/420/420 423/423/423 404/404/404
f 429/429/429 430/430/430 425/425/425
f 406/406/406 429/429/429 425/425/425
f 406/406/406 405/405/405 431/431/431
f 406/406/406 432/432/432 429/429/429
f 406/406/406 431/431/431 432/432/432
f 433/433/433 405/405/405 434/434/434
f 409/409/409 434/434/434 405/405/405
f 435/435/435 434/434/434 409/409/409
f 409/409/409 436/436/436 435/435/435
f 436/436/436 411/411/411 437/437/437
f 409/409/409 411/411/411 436/436/436
f 438/438/438 439/439/439 440/440/440
f 439/439/439 441/441/441 440/440/440
f 416/416/416 441/441/441 442/442/442
f 428/428/428 438/438/438 413/413/413
f 443/443/443 442/442/442 444/444/444
f 443/443/443 444/444/444 445/445/445
f 418/418/418 443/443/443 446/446/446
f 445/445/445 446/446/446 443/443/443
f 447/447/447 418/418/418 446/446/446
f 442/442/442 443/443/443 416/416/416
f 411/411/411 414/414/414 448/448/448
f 437/437/437 411/411/411 448/448/448
f 414/414/414 449/449/449 450/450/450
f 449/449/449 417/417/417 451/451/451
f 417/417/417 449/449/449 414/414/414
f 452/452/452 419/419/419 447/447/447
f 417/417/417 419/419/419 453/453/453
f 419/419/419 454/454/454 453/453/453
f 447/447/447 455/455/455 452/452/452
f 452/452/452 454/454/454 419/419/419
f 447/447/447 419/419/419 418/418/418
f 456/456/456 457/457/457 458/458/458
f 459/459/459 460/460/460 457/457/457
f 461/461/461 456/456/456 462/462/462
f 463/463/463 459/459/459 461/461/461
f 464/464/464 461/461/461 465/465/465
f 466/466/466 463/463/463 464/464/464
f 467/467/467 464/464/464 468/468/468
f 469/469/469 466/466/466 464/464/464
f 470/470/470 467/467/467 471/471/471
f 472/472/472 469/469/469 470/470/470
f 473/473/473 470/470/470 474/474/474
f 475/475/475 472/472/472 473/473/473
f 476/476/476 458/458/458 477/477/477
f 457/457/457 478/478/478 458/458/458
f 479/479/479 478/478/478 457/457/457
f 462/462/462 458/458/458 476/476/476
f 480/480/480 481/481/481 465/465/465
f 468/468/468 465/465/465 482/482/482
f 483/483/483 479/479/479 460/460/460
f 460/460/460 479/479/479 457/457/457
f 460/460/460 484/484/484 483/483/483
f 460/460/460 485/485/485 484/484/484
f 460/460/460 459/459/459 485/485/485
f 459/459/459 463/463/463 486/486/486
f 487/487/487 488/488/488 463/463/463
f 489/489/489 490/490/490 471/471/471
f 489/489/489 471/471/471 468/468/468
f 491/491/491 474/474/474 490/490/490
f 491/491/491 492/492/492 493/493/493
f 473/473/473 491/491/491 494/494/494
f 495/495/495 473/473/473 494/494/494
f 466/466/466 469/469/469 496/496/496
f 497/497/497 498/498/498 469/469/469
f 487/487/487 466/466/466 496/496/496
f 499/499/499 475/475/475 495/495/495
f 472/472/472 475/475/475 500/500/500
f 475/475/475 501/501/501 500/500/500
f 475/475/475 499/499/499 501/501/501
f 495/495/495 475/475/475 473/473/473
f 502/502/502 503/503/503 504/504/504
f 505/505/505 506/506/506 507/507/507
f 507/507/507 508/508/508 509/509/509
f 510/510/510 504/504/504 506/506/506
f 511/511/511 502/502/502 510/510/510
f 510/510/510 502/502/502 504/504/504
f 505/505/505 510/510/510 506/506/506
f 512/512/512 509/509/509 513/513/513
f 514/514/514 515/515/515 516/516/516
f 515/515/515 517/517/517 516/516/516
f 518/518/518 519/519/519 520/520/520
f 521/521/521 520/520/520 522/522/522
f 523/523/523 517/517/517 519/519/519
f 524/524/524 518/518/518 521/521/521
f 519/519/519 518/518/518 523/523/523
f 521/521/521 518/518/518 520/520/520
f 513/513/513 514/514/514 512/512/512
f 74/74/74 76/76/76 72/72/72
f 76/76/76 75/75/75 80/80/80
f 81/81/81 83/83/83 79/79/79
f 84/84/84 90/90/90 83/83/83
f 93/93/93 112/112/112 94/94/94
f 95/95/95 93/93/93 92/92/92
f 92/92/92 94/94/94 98/98/98
f 99/99/99 92/92/92 97/97/97
f 97/97/97 98/98/98 101/101/101
f 99/99/99 97/97/97 100/100/100
f 100/100/100 101/101/101 104/104/104
f 105/105/105 100/100/100 103/103/103
f 103/103/103 104/104/104 107/107/107
f 108/108/108 103/103/103 106/106/106
f 106/106/106 107/107/107 110/110/110
f 108/108/108 106/106/106 109/109/109
f 112/112/112 114/114/114 117/117/117
f 117/117/117 98/98/98 94/94/94
f 101/101/101 118/118/118 127/127/127
f 95/95/95 122/122/122 121/121/121
f 99/99/99 124/124/124 122/122/122
f 123/123/123 99/99/99 102/102/102
f 126/126/126 107/107/107 104/104/104
f 104/104/104 101/101/101 127/127/127
f 128/128/128 110/110/110 107/107/107
f 110/110/110 129/129/129 130/130/130
f 105/105/105 134/134/134 132/132/132
f 133/133/133 105/105/105 108/108/108
f 108/108/108 136/136/136 133/133/133
f 139/139/139 156/156/156 140/140/140
f 141/141/141 139/139/139 138/138/138
f 143/143/143 140/140/140 163/163/163
f 141/141/141 138/138/138 143/143/143
f 143/143/143 163/163/163 146/146/146
f 144/144/144 143/143/143 145/145/145
f 145/145/145 146/146/146 149/149/149
f 150/150/150 145/145/145 148/148/148
f 151/151/151 149/149/149 154/154/154
f 150/150/150 148/148/148 151/151/151
f 153/153/153 154/154/154 175/175/175
f 152/152/152 151/151/151 153/153/153
f 140/140/140 160/160/160 161/161/161
f 161/161/161 163/163/163 140/140/140
f 164/164/164 146/146/146 163/163/163
f 144/144/144 171/171/171 169/169/169
f 171/171/171 144/144/144 147/147/147
f 172/172/172 149/149/149 146/146/146
f 174/174/174 154/154/154 149/149/149
f 154/154/154 174/174/174 176/176/176
f 147/147/147 180/180/180 170/170/170
f 181/181/181 150/150/150 152/152/152
f 155/155/155 185/185/185 182/182/182
f 194/194/194 198/198/198 193/193/193
f 193/193/193 199/199/199 201/201/201
f 202/202/202 204/204/204 198/198/198
f 205/205/205 209/209/209 204/204/204
f 204/204/204 525/525/525 200/200/200
f 204/204/204 211/211/211 525/525/525
f 215/215/215 217/217/217 526/526/526
f 216/216/216 219/219/219 217/217/217
f 220/220/220 222/222/222 225/225/225
f 221/221/221 224/224/224 222/222/222
f 218/218/218 225/225/225 219/219/219
f 223/223/223 227/227/227 224/224/224
f 226/226/226 229/229/229 227/227/227
f 228/228/228 231/231/231 229/229/229
f 232/232/232 234/234/234 237/237/237
f 233/233/233 236/236/236 234/234/234
f 230/230/230 237/237/237 231/231/231
f 240/240/240 243/243/243 241/241/241
f 242/242/242 245/245/245 243/243/243
f 244/244/244 247/247/247 245/245/245
f 249/249/249 246/246/246 250/250/250
f 251/251/251 254/254/254 252/252/252
f 253/253/253 260/260/260 254/254/254
f 256/256/256 262/262/262 257/257/257
f 255/255/255 257/257/257 260/260/260
f 268/268/268 270/270/270 273/273/273
f 271/271/271 273/273/273 270/270/270
f 274/274/274 277/277/277 269/269/269
f 277/277/277 278/278/278 270/270/270
f 270/270/270 279/279/279 271/271/271
f 281/281/281 288/288/288 282/282/282
f 281/281/281 279/279/279 289/289/289
f 280/280/280 272/272/272 271/271/271
f 281/281/281 290/290/290 288/288/288
f 288/288/288 291/291/291 285/285/285
f 291/291/291 293/293/293 285/285/285
f 299/299/299 301/301/301 304/304/304
f 302/302/302 304/304/304 301/301/301
f 305/305/305 308/308/308 300/300/300
f 308/308/308 309/309/309 301/301/301
f 301/301/301 310/310/310 302/302/302
f 312/312/312 319/319/319 313/313/313
f 312/312/312 310/310/310 320/320/320
f 311/311/311 303/303/303 302/302/302
f 312/312/312 321/321/321 319/319/319
f 319/319/319 322/322/322 316/316/316
f 322/322/322 324/324/324 316/316/316
f 327/327/327 330/330/330 328/328/328
f 329/329/329 332/332/332 330/330/330
f 331/331/331 334/334/334 332/332/332
f 336/336/336 333/333/333 337/337/337
f 338/338/338 341/341/341 339/339/339
f 340/340/340 347/347/347 341/341/341
f 343/343/343 349/349/349 344/344/344
f 342/342/342 344/344/344 347/347/347
f 350/350/350 352/352/352 527/527/527
f 351/351/351 354/354/354 352/352/352
f 355/355/355 357/357/357 360/360/360
f 356/356/356 359/359/359 357/357/357
f 353/353/353 360/360/360 354/354/354
f 361/361/361 358/358/358 362/362/362
f 362/362/362 364/364/364 361/361/361
f 365/365/365 364/364/364 363/363/363
f 367/367/367 369/369/369 372/372/372
f 368/368/368 371/371/371 369/369/369
f 365/365/365 372/372/372 366/366/366
f 381/381/381 385/385/385 380/380/380
f 380/380/380 386/386/386 388/388/388
f 392/392/392 396/396/396 390/390/390
f 390/390/390 528/528/528 387/387/387
f 390/390/390 398/398/398 528/528/528
f 403/403/403 420/420/420 404/404/404
f 405/405/405 403/403/403 402/402/402
f 402/402/402 404/404/404 408/408/408
f 409/409/409 402/402/402 407/407/407
f 410/410/410 408/408/408 413/413/413
f 409/409/409 407/407/407 410/410/410
f 412/412/412 413/413/413 440/440/440
f 414/414/414 410/410/410 412/412/412
f 412/412/412 440/440/440 416/416/416
f 417/417/417 412/412/412 415/415/415
f 418/418/418 416/416/416 443/443/443
f 417/417/417 415/415/415 418/418/418
f 424/424/424 420/420/420 403/403/403
f 426/426/426 408/408/408 404/404/404
f 428/428/428 413/413/413 408/408/408
f 405/405/405 433/433/433 431/431/431
f 438/438/438 440/440/440 413/413/413
f 441/441/441 416/416/416 440/440/440
f 414/414/414 450/450/450 448/448/448
f 417/417/417 453/453/453 451/451/451
f 456/456/456 458/458/458 462/462/462
f 459/459/459 457/457/457 456/456/456
f 461/461/461 462/462/462 465/465/465
f 459/459/459 456/456/456 461/461/461
f 464/464/464 465/465/465 468/468/468
f 463/463/463 461/461/461 464/464/464
f 467/467/467 468/468/468 471/471/471
f 469/469/469 464/464/464 467/467/467
f 470/470/470 471/471/471 474/474/474
f 469/469/469 467/467/467 470/470/470
f 473/473/473 474/474/474 491/491/491
f 472/472/472 470/470/470 473/473/473
f 458/458/458 478/478/478 477/477/477
f 462/462/462 476/476/476 480/480/480
f 480/480/480 465/465/465 462/462/462
f 465/465/465 481/481/481 482/482/482
f 459/459/459 486/486/486 485/485/485
f 463/463/463 488/488/488 486/486/486
f 487/487/487 463/463/463 466/466/466
f 490/490/490 474/474/474 471/471/471
f 489/489/489 468/468/468 482/482/482
f 491/491/491 490/490/490 492/492/492
f 491/491/491 493/493/493 494/494/494
f 469/469/469 498/498/498 496/496/496
f 497/497/497 469/469/469 472/472/472
f 472/472/472 500/500/500 497/497/497
f 507/507/507 509/509/509 505/505/505
f 509/509/509 508/508/508 513/513/513
f 514/514/514 516/516/516 512/512/512
f 517/517/517 523/523/523 516/516/516

