<?xml version="1.0" encoding="utf-8"?>
<COLLADA xmlns="http://www.collada.org/2005/11/COLLADASchema" version="1.4.1">
  <asset>
    <contributor>
      <author>Blender User</author>
      <authoring_tool>Blender 2.78.0 commit date:2017-02-24, commit time:14:33, hash:e92f235283</authoring_tool>
    </contributor>
    <created>2018-06-15T10:41:34</created>
    <modified>2018-06-15T10:41:34</modified>
    <unit name="meter" meter="1"/>
    <up_axis>Z_UP</up_axis>
  </asset>
  <library_images/>
  <library_effects>
    <effect id="ad_arm-effect">
      <profile_COMMON>
        <technique sid="common">
          <phong>
            <emission>
              <color sid="emission">0 0 0 1</color>
            </emission>
            <ambient>
              <color sid="ambient">0 0 0 1</color>
            </ambient>
            <diffuse>
              <color sid="diffuse">0 0.02192008 0.1523251 1</color>
            </diffuse>
            <specular>
              <color sid="specular">0.05534421 0.05534421 0.05534421 1</color>
            </specular>
            <index_of_refraction>
              <float sid="index_of_refraction">1</float>
            </index_of_refraction>
          </phong>
        </technique>
      </profile_COMMON>
    </effect>
  </library_effects>
  <library_materials>
    <material id="ad_arm-material" name="ad_arm">
      <instance_effect url="#ad_arm-effect"/>
    </material>
  </library_materials>
  <library_geometries>
    <geometry id="mesh-a7052fa6-8885-4489-8324-4d579d15c28e-mesh" name="mesh-a7052fa6-8885-4489-8324-4d579d15c28e">
      <mesh>
        <source id="mesh-a7052fa6-8885-4489-8324-4d579d15c28e-mesh-positions">
          <float_array id="mesh-a7052fa6-8885-4489-8324-4d579d15c28e-mesh-positions-array" count="1212">-7.763558 0 -1.262846 -6.612547 0 -1.996122 -6.99135 2.895912 -1.56349 -6.739625 2.791644 -1.797228 -6.437528 2.666511 -1.945385 -5.350948 5.350948 -1.56349 -5.158286 5.158286 -1.797228 -4.92707 4.92707 -1.945385 -2.895912 6.99135 -1.56349 -2.791644 6.739625 -1.797228 -2.666511 6.437528 -1.945385 0 7.567383 -1.56349 0 7.294917 -1.797228 0 6.96793 -1.945385 0 6.612547 -1.996122 2.895912 6.99135 -1.56349 2.791644 6.739625 -1.797228 2.666511 6.437528 -1.945385 5.350948 5.350948 -1.56349 5.158286 5.158286 -1.797228 4.92707 4.92707 -1.945385 6.99135 2.895912 -1.56349 6.739625 2.791644 -1.797228 6.437528 2.666511 -1.945385 7.763558 0 -1.262846 6.612547 0 -1.996122 -7.449079 2.187247 -1.262846 -6.53112 4.197296 -1.262846 -5.084049 5.867305 -1.262846 -3.225098 7.06198 -1.262846 -1.104869 7.684536 -1.262846 1.104869 7.684536 -1.262846 3.225098 7.06198 -1.262846 5.084049 5.867305 -1.262846 6.53112 4.197296 -1.262846 7.449079 2.187247 -1.262846 7.484074 0 -1.649885 7.081439 0 -1.906393 6.288906 2.043389 -1.996122 5.349662 3.886757 -1.996122 3.886757 5.349662 -1.996122 2.043389 6.288906 -1.996122 -2.043389 6.288906 -1.996122 -3.886757 5.349662 -1.996122 -5.349662 3.886757 -1.996122 -6.288906 2.043389 -1.996122 -7.081439 0 -1.906393 -7.484074 0 -1.649885 7.763558 0 -1.262846 8.1915 0 -0.3451213 -7.763558 0 -1.262846 -8.1915 0 -0.3451213 7.449079 2.187247 -1.262846 6.53112 4.197296 -1.262846 5.084049 5.867305 -1.262846 3.225098 7.06198 -1.262846 1.104869 7.684536 -1.262846 -1.104869 7.684536 -1.262846 -3.225098 7.06198 -1.262846 -5.084049 5.867305 -1.262846 -6.53112 4.197296 -1.262846 -7.449079 2.187247 -1.262846 -7.859687 2.307812 -0.3451213 -6.891129 4.428659 -0.3451213 -5.364292 6.190722 -0.3451213 -3.402872 7.451251 -0.3451213 -1.165772 8.108122 -0.3451213 1.165772 8.108122 -0.3451213 3.402872 7.451251 -0.3451213 5.364292 6.190722 -0.3451213 6.891129 4.428659 -0.3451213 7.859687 2.307812 -0.3451213 7.370275 3.052868 -0.8039836 3.052868 7.370275 -0.8039836 0 7.977529 -0.8039836 -3.052868 7.370275 -0.8039836 -5.640965 5.640965 -0.8039836 -7.370275 3.052868 -0.8039836 -8.1915 0 0.6708775 -8.1915 0 -0.3451213 8.1915 0 0.6708775 8.1915 0 -0.3451213 7.859687 2.307812 -0.3451213 6.891129 4.428659 -0.3451213 5.364292 6.190722 -0.3451213 3.402872 7.451251 -0.3451213 1.165772 8.108122 -0.3451213 -1.165772 8.108122 -0.3451213 -3.402872 7.451251 -0.3451213 -5.364292 6.190722 -0.3451213 -6.891129 4.428659 -0.3451213 -7.859687 2.307812 -0.3451213 -7.859687 2.307812 0.6708775 -6.891129 4.428659 0.6708775 -5.364292 6.190722 0.6708775 -3.402872 7.451251 0.6708775 -1.165772 8.108122 0.6708775 1.165772 8.108122 0.6708775 3.402872 7.451251 0.6708775 5.364292 6.190722 0.6708775 6.891129 4.428659 0.6708775 7.859687 2.307812 0.6708775 -5.715 0 6.800432 -8.1915 0 0.6708775 5.715 0 6.800432 8.1915 0 0.6708775 7.859687 2.307812 0.6708775 6.891129 4.428659 0.6708775 5.364292 6.190722 0.6708775 3.402872 7.451251 0.6708775 1.165772 8.108122 0.6708775 -1.165772 8.108122 0.6708775 -3.402872 7.451251 0.6708775 -5.364292 6.190722 0.6708775 -6.891129 4.428659 0.6708775 -7.859687 2.307812 0.6708775 -5.149037 2.479645 6.800432 -3.563244 4.468167 6.800432 -1.271707 5.571713 6.800432 1.271707 5.571713 6.800432 3.563244 4.468167 6.800432 5.149037 2.479645 6.800432 6.95325 0 3.735655 -6.95325 0 3.735655 -4.7371 0 84.93009 -5.715 0 6.800432 -3.349636 3.349636 84.93009 0 4.7371 84.93009 3.349636 3.349636 84.93009 4.37651 1.81281 84.93009 4.7371 0 84.93009 5.715 0 6.800432 5.149037 2.479645 6.800432 3.563244 4.468167 6.800432 1.271707 5.571713 6.800432 -1.271707 5.571713 6.800432 -3.563244 4.468167 6.800432 -5.149037 2.479645 6.800432 1.81281 4.37651 84.93009 5.22605 0 45.86526 -5.22605 0 45.86526 -4.37651 1.81281 84.93009 -1.81281 4.37651 84.93009 0 5.498161 92.11087 0 4.7371 84.93009 2.405739 5.807969 89.06288 2.252635 5.438342 86.85604 4.445227 4.445227 89.06288 4.162327 4.162327 86.85604 3.349636 3.349636 84.93009 5.807969 2.405739 89.06288 5.438342 2.252635 86.85604 5.498161 0 92.11087 6.2865 0 89.06288 5.886419 0 86.85604 4.7371 0 84.93009 5.807969 -2.405739 89.06288 5.438342 -2.252635 86.85604 4.445227 -4.445227 89.06288 4.162327 -4.162327 86.85604 3.349636 -3.349636 84.93009 2.405739 -5.807969 89.06288 2.252635 -5.438342 86.85604 1.81281 -4.37651 84.93009 0 -5.498161 92.11087 0 -4.7371 84.93009 4.37651 1.81281 84.93009 1.81281 4.37651 84.93009 1.699025 5.229062 92.11087 3.231738 4.448106 92.11087 4.448106 3.231738 92.11087 5.229062 1.699025 92.11087 5.229062 -1.699025 92.11087 4.448106 -3.231738 92.11087 3.231738 -4.448106 92.11087 1.699025 -5.229062 92.11087 0 -6.072816 90.688 0 -6.285616 89.16827 0 -6.123882 87.64227 0 -5.59725 86.20092 4.37651 -1.81281 84.93009 0 5.59725 86.20092 0 6.123882 87.64227 0 6.285616 89.16827 0 6.072816 90.688 0 -5.498161 92.11087 0 -4.7371 84.93009 -2.405739 -5.807969 89.06288 -2.252635 -5.438342 86.85604 -4.445227 -4.445227 89.06288 -4.162327 -4.162327 86.85604 -3.349636 -3.349636 84.93009 -5.807969 -2.405739 89.06288 -5.438342 -2.252635 86.85604 -5.498161 0 92.11087 -6.2865 0 89.06288 -5.886419 0 86.85604 -4.7371 0 84.93009 -5.807969 2.405739 89.06288 -5.438342 2.252635 86.85604 -4.445227 4.445227 89.06288 -4.162327 4.162327 86.85604 -3.349636 3.349636 84.93009 -2.405739 5.807969 89.06288 -2.252635 5.438342 86.85604 -1.81281 4.37651 84.93009 0 5.498161 92.11087 0 4.7371 84.93009 -4.37651 1.81281 84.93009 0 -5.59725 86.20092 0 -6.123882 87.64227 0 -6.285616 89.16827 0 -6.072816 90.688 0 6.072816 90.688 0 6.285616 89.16827 0 6.123882 87.64227 0 5.59725 86.20092 -1.699025 -5.229062 92.11087 -3.231738 -4.448106 92.11087 -4.448106 -3.231738 92.11087 -5.229062 -1.699025 92.11087 -5.229062 1.699025 92.11087 -4.448106 3.231738 92.11087 -3.231738 4.448106 92.11087 -1.699025 5.229062 92.11087 -4.37651 -1.81281 84.93009 -1.81281 -4.37651 84.93009 4.7371 0 84.93009 5.715 0 6.800432 3.349636 -3.349636 84.93009 0 -4.7371 84.93009 -3.349636 -3.349636 84.93009 -4.7371 0 84.93009 -5.715 0 6.800432 5.22605 0 45.86526 -5.22605 0 45.86526 4.37651 -1.81281 84.93009 1.81281 -4.37651 84.93009 -1.81281 -4.37651 84.93009 -4.37651 -1.81281 84.93009 -5.149037 -2.479645 6.800432 -3.563244 -4.468167 6.800432 -1.271707 -5.571713 6.800432 1.271707 -5.571713 6.800432 3.563244 -4.468167 6.800432 5.149037 -2.479645 6.800432 5.715 0 6.800432 8.1915 0 0.6708775 -5.715 0 6.800432 -8.1915 0 0.6708775 6.95325 0 3.735655 -6.95325 0 3.735655 5.149037 -2.479645 6.800432 3.563244 -4.468167 6.800432 1.271707 -5.571713 6.800432 -1.271707 -5.571713 6.800432 -3.563244 -4.468167 6.800432 -5.149037 -2.479645 6.800432 -7.859687 -2.307812 0.6708775 -6.891129 -4.428659 0.6708775 -5.364292 -6.190722 0.6708775 -3.402872 -7.451251 0.6708775 -1.165772 -8.108122 0.6708775 1.165772 -8.108122 0.6708775 3.402872 -7.451251 0.6708775 5.364292 -6.190722 0.6708775 6.891129 -4.428659 0.6708775 7.859687 -2.307812 0.6708775 8.1915 0 0.6708775 8.1915 0 -0.3451213 -8.1915 0 0.6708775 -8.1915 0 -0.3451213 7.859687 -2.307812 0.6708775 6.891129 -4.428659 0.6708775 5.364292 -6.190722 0.6708775 3.402872 -7.451251 0.6708775 1.165772 -8.108122 0.6708775 -1.165772 -8.108122 0.6708775 -3.402872 -7.451251 0.6708775 -5.364292 -6.190722 0.6708775 -6.891129 -4.428659 0.6708775 -7.859687 -2.307812 0.6708775 -7.859687 -2.307812 -0.3451213 -6.891129 -4.428659 -0.3451213 -5.364292 -6.190722 -0.3451213 -3.402872 -7.451251 -0.3451213 -1.165772 -8.108122 -0.3451213 1.165772 -8.108122 -0.3451213 3.402872 -7.451251 -0.3451213 5.364292 -6.190722 -0.3451213 6.891129 -4.428659 -0.3451213 7.859687 -2.307812 -0.3451213 -7.763558 0 -1.262846 -8.1915 0 -0.3451213 7.763558 0 -1.262846 8.1915 0 -0.3451213 7.859687 -2.307812 -0.3451213 6.891129 -4.428659 -0.3451213 5.364292 -6.190722 -0.3451213 3.402872 -7.451251 -0.3451213 1.165772 -8.108122 -0.3451213 -1.165772 -8.108122 -0.3451213 -3.402872 -7.451251 -0.3451213 -5.364292 -6.190722 -0.3451213 -6.891129 -4.428659 -0.3451213 -7.859687 -2.307812 -0.3451213 -7.449079 -2.187247 -1.262846 -6.53112 -4.197296 -1.262846 -5.084049 -5.867305 -1.262846 -3.225098 -7.06198 -1.262846 -1.104869 -7.684536 -1.262846 1.104869 -7.684536 -1.262846 3.225098 -7.06198 -1.262846 5.084049 -5.867305 -1.262846 6.53112 -4.197296 -1.262846 7.449079 -2.187247 -1.262846 7.763558 0 -1.262846 6.612547 0 -1.996122 6.99135 -2.895912 -1.56349 6.739625 -2.791644 -1.797228 6.437528 -2.666511 -1.945385 5.350948 -5.350948 -1.56349 5.158286 -5.158286 -1.797228 4.92707 -4.92707 -1.945385 2.895912 -6.99135 -1.56349 2.791644 -6.739625 -1.797228 2.666511 -6.437528 -1.945385 0 -7.567383 -1.56349 0 -7.294917 -1.797228 0 -6.96793 -1.945385 0 -6.612547 -1.996122 -2.895912 -6.99135 -1.56349 -2.791644 -6.739625 -1.797228 -2.666511 -6.437528 -1.945385 -5.350948 -5.350948 -1.56349 -5.158286 -5.158286 -1.797228 -4.92707 -4.92707 -1.945385 -6.99135 -2.895912 -1.56349 -6.739625 -2.791644 -1.797228 -6.437528 -2.666511 -1.945385 -7.763558 0 -1.262846 -6.612547 0 -1.996122 7.081439 0 -1.906393 7.484074 0 -1.649885 -7.484074 0 -1.649885 -7.081439 0 -1.906393 7.449079 -2.187247 -1.262846 6.53112 -4.197296 -1.262846 5.084049 -5.867305 -1.262846 3.225098 -7.06198 -1.262846 1.104869 -7.684536 -1.262846 -1.104869 -7.684536 -1.262846 -3.225098 -7.06198 -1.262846 -5.084049 -5.867305 -1.262846 -6.53112 -4.197296 -1.262846 -7.449079 -2.187247 -1.262846 -6.288906 -2.043389 -1.996122 -5.349662 -3.886757 -1.996122 -3.886757 -5.349662 -1.996122 -2.043389 -6.288906 -1.996122 2.043389 -6.288906 -1.996122 3.886757 -5.349662 -1.996122 5.349662 -3.886757 -1.996122 6.288906 -2.043389 -1.996122 0 5.498161 92.11087 1.699025 5.229062 92.11087 3.231738 4.448106 92.11087 4.448106 3.231738 92.11087 5.229062 1.699025 92.11087 5.498161 0 92.11087 5.229062 -1.699025 92.11087 4.448106 -3.231738 92.11087 3.231738 -4.448106 92.11087 1.699025 -5.229062 92.11087 0 -5.498161 92.11087 -1.699025 -5.229062 92.11087 -3.231738 -4.448106 92.11087 -4.448106 -3.231738 92.11087 -5.229062 -1.699025 92.11087 -5.498161 0 92.11087 -5.229062 1.699025 92.11087 -4.448106 3.231738 92.11087 -3.231738 4.448106 92.11087 -1.699025 5.229062 92.11087 6.612547 0 -1.996122 6.288906 2.043389 -1.996122 5.349662 3.886757 -1.996122 3.886757 5.349662 -1.996122 2.043389 6.288906 -1.996122 0 6.612547 -1.996122 -2.043389 6.288906 -1.996122 -3.886757 5.349662 -1.996122 -5.349662 3.886757 -1.996122 -6.288906 2.043389 -1.996122 -6.612547 0 -1.996122 -6.288906 -2.043389 -1.996122 -5.349662 -3.886757 -1.996122 -3.886757 -5.349662 -1.996122 -2.043389 -6.288906 -1.996122 0 -6.612547 -1.996122 2.043389 -6.288906 -1.996122 3.886757 -5.349662 -1.996122 5.349662 -3.886757 -1.996122 6.288906 -2.043389 -1.996122</float_array>
          <technique_common>
            <accessor source="#mesh-a7052fa6-8885-4489-8324-4d579d15c28e-mesh-positions-array" count="404" stride="3">
              <param name="X" type="float"/>
              <param name="Y" type="float"/>
              <param name="Z" type="float"/>
            </accessor>
          </technique_common>
        </source>
        <source id="mesh-a7052fa6-8885-4489-8324-4d579d15c28e-mesh-normals">
          <float_array id="mesh-a7052fa6-8885-4489-8324-4d579d15c28e-mesh-normals-array" count="1029">-0.3886283 0.3886283 -0.8354257 -0.5071092 0.2118651 -0.8354361 -0.5602104 0.5379313 -0.6299161 -0.2059761 0.2059761 -0.9566336 -0.2695131 0.1142936 -0.9561903 -0.2103061 0.5077744 -0.835426 -0.1139287 0.2704929 -0.9559571 0 0.549612 -0.8354201 -0.2777822 0.7075787 -0.6497456 0 0.2975624 -0.9547024 0.2103061 0.5077744 -0.835426 0.2777822 0.7075787 -0.6497456 0.1139287 0.2704929 -0.9559571 0.3886283 0.3886283 -0.8354257 0.5602104 0.5379313 -0.6299161 0.2059761 0.2059761 -0.9566336 0.5071092 0.2118651 -0.8354361 0.2695131 0.1142936 -0.9561903 -0.7256567 0.3092213 -0.6146581 -0.7869703 0.1476523 -0.599063 -0.6778408 0.1308681 -0.7234677 -0.5901741 0.3894515 -0.7071225 -0.692669 0.131264 -0.7092105 -0.4620916 0.6150541 -0.6388896 -0.3772768 0.7201281 -0.582304 0 0.7923812 -0.6100264 -0.1272968 0.7060688 -0.6966078 0.1272968 0.7060688 -0.6966078 -0.3876499 0.07013219 -0.919135 -0.1819258 0.03659266 -0.9826312 -0.1885447 0.0310375 -0.9815741 -0.1646484 0.1118816 -0.9799866 -0.1118816 0.1646484 -0.9799866 -0.03955268 0.1655965 -0.9854001 0.3772768 0.7201281 -0.582304 0.4620916 0.6150541 -0.6388896 0.5901741 0.3894515 -0.7071225 0.7256567 0.3092213 -0.6146581 0.6778408 0.1308681 -0.7234677 0.7869703 0.1476523 -0.599063 0.692669 0.131264 -0.7092105 0.3876499 0.07013219 -0.919135 0.03955268 0.1655965 -0.9854001 0.1118816 0.1646484 -0.9799866 0.1885447 0.0310375 -0.9815741 0.1646484 0.1118816 -0.9799866 0.1819258 0.03659266 -0.9826312 0.8320819 0.3681559 -0.4148507 0.9045349 0.1749679 -0.3888481 0.9664488 0.1833283 -0.1799101 0.7647028 0.6244646 0.1589773 0.8794142 0.1696874 -0.4447886 0.5724823 0.5863991 0.5730621 0.4230883 0.8176106 -0.3905243 0.3427926 0.8392499 -0.4220817 0.1725841 0.9557896 -0.2380776 0.7937855 0.1600145 -0.5867707 0.3727934 0.3867102 -0.8434929 0.5406575 0.429535 -0.7233182 0 0.91118 -0.4120087 0.1446934 0.8189634 -0.5553044 -0.1446934 0.8189634 -0.5553044 0.4061189 0.795269 -0.4501276 -0.1725841 0.9557896 -0.2380776 -0.332901 0.8437888 -0.4209483 -0.4230883 0.8176106 -0.3905243 -0.5696442 0.7544696 -0.326008 -0.9664488 0.1833283 -0.1799101 -0.8386047 0.3544797 -0.4136258 -0.8143193 0.5375997 -0.2187938 -0.6561098 0.6291611 -0.4167448 -0.9045349 0.1749679 -0.3888481 -0.5273145 0.687755 -0.4989314 -0.6883327 0.4531508 -0.5664385 -0.7937855 0.1600145 -0.5867707 -0.8794142 0.1696874 -0.4447886 -0.9898222 0.14231 0 -0.9594957 0.2817234 0 -0.8412529 0.5406419 0 -0.6548562 0.7557536 0 -0.4154027 0.9096377 0 -0.14231 0.9898222 0 0.14231 0.9898222 0 0.4154027 0.9096377 0 0.6548562 0.7557536 0 0.9594957 0.2817234 0 0.8412529 0.5406419 0 0.9898222 0.14231 0 -0.8325301 0.3945812 0.3888437 -0.9074553 0.1694115 0.3844798 -0.9070984 0.2070438 0.3664773 -0.8899643 0.2580991 0.3759635 -0.5745538 0.717475 0.3938498 -0.7776577 0.5046337 0.3749579 -0.2010595 0.8975045 0.3925056 -0.3862769 0.8438153 0.3725129 -0.9190546 0.1321175 0.3713268 -0.1262259 0.9173965 0.3774265 0.2010595 0.8975045 0.3925056 0.1262259 0.9173965 0.3774265 0.5745538 0.717475 0.3938498 0.3862769 0.8438153 0.3725129 0.9074553 0.1694115 0.3844798 0.8325301 0.3945812 0.3888437 0.9070984 0.2070438 0.3664773 0.7776577 0.5046337 0.3749579 0.8899643 0.2580991 0.3759635 0.9190546 0.1321175 0.3713268 -0.9774239 0.2109761 0.01147502 -0.9807106 0.1950801 0.01226878 -0.9238949 0.3824308 0.01284837 -0.7071502 0.7069366 0.01339769 -0.3827145 0.9237642 0.01376426 -0.6235163 0.7817302 0.01120066 -0.901066 0.4335188 0.01190227 -0.9748609 0.2224818 0.01217699 -0.2225137 0.9748674 0.01101732 0 0.999904 0.01385575 0.2225137 0.9748674 0.01101732 0.3827145 0.9237642 0.01376426 0.7071502 0.7069366 0.01339769 0.9238949 0.3824308 0.01284837 0.901066 0.4335188 0.01190227 0.9774239 0.2109761 0.01147502 0.9807106 0.1950801 0.01226878 0.6235163 0.7817302 0.01120066 0.9748609 0.2224818 0.01217699 0.6639658 0.6639658 -0.3439462 0.3715059 0.86231 -0.3441 0.7068864 0.7068864 0.02496469 0.8675112 0.3593342 -0.3439525 0.9389871 0 -0.3439524 0.9240342 0.3813697 0.02679598 0.8675112 -0.3593342 -0.3439525 0.9240342 -0.3813697 0.02679598 0.6639658 -0.6639658 -0.3439462 0.7068864 -0.7068864 0.02496469 0.3715059 -0.86231 -0.3441 0.2129005 0.9468214 0.2412527 0.1453004 0.9173976 0.3704992 0.3193878 0.9048151 0.2816045 0.1955041 0.9805114 0.01937949 0.3962319 0.9178371 0.02398812 0.1921474 0.9577766 -0.2138769 0.5658918 0.7830988 0.2579199 0.7830988 0.5658918 0.2579199 0.922133 0.2926777 0.2530029 0.9681487 0 0.2503764 0.9995797 0 0.02899277 0.1777722 0.8752495 -0.449817 0.1625161 0.817128 -0.5530737 0.338709 0.7829251 -0.521828 0.6072068 0.6072068 -0.5124452 0.7933546 0.3286035 -0.5124531 0.8587185 0 -0.5124477 0.922133 -0.2926777 0.2530029 0.7830988 -0.5658918 0.2579199 0.5658918 -0.7830988 0.2579199 0.3962319 -0.9178371 0.02398812 0.2129005 -0.9468214 0.2412527 0.3193878 -0.9048151 0.2816045 0.1453004 -0.9173976 0.3704992 0.1955041 -0.9805114 0.01937949 0.1921474 -0.9577766 -0.2138769 0.6072068 -0.6072068 -0.5124452 0.7933546 -0.3286035 -0.5124531 0.1777426 -0.8752543 -0.4498195 0.3387036 -0.7829127 -0.5218502 -0.6639658 -0.6639658 -0.3439462 -0.3715059 -0.86231 -0.3441 -0.7068864 -0.7068864 0.02496469 -0.8675112 -0.3593342 -0.3439525 -0.9389871 0 -0.3439524 -0.9240342 -0.3813697 0.02679598 -0.8675112 0.3593342 -0.3439525 -0.9240342 0.3813697 0.02679598 -0.6639658 0.6639658 -0.3439462 -0.7068864 0.7068864 0.02496469 -0.3715059 0.86231 -0.3441 -0.2129005 -0.9468214 0.2412527 -0.1453004 -0.9173976 0.3704992 -0.3193878 -0.9048151 0.2816045 -0.1955041 -0.9805114 0.01937949 -0.3962319 -0.9178371 0.02398812 -0.1921474 -0.9577766 -0.2138769 -0.5658918 -0.7830988 0.2579199 -0.7830988 -0.5658918 0.2579199 -0.922133 -0.2926777 0.2530029 -0.9681487 0 0.2503764 -0.9995797 0 0.02899277 -0.1777722 -0.8752495 -0.449817 -0.1625161 -0.817128 -0.5530737 -0.3387036 -0.7829127 -0.5218502 -0.7933546 -0.3286035 -0.5124531 -0.6072068 -0.6072068 -0.5124452 -0.8587185 0 -0.5124477 -0.922133 0.2926777 0.2530029 -0.7830988 0.5658918 0.2579199 -0.5658918 0.7830988 0.2579199 -0.3962319 0.9178371 0.02398812 -0.2129005 0.9468214 0.2412527 -0.3193878 0.9048151 0.2816045 -0.1453004 0.9173976 0.3704992 -0.1955041 0.9805114 0.01937949 -0.1921474 0.9577766 -0.2138769 -0.6072068 0.6072068 -0.5124452 -0.7933546 0.3286035 -0.5124531 -0.1777426 0.8752543 -0.4498195 -0.3387036 0.7829127 -0.5218502 0.9774239 -0.2109761 0.01147502 0.9807106 -0.1950801 0.01226878 0.9238949 -0.3824308 0.01284837 0.7071502 -0.7069366 0.01339769 0.3827145 -0.9237642 0.01376426 0.6235163 -0.7817302 0.01120066 0.901066 -0.4335188 0.01190227 0.9748609 -0.2224818 0.01217699 0.2225137 -0.9748674 0.01101732 0 -0.999904 0.01385575 -0.2225137 -0.9748674 0.01101732 -0.3827145 -0.9237642 0.01376426 -0.7071502 -0.7069366 0.01339769 -0.9238949 -0.3824308 0.01284837 -0.901066 -0.4335188 0.01190227 -0.9774239 -0.2109761 0.01147502 -0.9807106 -0.1950801 0.01226878 -0.6235163 -0.7817302 0.01120066 -0.9748609 -0.2224818 0.01217699 0.8325301 -0.3945812 0.3888437 0.9074553 -0.1694115 0.3844798 0.9070984 -0.2070438 0.3664773 0.8899643 -0.2580991 0.3759635 0.5745538 -0.717475 0.3938498 0.7776577 -0.5046337 0.3749579 0.2010595 -0.8975045 0.3925056 0.3862769 -0.8438153 0.3725129 0.9190546 -0.1321175 0.3713268 0.1262259 -0.9173965 0.3774265 -0.2010595 -0.8975045 0.3925056 -0.1262259 -0.9173965 0.3774265 -0.5745538 -0.717475 0.3938498 -0.3862769 -0.8438153 0.3725129 -0.9074553 -0.1694115 0.3844798 -0.8325301 -0.3945812 0.3888437 -0.9070984 -0.2070438 0.3664773 -0.7776577 -0.5046337 0.3749579 -0.8899643 -0.2580991 0.3759635 -0.9190546 -0.1321175 0.3713268 0.9898222 -0.14231 0 0.9594957 -0.2817234 0 0.8412529 -0.5406419 0 0.6548562 -0.7557536 0 0.4154027 -0.9096377 0 0.14231 -0.9898222 0 -0.14231 -0.9898222 0 -0.4154027 -0.9096377 0 -0.6548562 -0.7557536 0 -0.9594957 -0.2817234 0 -0.8412529 -0.5406419 0 -0.9898222 -0.14231 0 -0.8987229 -0.1291868 -0.4190561 -0.8696101 -0.2553225 -0.4225975 -0.7624396 -0.4899915 -0.4226043 -0.3764865 -0.8244187 -0.4226012 -0.5935109 -0.684947 -0.4226022 -0.1289755 -0.8970906 -0.4226037 0.1289755 -0.8970906 -0.4226037 0.3764865 -0.8244187 -0.4226012 0.5935109 -0.684947 -0.4226022 0.7624396 -0.4899915 -0.4226043 0.8696101 -0.2553225 -0.4225975 0.8987229 -0.1291868 -0.4190561 0.3886283 -0.3886283 -0.8354257 0.5071092 -0.2118651 -0.8354361 0.5602104 -0.5379313 -0.6299161 0.2059761 -0.2059761 -0.9566336 0.2695131 -0.1142936 -0.9561903 0.2103061 -0.5077744 -0.835426 0.1139287 -0.2704929 -0.9559571 0 -0.549612 -0.8354201 0.2777822 -0.7075787 -0.6497456 0 -0.2975624 -0.9547024 -0.2103061 -0.5077744 -0.835426 -0.2777822 -0.7075787 -0.6497456 -0.1139287 -0.2704929 -0.9559571 -0.3886283 -0.3886283 -0.8354257 -0.5602104 -0.5379313 -0.6299161 -0.2059761 -0.2059761 -0.9566336 -0.5071092 -0.2118651 -0.8354361 -0.2695131 -0.1142936 -0.9561903 0.7256567 -0.3092213 -0.6146581 0.7869703 -0.1476523 -0.599063 0.6778408 -0.1308681 -0.7234677 0.5901741 -0.3894515 -0.7071225 0.692669 -0.131264 -0.7092105 0.4620916 -0.6150541 -0.6388896 0.3772768 -0.7201281 -0.582304 0 -0.7923812 -0.6100264 0.1272968 -0.7060688 -0.6966078 -0.1272968 -0.7060688 -0.6966078 0.3876499 -0.07013219 -0.919135 0.1819258 -0.03659266 -0.9826312 0.1885447 -0.0310375 -0.9815741 0.1646484 -0.1118816 -0.9799866 0.1118816 -0.1646484 -0.9799866 0.03955268 -0.1655965 -0.9854001 -0.3772768 -0.7201281 -0.582304 -0.4620916 -0.6150541 -0.6388896 -0.5901741 -0.3894515 -0.7071225 -0.7256567 -0.3092213 -0.6146581 -0.6778408 -0.1308681 -0.7234677 -0.7869703 -0.1476523 -0.599063 -0.692669 -0.131264 -0.7092105 -0.3876499 -0.07013219 -0.919135 -0.03955268 -0.1655965 -0.9854001 -0.1118816 -0.1646484 -0.9799866 -0.1885447 -0.0310375 -0.9815741 -0.1646484 -0.1118816 -0.9799866 -0.1819258 -0.03659266 -0.9826312 -6.67479e-5 0 1 0 0 1 1.14999e-5 0 1 -3.3374e-5 0 1 2.41834e-5 0 1 4.2303e-6 0 1 -3.44997e-5 0 1 -1.55267e-5 0 1 3.3374e-5 0 1 0 0 -1 3.72677e-7 0 -1 0 0 -1 -1.24225e-7 0 -1 -3.60517e-7 0 -1 0 0 -1 0 0.1413316 -0.9899623 -0.4061189 0.795269 -0.4501276 -0.6091153 0.6986606 0.3753026 0.6091153 0.6986606 0.3753026 0.1625161 -0.817128 -0.5530737 -0.1625161 0.817128 -0.5530737 0.6091153 -0.6986606 0.3753026 -0.6091153 -0.6986606 0.3753026 0 -0.1413316 -0.9899623</float_array>
          <technique_common>
            <accessor source="#mesh-a7052fa6-8885-4489-8324-4d579d15c28e-mesh-normals-array" count="343" stride="3">
              <param name="X" type="float"/>
              <param name="Y" type="float"/>
              <param name="Z" type="float"/>
            </accessor>
          </technique_common>
        </source>
        <source id="mesh-a7052fa6-8885-4489-8324-4d579d15c28e-mesh-map-0">
          <float_array id="mesh-a7052fa6-8885-4489-8324-4d579d15c28e-mesh-map-0-array" count="2712">0.007741987 0.071451 0.007741987 0.03572499 0.01161396 0.071451 0.003870964 0.071451 0.003870964 0.03572499 0.007741987 0.03572499 0.007741987 0.107176 0.007741987 0.071451 0.01161396 0.071451 0.003870964 0.107176 0.003870964 0.071451 0.007741987 0.107176 0.007741987 0.142901 0.007741987 0.107176 0.01161396 0.107176 0.003870964 0.142901 0.003870964 0.107176 0.007741987 0.142901 0.007741987 0.178627 0.007741987 0.142901 0.01161396 0.178627 0.003870964 0.178627 0.003870964 0.142901 0.007741987 0.142901 0.007741987 0.214352 0.007741987 0.178627 0.01161396 0.214352 0.003870964 0.214352 0.003870964 0.178627 0.007741987 0.178627 0.007741987 0.250077 0.007741987 0.214352 0.01161396 0.214352 0.003870964 0.250077 0.003870964 0.214352 0.007741987 0.250077 0.01161396 0.03572499 0.01548498 0 0.01548498 0.02598196 0.01161396 0.071451 0.01161396 0.03572499 0.01548498 0.05196398 0.01548498 0.02598196 0.01548498 0.05196398 0.01161396 0.03572499 0.01032298 0 0.01548498 0 0.01161396 0.03572499 0.01548498 0.077946 0.01548498 0.103928 0.01161396 0.107176 0.01161396 0.142901 0.01161396 0.107176 0.01548498 0.12991 0.01548498 0.155892 0.01161396 0.142901 0.01548498 0.12991 0.005162 0 0.01032298 0 0.007741987 0.03572499 0 0.02857995 0 0 0.003870964 0.03572499 0 0 0.005162 0 0.003870964 0.03572499 0.003870964 0.03572499 0.005162 0 0.007741987 0.03572499 0.003870964 0.03572499 0.003870964 0.071451 0 0.05716097 0.003870964 0.071451 0.003870964 0.107176 0 0.08574098 0.003870964 0.071451 0 0.08574098 0 0.05716097 0.003870964 0.107176 0.003870964 0.142901 0 0.114321 0.01548498 0.155892 0.01548498 0.181874 0.01161396 0.178627 0.01161396 0.214352 0.01161396 0.178627 0.01548498 0.207857 0.01548498 0.233839 0.01161396 0.214352 0.01548498 0.207857 0.01161396 0.250077 0.01548498 0.233839 0.01548498 0.259821 0.01161396 0.250077 0.01548498 0.259821 0.01548498 0.285803 0.007741987 0.250077 0.01161396 0.250077 0.01032298 0.285803 0.01548498 0.285803 0.01032298 0.285803 0.01161396 0.250077 0.01032298 0.285803 0.005162 0.285803 0.007741987 0.250077 0.01548498 0.233839 0.01161396 0.250077 0.01161396 0.214352 0.003870964 0.142901 0.003870964 0.178627 0 0.171482 0 0.200062 0 0.171482 0.003870964 0.178627 0 0.285803 0.003870964 0.250077 0.005162 0.285803 0.003870964 0.214352 0.003870964 0.250077 0 0.228642 0.003870964 0.250077 0 0.285803 0 0.257222 0 0.200062 0.003870964 0.214352 0 0.228642 0.526051 0.508294 0.488578 0.502329 0.515831 0.502329 0.543084 0.502329 0.526051 0.508294 0.515831 0.502329 0.488578 0.514259 0.488578 0.502329 0.526051 0.508294 0.526051 0.508294 0.543084 0.502329 0.570337 0.502329 0.597591 0.502329 0.600997 0.508294 0.570337 0.502329 0.600997 0.508294 0.526051 0.508294 0.570337 0.502329 0.597591 0.502329 0.624844 0.502329 0.600997 0.508294 0.515831 0.514259 0.488578 0.514259 0.526051 0.508294 0.570337 0.514259 0.543084 0.514259 0.526051 0.508294 0.515831 0.514259 0.526051 0.508294 0.543084 0.514259 0.600997 0.508294 0.63847 0.508294 0.624844 0.514259 0.624844 0.514259 0.63847 0.508294 0.652097 0.514259 0.570337 0.514259 0.600997 0.508294 0.597591 0.514259 0.600997 0.508294 0.570337 0.514259 0.526051 0.508294 0.63847 0.508294 0.624844 0.502329 0.652097 0.502329 0.675943 0.508294 0.652097 0.502329 0.67935 0.502329 0.67935 0.502329 0.706603 0.502329 0.675943 0.508294 0.63847 0.508294 0.675943 0.508294 0.652097 0.514259 0.761109 0.502329 0.750889 0.508294 0.733856 0.502329 0.733856 0.502329 0.713416 0.508294 0.706603 0.502329 0.788362 0.502329 0.750889 0.508294 0.761109 0.502329 0.675943 0.508294 0.713416 0.508294 0.706603 0.514259 0.706603 0.514259 0.713416 0.508294 0.733856 0.514259 0.761109 0.514259 0.733856 0.514259 0.750889 0.508294 0.713416 0.508294 0.750889 0.508294 0.733856 0.514259 0.750889 0.508294 0.788362 0.514259 0.761109 0.514259 0.788362 0.514259 0.750889 0.508294 0.788362 0.502329 0.750889 0.508294 0.713416 0.508294 0.733856 0.502329 0.652097 0.502329 0.675943 0.508294 0.63847 0.508294 0.488578 0.55448 0.515831 0.55448 0.515831 0.566451 0.515831 0.55448 0.543084 0.55448 0.543084 0.566451 0.570337 0.55448 0.597591 0.55448 0.597591 0.566451 0.597591 0.55448 0.624844 0.55448 0.624844 0.566451 0.543084 0.55448 0.570337 0.55448 0.570337 0.566451 0.624844 0.566451 0.624844 0.55448 0.652097 0.55448 0.652097 0.55448 0.67935 0.55448 0.67935 0.566451 0.67935 0.55448 0.706603 0.55448 0.706603 0.566451 0.761109 0.55448 0.761109 0.566451 0.733856 0.566451 0.788362 0.55448 0.788362 0.566451 0.761109 0.566451 0.733856 0.55448 0.733856 0.566451 0.706603 0.566451 0.27694 0.04303497 0.238728 0 0.27694 0 0.200515 0.02738595 0.238728 0 0.27694 0.04303497 0.27694 0.04303497 0.27694 0.08607095 0.200515 0.05477195 0.27694 0.08607095 0.27694 0.129106 0.200515 0.109545 0.238728 0 0.200515 0.02738595 0.200515 0 0.27694 0.04303497 0.200515 0.05477195 0.200515 0.02738595 0.27694 0.129106 0.200515 0.136931 0.200515 0.109545 0.27694 0.129106 0.27694 0.172142 0.200515 0.164317 0.27694 0.172142 0.27694 0.2151769 0.200515 0.191704 0.238728 0.301248 0.27694 0.258213 0.27694 0.301248 0.27694 0.2151769 0.27694 0.258213 0.200515 0.2464759 0.27694 0.258213 0.238728 0.301248 0.200515 0.273862 0.27694 0.172142 0.200515 0.191704 0.200515 0.164317 0.27694 0.258213 0.200515 0.273862 0.200515 0.2464759 0.238728 0.301248 0.200515 0.301248 0.200515 0.273862 0.278405 0.459565 0.278405 0 0.304494 0 0.330582 0 0.356671 0 0.338036 0.919131 0.304494 0 0.330582 0 0.30822 0.919131 0.30822 0.919131 0.278405 0.919131 0.278405 0.459565 0.304494 0 0.30822 0.919131 0.278405 0.459565 0.367851 0.919131 0.356671 0 0.382759 0 0.397667 0.919131 0.382759 0 0.408848 0 0.434936 0 0.461025 0 0.457298 0.919131 0.487113 0.459565 0.461025 0 0.487113 0 0.408848 0 0.434936 0 0.427482 0.919131 0.487113 0.919131 0.457298 0.919131 0.487113 0.459565 0.461025 0 0.487113 0.459565 0.457298 0.919131 0.367851 0.919131 0.382759 0 0.397667 0.919131 0.05947995 0.05752694 0.05947995 0.02876299 0.08506 0.05752694 0.05947995 0.08629 0.05947995 0.05752694 0.08506 0.05752694 0.05947995 0.1150529 0.05947995 0.08629 0.08506 0.08629 0.05947995 0.1438159 0.05947995 0.1150529 0.08506 0.1438159 0.05947995 0.17258 0.05947995 0.1438159 0.08506 0.17258 0.05947995 0.2013429 0.05947995 0.17258 0.08506 0.17258 0.103708 0 0.12116 0 0.12116 0.02301096 0.08625596 0 0.103708 0 0.08506 0.02876299 0.12116 0.02301096 0.08506 0.02876299 0.103708 0 0.06880396 0 0.08625596 0 0.08506 0.02876299 0.12116 0.02301096 0.12116 0.04602098 0.08506 0.02876299 0.08506 0.05752694 0.12116 0.04602098 0.12116 0.06903195 0.12116 0.06903195 0.12116 0.09204196 0.08506 0.08629 0.12116 0.09204196 0.12116 0.1150529 0.08506 0.1150529 0.05135196 0 0.06880396 0 0.05947995 0.02876299 0.05947995 0.02876299 0.06880396 0 0.08506 0.02876299 0.03389996 0 0.05135196 0 0.03389996 0.02876299 0.05947995 0.02876299 0.03389996 0.02876299 0.05135196 0 0.03389996 0.05752694 0.03389996 0.02876299 0.05947995 0.05752694 0.03389996 0.08629 0.03389996 0.05752694 0.05947995 0.05752694 0.03389996 0.1150529 0.03389996 0.08629 0.05947995 0.08629 0.12116 0.1150529 0.12116 0.138064 0.08506 0.1150529 0.12116 0.138064 0.12116 0.161074 0.08506 0.1438159 0.12116 0.184085 0.08506 0.17258 0.12116 0.161074 0.08506 0.2013429 0.08506 0.17258 0.12116 0.184085 0.103708 0.2301059 0.12116 0.207095 0.12116 0.2301059 0.08625596 0.2301059 0.08506 0.2013429 0.103708 0.2301059 0.12116 0.207095 0.103708 0.2301059 0.08506 0.2013429 0.06880396 0.2301059 0.08506 0.2013429 0.08625596 0.2301059 0.05947995 0.1150529 0.05947995 0.1438159 0.03389996 0.1150529 0.03389996 0.17258 0.03389996 0.1438159 0.05947995 0.17258 0.05135196 0.2301059 0.05947995 0.2013429 0.06880396 0.2301059 0.03389996 0.2013429 0.05947995 0.2013429 0.05135196 0.2301059 0.05947995 0.2013429 0.03389996 0.2013429 0.05947995 0.17258 0.06880396 0.2301059 0.05947995 0.2013429 0.08506 0.2013429 0.546105 0.345413 0.517342 0.345413 0.546105 0.319403 0.574868 0.345413 0.546105 0.345413 0.546105 0.319403 0.603631 0.345413 0.574868 0.345413 0.574868 0.319403 0.632395 0.345413 0.603631 0.345413 0.632395 0.319403 0.661158 0.345413 0.632395 0.345413 0.661158 0.319403 0.689921 0.345413 0.661158 0.345413 0.661158 0.319403 0.488578 0.300443 0.488578 0.282698 0.511589 0.282698 0.488578 0.318188 0.488578 0.300443 0.517342 0.319403 0.511589 0.282698 0.517342 0.319403 0.488578 0.300443 0.488578 0.335933 0.488578 0.318188 0.517342 0.319403 0.511589 0.282698 0.534599 0.282698 0.517342 0.319403 0.546105 0.319403 0.534599 0.282698 0.55761 0.282698 0.55761 0.282698 0.580621 0.282698 0.574868 0.319403 0.580621 0.282698 0.603631 0.282698 0.603631 0.319403 0.488578 0.353678 0.488578 0.335933 0.517342 0.345413 0.517342 0.345413 0.488578 0.335933 0.517342 0.319403 0.488578 0.371423 0.488578 0.353678 0.517342 0.371423 0.517342 0.345413 0.517342 0.371423 0.488578 0.353678 0.517342 0.345413 0.546105 0.345413 0.517342 0.371423 0.574868 0.371423 0.546105 0.371423 0.546105 0.345413 0.574868 0.345413 0.603631 0.345413 0.603631 0.371423 0.603631 0.282698 0.626642 0.282698 0.603631 0.319403 0.626642 0.282698 0.649653 0.282698 0.632395 0.319403 0.672663 0.282698 0.661158 0.319403 0.649653 0.282698 0.689921 0.319403 0.661158 0.319403 0.672663 0.282698 0.718684 0.300443 0.695674 0.282698 0.718684 0.282698 0.718684 0.318188 0.689921 0.319403 0.718684 0.300443 0.695674 0.282698 0.718684 0.300443 0.689921 0.319403 0.718684 0.335933 0.689921 0.319403 0.718684 0.318188 0.603631 0.345413 0.632395 0.345413 0.603631 0.371423 0.661158 0.371423 0.632395 0.371423 0.661158 0.345413 0.718684 0.353678 0.689921 0.345413 0.718684 0.335933 0.689921 0.371423 0.689921 0.345413 0.718684 0.353678 0.689921 0.345413 0.689921 0.371423 0.661158 0.345413 0.718684 0.335933 0.689921 0.345413 0.689921 0.319403 0.789827 0.459565 0.789827 0 0.815915 0 0.842004 0 0.868092 0 0.849458 0.919131 0.815915 0 0.842004 0 0.819642 0.919131 0.819642 0.919131 0.789827 0.919131 0.789827 0.459565 0.815915 0 0.819642 0.919131 0.789827 0.459565 0.879273 0.919131 0.868092 0 0.894181 0 0.909089 0.919131 0.894181 0 0.920269 0 0.946358 0 0.972447 0 0.96872 0.919131 0.998535 0.459565 0.972447 0 0.998535 0 0.920269 0 0.946358 0 0.938904 0.919131 0.998535 0.919131 0.96872 0.919131 0.998535 0.459565 0.972447 0 0.998535 0.459565 0.96872 0.919131 0.879273 0.919131 0.894181 0 0.909089 0.919131 0.19905 0.04303497 0.1608369 0 0.19905 0 0.122625 0.02738595 0.1608369 0 0.19905 0.04303497 0.19905 0.04303497 0.19905 0.08607095 0.122625 0.05477195 0.19905 0.08607095 0.19905 0.129106 0.122625 0.109545 0.1608369 0 0.122625 0.02738595 0.122625 0 0.19905 0.04303497 0.122625 0.05477195 0.122625 0.02738595 0.19905 0.129106 0.122625 0.136931 0.122625 0.109545 0.19905 0.129106 0.19905 0.172142 0.122625 0.164317 0.19905 0.172142 0.19905 0.2151769 0.122625 0.191704 0.1608369 0.301248 0.19905 0.258213 0.19905 0.301248 0.19905 0.2151769 0.19905 0.258213 0.122625 0.2464759 0.19905 0.258213 0.1608369 0.301248 0.122625 0.273862 0.19905 0.172142 0.122625 0.191704 0.122625 0.164317 0.19905 0.258213 0.122625 0.273862 0.122625 0.2464759 0.1608369 0.301248 0.122625 0.301248 0.122625 0.273862 0.488578 0.528361 0.515831 0.528361 0.515831 0.540331 0.515831 0.528361 0.543084 0.528361 0.543084 0.540331 0.570337 0.528361 0.597591 0.528361 0.597591 0.540331 0.597591 0.528361 0.624844 0.528361 0.624844 0.540331 0.543084 0.528361 0.570337 0.528361 0.570337 0.540331 0.624844 0.540331 0.624844 0.528361 0.652097 0.528361 0.652097 0.528361 0.67935 0.528361 0.67935 0.540331 0.67935 0.528361 0.706603 0.528361 0.706603 0.540331 0.761109 0.528361 0.761109 0.540331 0.733856 0.540331 0.788362 0.528361 0.788362 0.540331 0.761109 0.540331 0.733856 0.528361 0.733856 0.540331 0.706603 0.540331 0.488578 0.476296 0.515831 0.476296 0.515831 0.488227 0.515831 0.476296 0.543084 0.476296 0.543084 0.488227 0.597591 0.476296 0.597591 0.488227 0.570337 0.488227 0.624844 0.476296 0.624844 0.488227 0.597591 0.476296 0.570337 0.476296 0.570337 0.488227 0.543084 0.488227 0.652097 0.488227 0.624844 0.488227 0.624844 0.476296 0.652097 0.476296 0.67935 0.476296 0.652097 0.488227 0.706603 0.476296 0.706603 0.488227 0.67935 0.476296 0.733856 0.476296 0.761109 0.476296 0.733856 0.488227 0.788362 0.476296 0.788362 0.488227 0.761109 0.488227 0.706603 0.476296 0.733856 0.476296 0.733856 0.488227 0.02469199 0.071451 0.02469199 0.03572499 0.02856397 0.071451 0.02082097 0.071451 0.02082097 0.03572499 0.02469199 0.03572499 0.02469199 0.107176 0.02469199 0.071451 0.02856397 0.071451 0.02082097 0.107176 0.02082097 0.071451 0.02469199 0.107176 0.02469199 0.142901 0.02469199 0.107176 0.02856397 0.107176 0.02082097 0.142901 0.02082097 0.107176 0.02469199 0.142901 0.02469199 0.178627 0.02469199 0.142901 0.02856397 0.178627 0.02082097 0.178627 0.02082097 0.142901 0.02469199 0.142901 0.02469199 0.214352 0.02469199 0.178627 0.02856397 0.214352 0.02082097 0.214352 0.02082097 0.178627 0.02469199 0.178627 0.02469199 0.250077 0.02469199 0.214352 0.02856397 0.214352 0.02082097 0.250077 0.02082097 0.214352 0.02469199 0.250077 0.02856397 0.03572499 0.03243499 0 0.03243499 0.02598196 0.02856397 0.071451 0.02856397 0.03572499 0.03243499 0.05196398 0.03243499 0.02598196 0.03243499 0.05196398 0.02856397 0.03572499 0.02727299 0 0.03243499 0 0.02856397 0.03572499 0.03243499 0.077946 0.03243499 0.103928 0.02856397 0.107176 0.02856397 0.142901 0.02856397 0.107176 0.03243499 0.12991 0.03243499 0.155892 0.02856397 0.142901 0.03243499 0.12991 0.02211099 0 0.02727299 0 0.02469199 0.03572499 0.02469199 0.03572499 0.02727299 0 0.02856397 0.03572499 0.01694995 0.02857995 0.01694995 0 0.02082097 0.03572499 0.01694995 0 0.02211099 0 0.02082097 0.03572499 0.02082097 0.03572499 0.02082097 0.071451 0.01694995 0.05716097 0.02082097 0.071451 0.02082097 0.107176 0.01694995 0.08574098 0.02082097 0.071451 0.01694995 0.08574098 0.01694995 0.05716097 0.02082097 0.107176 0.02082097 0.142901 0.01694995 0.114321 0.03243499 0.155892 0.03243499 0.181874 0.02856397 0.178627 0.02856397 0.214352 0.02856397 0.178627 0.03243499 0.207857 0.03243499 0.233839 0.02856397 0.214352 0.03243499 0.207857 0.02856397 0.250077 0.03243499 0.233839 0.03243499 0.259821 0.02856397 0.250077 0.03243499 0.259821 0.03243499 0.285803 0.02469199 0.250077 0.02856397 0.250077 0.02727299 0.285803 0.03243499 0.285803 0.02727299 0.285803 0.02856397 0.250077 0.02211099 0.285803 0.02469199 0.250077 0.02727299 0.285803 0.03243499 0.233839 0.02856397 0.250077 0.02856397 0.214352 0.02082097 0.142901 0.02082097 0.178627 0.01694995 0.171482 0.01694995 0.200062 0.01694995 0.171482 0.02082097 0.178627 0.01694995 0.285803 0.02082097 0.250077 0.02211099 0.285803 0.02082097 0.214352 0.02082097 0.250077 0.01694995 0.228642 0.02082097 0.250077 0.01694995 0.285803 0.01694995 0.257222 0.01694995 0.200062 0.02082097 0.214352 0.01694995 0.228642 0.02211099 0.285803 0.02082097 0.250077 0.02469199 0.250077 0.605765 0.026703 0.591434 0.01237195 0.573376 0.003170967 0.618137 0.06477898 0.614966 0.044761 0.605765 0.026703 0.553358 0 0.605765 0.026703 0.573376 0.003170967 0.515281 0.01237195 0.605765 0.102856 0.605765 0.026703 0.515281 0.01237195 0.553358 0 0.53334 0.003170967 0.553358 0 0.515281 0.01237195 0.605765 0.026703 0.50095 0.026703 0.605765 0.102856 0.515281 0.01237195 0.491749 0.044761 0.488578 0.06477898 0.50095 0.026703 0.618137 0.06477898 0.605765 0.026703 0.605765 0.102856 0.50095 0.026703 0.50095 0.102856 0.605765 0.102856 0.573376 0.126388 0.591434 0.117187 0.515281 0.117187 0.50095 0.102856 0.591434 0.117187 0.605765 0.102856 0.515281 0.117187 0.553358 0.129559 0.573376 0.126388 0.50095 0.102856 0.488578 0.06477898 0.491749 0.08479696 0.50095 0.026703 0.488578 0.06477898 0.50095 0.102856 0.50095 0.102856 0.515281 0.117187 0.591434 0.117187 0.515281 0.117187 0.53334 0.126388 0.553358 0.129559 0.614966 0.08479696 0.618137 0.06477898 0.605765 0.102856 0.629517 0.612715 0.612281 0.595479 0.590563 0.584413 0.612281 0.721539 0.640583 0.634434 0.590563 0.584413 0.629517 0.612715 0.590563 0.584413 0.640583 0.634434 0.520694 0.721539 0.590563 0.584413 0.520694 0.595479 0.542412 0.584413 0.590563 0.584413 0.566487 0.5806 0.590563 0.584413 0.542412 0.584413 0.520694 0.595479 0.503458 0.612715 0.520694 0.721539 0.520694 0.595479 0.492391 0.634434 0.488578 0.658509 0.503458 0.612715 0.612281 0.721539 0.644396 0.658509 0.640583 0.634434 0.644396 0.658509 0.612281 0.721539 0.629517 0.704303 0.566487 0.736418 0.590563 0.732605 0.612281 0.721539 0.612281 0.721539 0.590563 0.584413 0.520694 0.721539 0.566487 0.736418 0.612281 0.721539 0.542412 0.732605 0.492391 0.682584 0.503458 0.612715 0.488578 0.658509 0.503458 0.704303 0.520694 0.721539 0.492391 0.682584 0.503458 0.612715 0.492391 0.682584 0.520694 0.721539 0.520694 0.721539 0.542412 0.732605 0.612281 0.721539 0.629517 0.704303 0.640583 0.682584 0.644396 0.658509 0.007741987 0.03572499 0.01161396 0.03572499 0.01161396 0.071451 0.003870964 0.071451 0.007741987 0.03572499 0.007741987 0.071451 0.007741987 0.107176 0.01161396 0.071451 0.01161396 0.107176 0.003870964 0.071451 0.007741987 0.071451 0.007741987 0.107176 0.007741987 0.142901 0.01161396 0.107176 0.01161396 0.142901 0.003870964 0.107176 0.007741987 0.107176 0.007741987 0.142901 0.007741987 0.142901 0.01161396 0.142901 0.01161396 0.178627 0.003870964 0.178627 0.007741987 0.142901 0.007741987 0.178627 0.007741987 0.178627 0.01161396 0.178627 0.01161396 0.214352 0.003870964 0.214352 0.007741987 0.178627 0.007741987 0.214352 0.007741987 0.250077 0.01161396 0.214352 0.01161396 0.250077 0.003870964 0.214352 0.007741987 0.214352 0.007741987 0.250077 0.01161396 0.071451 0.01548498 0.05196398 0.01548498 0.077946 0.01548498 0.077946 0.01161396 0.107176 0.01161396 0.071451 0.01161396 0.107176 0.01548498 0.103928 0.01548498 0.12991 0.01032298 0 0.01161396 0.03572499 0.007741987 0.03572499 0.003870964 0.03572499 0 0.05716097 0 0.02857995 0.003870964 0.107176 0 0.114321 0 0.08574098 0.003870964 0.142901 0 0.142901 0 0.114321 0.01548498 0.155892 0.01161396 0.178627 0.01161396 0.142901 0.01161396 0.178627 0.01548498 0.181874 0.01548498 0.207857 0.005162 0.285803 0.003870964 0.250077 0.007741987 0.250077 0.003870964 0.142901 0 0.171482 0 0.142901 0 0.200062 0.003870964 0.178627 0.003870964 0.214352 0.003870964 0.250077 0 0.257222 0 0.228642 0.624844 0.502329 0.63847 0.508294 0.600997 0.508294 0.600997 0.508294 0.624844 0.514259 0.597591 0.514259 0.706603 0.502329 0.713416 0.508294 0.675943 0.508294 0.675943 0.508294 0.67935 0.514259 0.652097 0.514259 0.675943 0.508294 0.706603 0.514259 0.67935 0.514259 0.488578 0.55448 0.515831 0.566451 0.488578 0.566451 0.515831 0.55448 0.543084 0.566451 0.515831 0.566451 0.570337 0.55448 0.597591 0.566451 0.570337 0.566451 0.597591 0.55448 0.624844 0.566451 0.597591 0.566451 0.543084 0.55448 0.570337 0.566451 0.543084 0.566451 0.624844 0.566451 0.652097 0.55448 0.652097 0.566451 0.652097 0.55448 0.67935 0.566451 0.652097 0.566451 0.67935 0.55448 0.706603 0.566451 0.67935 0.566451 0.761109 0.55448 0.733856 0.566451 0.733856 0.55448 0.788362 0.55448 0.761109 0.566451 0.761109 0.55448 0.733856 0.55448 0.706603 0.566451 0.706603 0.55448 0.27694 0.08607095 0.200515 0.08215898 0.200515 0.05477195 0.27694 0.08607095 0.200515 0.109545 0.200515 0.08215898 0.27694 0.129106 0.200515 0.164317 0.200515 0.136931 0.27694 0.2151769 0.200515 0.21909 0.200515 0.191704 0.27694 0.2151769 0.200515 0.2464759 0.200515 0.21909 0.356671 0 0.367851 0.919131 0.338036 0.919131 0.330582 0 0.338036 0.919131 0.30822 0.919131 0.434936 0 0.457298 0.919131 0.427482 0.919131 0.408848 0 0.427482 0.919131 0.397667 0.919131 0.05947995 0.02876299 0.08506 0.02876299 0.08506 0.05752694 0.05947995 0.08629 0.08506 0.05752694 0.08506 0.08629 0.05947995 0.1150529 0.08506 0.08629 0.08506 0.1150529 0.05947995 0.1150529 0.08506 0.1150529 0.08506 0.1438159 0.05947995 0.1438159 0.08506 0.1438159 0.08506 0.17258 0.05947995 0.2013429 0.08506 0.17258 0.08506 0.2013429 0.12116 0.04602098 0.08506 0.05752694 0.08506 0.02876299 0.12116 0.06903195 0.08506 0.08629 0.08506 0.05752694 0.12116 0.09204196 0.08506 0.1150529 0.08506 0.08629 0.03389996 0.02876299 0.05947995 0.02876299 0.05947995 0.05752694 0.03389996 0.08629 0.05947995 0.05752694 0.05947995 0.08629 0.03389996 0.1150529 0.05947995 0.08629 0.05947995 0.1150529 0.12116 0.138064 0.08506 0.1438159 0.08506 0.1150529 0.12116 0.161074 0.08506 0.17258 0.08506 0.1438159 0.08506 0.2013429 0.12116 0.184085 0.12116 0.207095 0.05947995 0.1438159 0.03389996 0.1438159 0.03389996 0.1150529 0.03389996 0.1438159 0.05947995 0.1438159 0.05947995 0.17258 0.03389996 0.2013429 0.05135196 0.2301059 0.03389996 0.2301059 0.03389996 0.2013429 0.03389996 0.17258 0.05947995 0.17258 0.517342 0.345413 0.517342 0.319403 0.546105 0.319403 0.574868 0.345413 0.546105 0.319403 0.574868 0.319403 0.603631 0.345413 0.574868 0.319403 0.603631 0.319403 0.603631 0.345413 0.603631 0.319403 0.632395 0.319403 0.632395 0.345413 0.632395 0.319403 0.661158 0.319403 0.689921 0.345413 0.661158 0.319403 0.689921 0.319403 0.534599 0.282698 0.546105 0.319403 0.517342 0.319403 0.55761 0.282698 0.574868 0.319403 0.546105 0.319403 0.580621 0.282698 0.603631 0.319403 0.574868 0.319403 0.546105 0.345413 0.546105 0.371423 0.517342 0.371423 0.574868 0.371423 0.546105 0.345413 0.574868 0.345413 0.574868 0.345413 0.603631 0.371423 0.574868 0.371423 0.626642 0.282698 0.632395 0.319403 0.603631 0.319403 0.649653 0.282698 0.661158 0.319403 0.632395 0.319403 0.689921 0.319403 0.672663 0.282698 0.695674 0.282698 0.632395 0.345413 0.632395 0.371423 0.603631 0.371423 0.632395 0.371423 0.632395 0.345413 0.661158 0.345413 0.689921 0.371423 0.718684 0.353678 0.718684 0.371423 0.689921 0.371423 0.661158 0.371423 0.661158 0.345413 0.868092 0 0.879273 0.919131 0.849458 0.919131 0.842004 0 0.849458 0.919131 0.819642 0.919131 0.946358 0 0.96872 0.919131 0.938904 0.919131 0.920269 0 0.938904 0.919131 0.909089 0.919131 0.19905 0.08607095 0.122625 0.08215898 0.122625 0.05477195 0.19905 0.08607095 0.122625 0.109545 0.122625 0.08215898 0.19905 0.129106 0.122625 0.164317 0.122625 0.136931 0.19905 0.2151769 0.122625 0.21909 0.122625 0.191704 0.19905 0.2151769 0.122625 0.2464759 0.122625 0.21909 0.488578 0.528361 0.515831 0.540331 0.488578 0.540331 0.515831 0.528361 0.543084 0.540331 0.515831 0.540331 0.570337 0.528361 0.597591 0.540331 0.570337 0.540331 0.597591 0.528361 0.624844 0.540331 0.597591 0.540331 0.543084 0.528361 0.570337 0.540331 0.543084 0.540331 0.624844 0.540331 0.652097 0.528361 0.652097 0.540331 0.652097 0.528361 0.67935 0.540331 0.652097 0.540331 0.67935 0.528361 0.706603 0.540331 0.67935 0.540331 0.761109 0.528361 0.733856 0.540331 0.733856 0.528361 0.788362 0.528361 0.761109 0.540331 0.761109 0.528361 0.733856 0.528361 0.706603 0.540331 0.706603 0.528361 0.488578 0.476296 0.515831 0.488227 0.488578 0.488227 0.515831 0.476296 0.543084 0.488227 0.515831 0.488227 0.597591 0.476296 0.570337 0.488227 0.570337 0.476296 0.624844 0.488227 0.597591 0.488227 0.597591 0.476296 0.570337 0.476296 0.543084 0.488227 0.543084 0.476296 0.652097 0.488227 0.624844 0.476296 0.652097 0.476296 0.67935 0.476296 0.67935 0.488227 0.652097 0.488227 0.706603 0.488227 0.67935 0.488227 0.67935 0.476296 0.761109 0.476296 0.761109 0.488227 0.733856 0.488227 0.788362 0.476296 0.761109 0.488227 0.761109 0.476296 0.706603 0.476296 0.733856 0.488227 0.706603 0.488227 0.02469199 0.03572499 0.02856397 0.03572499 0.02856397 0.071451 0.02082097 0.071451 0.02469199 0.03572499 0.02469199 0.071451 0.02469199 0.107176 0.02856397 0.071451 0.02856397 0.107176 0.02082097 0.071451 0.02469199 0.071451 0.02469199 0.107176 0.02469199 0.142901 0.02856397 0.107176 0.02856397 0.142901 0.02082097 0.107176 0.02469199 0.107176 0.02469199 0.142901 0.02469199 0.142901 0.02856397 0.142901 0.02856397 0.178627 0.02082097 0.178627 0.02469199 0.142901 0.02469199 0.178627 0.02469199 0.178627 0.02856397 0.178627 0.02856397 0.214352 0.02082097 0.214352 0.02469199 0.178627 0.02469199 0.214352 0.02469199 0.250077 0.02856397 0.214352 0.02856397 0.250077 0.02082097 0.214352 0.02469199 0.214352 0.02469199 0.250077 0.02856397 0.071451 0.03243499 0.05196398 0.03243499 0.077946 0.03243499 0.077946 0.02856397 0.107176 0.02856397 0.071451 0.02856397 0.107176 0.03243499 0.103928 0.03243499 0.12991 0.02211099 0 0.02469199 0.03572499 0.02082097 0.03572499 0.02082097 0.03572499 0.01694995 0.05716097 0.01694995 0.02857995 0.02082097 0.107176 0.01694995 0.114321 0.01694995 0.08574098 0.02082097 0.142901 0.01694995 0.142901 0.01694995 0.114321 0.03243499 0.155892 0.02856397 0.178627 0.02856397 0.142901 0.02856397 0.178627 0.03243499 0.181874 0.03243499 0.207857 0.02082097 0.142901 0.01694995 0.171482 0.01694995 0.142901 0.01694995 0.200062 0.02082097 0.178627 0.02082097 0.214352 0.02082097 0.250077 0.01694995 0.257222 0.01694995 0.228642</float_array>
          <technique_common>
            <accessor source="#mesh-a7052fa6-8885-4489-8324-4d579d15c28e-mesh-map-0-array" count="1356" stride="2">
              <param name="S" type="float"/>
              <param name="T" type="float"/>
            </accessor>
          </technique_common>
        </source>
        <vertices id="mesh-a7052fa6-8885-4489-8324-4d579d15c28e-mesh-vertices">
          <input semantic="POSITION" source="#mesh-a7052fa6-8885-4489-8324-4d579d15c28e-mesh-positions"/>
        </vertices>
        <polylist material="ad_arm-material" count="452">
          <input semantic="VERTEX" source="#mesh-a7052fa6-8885-4489-8324-4d579d15c28e-mesh-vertices" offset="0"/>
          <input semantic="NORMAL" source="#mesh-a7052fa6-8885-4489-8324-4d579d15c28e-mesh-normals" offset="1"/>
          <input semantic="TEXCOORD" source="#mesh-a7052fa6-8885-4489-8324-4d579d15c28e-mesh-map-0" offset="2" set="0"/>
          <vcount>3 3 3 3 3 3 3 3 3 3 3 3 3 3 3 3 3 3 3 3 3 3 3 3 3 3 3 3 3 3 3 3 3 3 3 3 3 3 3 3 3 3 3 3 3 3 3 3 3 3 3 3 3 3 3 3 3 3 3 3 3 3 3 3 3 3 3 3 3 3 3 3 3 3 3 3 3 3 3 3 3 3 3 3 3 3 3 3 3 3 3 3 3 3 3 3 3 3 3 3 3 3 3 3 3 3 3 3 3 3 3 3 3 3 3 3 3 3 3 3 3 3 3 3 3 3 3 3 3 3 3 3 3 3 3 3 3 3 3 3 3 3 3 3 3 3 3 3 3 3 3 3 3 3 3 3 3 3 3 3 3 3 3 3 3 3 3 3 3 3 3 3 3 3 3 3 3 3 3 3 3 3 3 3 3 3 3 3 3 3 3 3 3 3 3 3 3 3 3 3 3 3 3 3 3 3 3 3 3 3 3 3 3 3 3 3 3 3 3 3 3 3 3 3 3 3 3 3 3 3 3 3 3 3 3 3 3 3 3 3 3 3 3 3 3 3 3 3 3 3 3 3 3 3 3 3 3 3 3 3 3 3 3 3 3 3 3 3 3 3 3 3 3 3 3 3 3 3 3 3 3 3 3 3 3 3 3 3 3 3 3 3 3 3 3 3 3 3 3 3 3 3 3 3 3 3 3 3 3 3 3 3 3 3 3 3 3 3 3 3 3 3 3 3 3 3 3 3 3 3 3 3 3 3 3 3 3 3 3 3 3 3 3 3 3 3 3 3 3 3 3 3 3 3 3 3 3 3 3 3 3 3 3 3 3 3 3 3 3 3 3 3 3 3 3 3 3 3 3 3 3 3 3 3 3 3 3 3 3 3 3 3 3 3 3 3 3 3 3 3 3 3 3 3 3 3 3 3 3 3 3 3 3 3 3 3 3 3 3 3 3 3 3 3 3 3 3 3 3 3 3 3 3 3 3 3 3 3 3 3 3 3 3 3 3 3 3 3 3 3 3 3 </vcount>
          <p>6 0 0 3 1 1 5 2 2 7 3 3 4 4 4 3 1 5 9 5 6 6 0 7 5 2 8 10 6 9 7 3 10 9 5 11 12 7 12 9 5 13 8 8 14 13 9 15 10 6 16 12 7 17 16 10 18 12 7 19 15 11 20 17 12 21 13 9 22 12 7 23 19 13 24 16 10 25 18 14 26 20 15 27 17 12 28 16 10 29 22 16 30 19 13 31 18 14 32 23 17 33 20 15 34 22 16 35 2 18 36 0 19 37 26 20 38 5 2 39 2 18 40 27 21 41 26 20 42 27 21 43 2 18 44 47 22 45 0 19 46 2 18 47 28 23 48 29 24 49 8 8 50 11 25 51 8 8 52 30 26 53 31 27 54 11 25 55 30 26 56 46 28 57 47 22 58 3 1 59 45 29 60 1 30 61 4 4 62 1 30 63 46 28 64 4 4 65 4 4 66 46 28 67 3 1 68 4 4 69 7 3 70 44 31 71 7 3 72 10 6 73 43 32 74 7 3 75 43 32 76 44 31 77 10 6 78 13 9 79 42 33 80 31 27 81 32 34 82 15 11 83 18 14 84 15 11 85 33 35 86 34 36 87 18 14 88 33 35 89 21 37 90 34 36 91 35 38 92 21 37 93 35 38 94 24 39 95 22 16 96 21 37 97 36 40 98 24 39 99 36 40 100 21 37 101 36 40 102 37 41 103 22 16 104 34 36 105 21 37 106 18 14 107 13 9 108 17 12 109 41 42 110 40 43 111 41 42 112 17 12 113 25 44 114 23 17 115 37 41 116 20 15 117 23 17 118 39 45 119 23 17 120 25 44 121 38 46 122 40 43 123 20 15 124 39 45 125 72 47 126 48 48 127 52 49 128 53 50 129 72 47 130 52 49 131 49 51 132 48 48 133 72 47 134 72 47 135 53 50 136 54 52 137 55 53 138 73 54 139 54 52 140 73 54 141 72 47 142 54 52 143 55 53 144 56 55 145 73 54 146 71 56 147 49 51 148 72 47 149 69 57 150 70 58 151 72 47 152 71 56 153 72 47 154 70 58 155 73 54 156 74 59 157 67 60 158 67 60 159 74 59 160 66 61 161 69 57 162 73 54 163 68 62 164 73 54 165 69 57 166 72 47 167 74 59 168 56 55 169 57 63 170 75 64 171 57 63 172 58 65 173 58 65 174 59 66 175 75 64 176 74 59 177 75 64 178 66 61 179 61 67 180 77 68 181 60 69 182 60 69 183 76 70 184 59 66 185 50 71 186 77 68 187 61 67 188 75 64 189 76 70 190 64 72 191 64 72 192 76 70 193 63 73 194 62 74 195 63 73 196 77 68 197 76 70 198 77 68 199 63 73 200 77 68 201 51 75 202 62 74 203 51 75 204 77 68 205 50 71 206 77 68 207 76 70 208 60 69 209 57 63 210 75 64 211 74 59 212 78 76 213 92 77 214 91 77 215 92 77 216 93 78 217 90 78 218 94 79 219 95 80 220 88 80 221 95 80 222 96 81 223 87 81 224 93 78 225 94 79 226 89 79 227 87 81 228 96 81 229 97 82 230 97 82 231 98 83 232 85 83 233 98 83 234 99 84 235 84 84 236 101 85 237 82 85 238 83 86 239 80 87 240 81 87 241 82 85 242 100 86 243 83 86 244 84 84 245 116 88 246 123 89 247 102 90 248 115 91 249 123 89 250 116 88 251 116 88 252 117 92 253 114 93 254 117 92 255 118 94 256 112 95 257 123 89 258 115 91 259 103 96 260 116 88 261 114 93 262 115 91 263 118 94 264 111 97 265 112 95 266 118 94 267 119 98 268 110 99 269 119 98 270 120 100 271 109 101 272 122 102 273 121 103 274 104 104 275 120 100 276 121 103 277 107 105 278 121 103 279 122 102 280 106 106 281 119 98 282 109 101 283 110 99 284 121 103 285 106 106 286 107 105 287 122 102 288 105 107 289 106 106 290 140 108 291 124 109 292 141 110 293 126 111 294 142 112 295 136 113 296 141 110 297 126 111 298 137 114 299 137 114 300 125 115 301 140 108 302 141 110 303 137 114 304 140 108 305 135 116 306 142 112 307 127 117 308 134 118 309 127 117 310 138 119 311 128 120 312 129 121 313 132 122 314 139 123 315 129 121 316 130 124 317 138 119 318 128 120 319 133 125 320 131 126 321 132 122 322 139 123 323 129 121 324 139 123 325 132 122 326 135 116 327 127 117 328 134 118 329 148 127 330 146 128 331 147 129 332 151 130 333 148 127 334 147 129 335 154 131 336 151 130 337 150 132 338 157 133 339 154 131 340 156 134 341 159 135 342 157 133 343 158 136 344 162 137 345 159 135 346 158 136 347 184 138 348 143 139 349 168 140 350 183 141 351 184 138 352 145 142 353 168 140 354 145 142 355 184 138 356 182 143 357 183 141 358 145 142 359 168 140 360 169 144 361 145 142 362 147 129 363 169 144 364 170 145 365 170 145 366 171 146 367 150 132 368 171 146 369 152 147 370 153 148 371 181 149 372 182 143 373 146 128 374 146 128 375 182 143 376 145 142 377 144 150 378 181 149 379 167 151 380 146 128 381 167 151 382 181 149 383 149 152 384 167 151 385 148 127 386 166 153 387 149 152 388 148 127 389 155 154 390 166 153 391 151 130 392 152 147 393 172 155 394 153 148 395 172 155 396 173 156 397 156 134 398 174 157 399 158 136 400 173 156 401 161 158 402 158 136 403 174 157 404 176 159 405 175 160 406 164 161 407 177 162 408 161 158 409 176 159 410 175 160 411 176 159 412 161 158 413 178 163 414 161 158 415 177 162 416 154 131 417 157 133 418 155 154 419 160 164 420 180 165 421 159 135 422 179 166 423 162 137 424 178 163 425 163 167 426 162 137 427 179 166 428 162 137 429 163 167 430 159 135 431 178 163 432 162 137 433 161 158 434 190 168 435 188 169 436 189 170 437 193 171 438 190 168 439 189 170 440 196 172 441 193 171 442 192 173 443 199 174 444 196 172 445 198 175 446 201 176 447 199 174 448 200 177 449 204 178 450 201 176 451 200 177 452 212 179 453 185 180 454 217 181 455 211 182 456 212 179 457 187 183 458 217 181 459 187 183 460 212 179 461 210 184 462 211 182 463 187 183 464 217 181 465 218 185 466 187 183 467 189 170 468 218 185 469 219 186 470 219 186 471 220 187 472 192 173 473 220 187 474 194 188 475 195 189 476 209 190 477 210 184 478 188 169 479 188 169 480 210 184 481 187 183 482 186 191 483 209 190 484 226 192 485 188 169 486 226 192 487 209 190 488 188 169 489 190 168 490 226 192 491 225 193 492 191 194 493 190 168 494 193 171 495 196 172 496 197 195 497 194 188 498 221 196 499 195 189 500 221 196 501 222 197 502 198 175 503 223 198 504 200 177 505 222 197 506 203 199 507 200 177 508 223 198 509 213 200 510 224 201 511 206 202 512 214 203 513 203 199 514 213 200 515 224 201 516 213 200 517 203 199 518 215 204 519 203 199 520 214 203 521 196 172 522 199 174 523 197 195 524 202 205 525 208 206 526 201 176 527 216 207 528 204 178 529 215 204 530 205 208 531 204 178 532 216 207 533 204 178 534 205 208 535 201 176 536 215 204 537 204 178 538 203 199 539 234 209 540 227 210 541 236 211 542 229 212 543 237 213 544 244 214 545 236 211 546 229 212 547 245 215 548 245 215 549 228 216 550 234 209 551 236 211 552 245 215 553 234 209 554 243 217 555 237 213 556 230 218 557 242 219 558 230 218 559 238 220 560 231 221 561 239 222 562 240 223 563 235 224 564 239 222 565 232 225 566 238 220 567 231 221 568 241 226 569 233 227 570 240 223 571 235 224 572 239 222 573 235 224 574 240 223 575 243 217 576 230 218 577 242 219 578 252 228 579 250 229 580 246 230 581 267 231 582 250 229 583 252 228 584 252 228 585 253 232 586 266 233 587 253 232 588 254 234 589 264 235 590 250 229 591 267 231 592 247 236 593 252 228 594 266 233 595 267 231 596 254 234 597 263 237 598 264 235 599 254 234 600 255 238 601 262 239 602 255 238 603 256 240 604 261 241 605 251 242 606 257 243 607 248 244 608 256 240 609 257 243 610 259 245 611 257 243 612 251 242 613 258 246 614 255 238 615 261 241 616 262 239 617 257 243 618 258 246 619 259 245 620 251 242 621 249 247 622 258 246 623 268 248 624 272 249 625 291 249 626 272 249 627 273 250 628 290 250 629 274 251 630 275 252 631 288 252 632 275 252 633 276 253 634 287 253 635 273 250 636 274 251 637 289 251 638 287 253 639 276 253 640 277 254 641 277 254 642 278 255 643 285 255 644 278 255 645 279 256 646 284 256 647 281 257 648 282 257 649 283 258 650 270 259 651 271 259 652 282 257 653 280 258 654 283 258 655 284 256 656 292 260 657 306 261 658 305 261 659 306 261 660 307 262 661 304 262 662 309 263 663 302 263 664 303 264 665 310 265 666 301 265 667 309 263 668 308 264 669 303 264 670 304 262 671 300 266 672 301 265 673 310 265 674 311 266 675 312 267 676 300 266 677 313 268 678 298 268 679 312 267 680 314 269 681 315 270 682 297 269 683 294 271 684 295 271 685 296 270 686 313 268 687 314 269 688 297 269 689 322 272 690 319 273 691 321 274 692 323 275 693 320 276 694 319 273 695 325 277 696 322 272 697 321 274 698 326 278 699 323 275 700 325 277 701 328 279 702 325 277 703 324 280 704 329 281 705 326 278 706 328 279 707 332 282 708 328 279 709 331 283 710 333 284 711 329 281 712 328 279 713 335 285 714 332 282 715 334 286 716 336 287 717 333 284 718 332 282 719 338 288 720 335 285 721 334 286 722 339 289 723 336 287 724 338 288 725 318 290 726 316 291 727 346 292 728 321 274 729 318 290 730 347 293 731 346 292 732 347 293 733 318 290 734 343 294 735 316 291 736 318 290 737 348 295 738 349 296 739 324 280 740 327 297 741 324 280 742 350 298 743 351 299 744 327 297 745 350 298 746 342 300 747 343 294 748 319 273 749 319 273 750 343 294 751 318 290 752 363 301 753 317 302 754 320 276 755 317 302 756 342 300 757 320 276 758 320 276 759 323 275 760 362 303 761 323 275 762 326 278 763 361 304 764 323 275 765 361 304 766 362 303 767 326 278 768 329 281 769 360 305 770 351 299 771 352 306 772 331 283 773 334 286 774 331 283 775 353 307 776 354 308 777 334 286 778 353 307 779 337 309 780 354 308 781 355 310 782 337 309 783 355 310 784 340 311 785 338 288 786 337 309 787 344 312 788 340 311 789 344 312 790 337 309 791 345 313 792 338 288 793 344 312 794 354 308 795 337 309 796 334 286 797 329 281 798 333 284 799 359 314 800 358 315 801 359 314 802 333 284 803 341 316 804 339 289 805 345 313 806 336 287 807 339 289 808 357 317 809 339 289 810 341 316 811 356 318 812 358 315 813 336 287 814 357 317 815 345 313 816 339 289 817 338 288 818 382 319 819 381 319 820 380 319 821 364 320 822 383 320 823 382 320 824 379 321 825 382 321 826 380 321 827 377 320 828 366 320 829 382 320 830 377 322 831 379 322 832 378 322 833 379 320 834 377 320 835 382 320 836 376 320 837 366 320 838 377 320 839 375 320 840 374 320 841 376 320 842 364 320 843 382 320 844 366 320 845 376 320 846 372 320 847 366 320 848 368 323 849 367 323 850 371 323 851 372 324 852 367 324 853 366 324 854 371 325 855 369 325 856 368 325 857 372 320 858 374 320 859 373 320 860 376 320 861 374 320 862 372 320 863 372 326 864 371 326 865 367 326 866 371 327 867 370 327 868 369 327 869 365 320 870 364 320 871 366 320 872 397 328 873 396 328 874 395 328 875 402 328 876 398 328 877 395 328 878 397 328 879 395 328 880 398 328 881 386 328 882 395 328 883 392 328 884 393 328 885 395 328 886 394 328 887 395 329 888 393 329 889 392 329 890 391 328 891 386 328 892 392 328 893 390 328 894 389 328 895 391 328 896 402 330 897 399 330 898 398 330 899 399 331 900 402 331 901 401 331 902 384 332 903 403 332 904 402 332 905 402 328 906 395 328 907 386 328 908 384 328 909 402 328 910 385 328 911 388 328 912 391 328 913 389 328 914 387 328 915 386 328 916 388 328 917 391 328 918 388 328 919 386 328 920 386 328 921 385 328 922 402 328 923 401 333 924 400 333 925 399 333 926 3 1 927 2 18 928 5 2 929 7 3 930 3 1 931 6 0 932 9 5 933 5 2 934 8 8 935 7 3 936 6 0 937 9 5 938 12 7 939 8 8 940 11 25 941 10 6 942 9 5 943 12 7 944 12 7 945 11 25 946 15 11 947 17 12 948 12 7 949 16 10 950 16 10 951 15 11 952 18 14 953 20 15 954 16 10 955 19 13 956 22 16 957 18 14 958 21 37 959 20 15 960 19 13 961 22 16 962 5 2 963 27 21 964 28 23 965 28 23 966 8 8 967 5 2 968 8 8 969 29 24 970 30 26 971 47 22 972 2 18 973 3 1 974 4 4 975 44 31 976 45 29 977 10 6 978 42 33 979 43 32 980 13 9 981 14 334 982 42 33 983 31 27 984 15 11 985 11 25 986 15 11 987 32 34 988 33 35 989 37 41 990 23 17 991 22 16 992 13 9 993 41 42 994 14 334 995 40 43 996 17 12 997 20 15 998 23 17 999 38 46 1000 39 45 1001 56 55 1002 74 59 1003 73 54 1004 73 54 1005 67 60 1006 68 62 1007 59 66 1008 76 70 1009 75 64 1010 75 64 1011 65 335 1012 66 61 1013 75 64 1014 64 72 1015 65 335 1016 78 76 1017 91 77 1018 79 76 1019 92 77 1020 90 78 1021 91 77 1022 94 79 1023 88 80 1024 89 79 1025 95 80 1026 87 81 1027 88 80 1028 93 78 1029 89 79 1030 90 78 1031 87 81 1032 97 82 1033 86 82 1034 97 82 1035 85 83 1036 86 82 1037 98 83 1038 84 84 1039 85 83 1040 101 85 1041 83 86 1042 100 86 1043 80 87 1044 82 85 1045 101 85 1046 100 86 1047 84 84 1048 99 84 1049 117 92 1050 113 336 1051 114 93 1052 117 92 1053 112 95 1054 113 336 1055 118 94 1056 110 99 1057 111 97 1058 120 100 1059 108 337 1060 109 101 1061 120 100 1062 107 105 1063 108 337 1064 142 112 1065 135 116 1066 136 113 1067 126 111 1068 136 113 1069 137 114 1070 128 120 1071 132 122 1072 133 125 1073 138 119 1074 133 125 1075 134 118 1076 146 128 1077 145 142 1078 147 129 1079 151 130 1080 147 129 1081 150 132 1082 154 131 1083 150 132 1084 153 148 1085 154 131 1086 153 148 1087 156 134 1088 157 133 1089 156 134 1090 158 136 1091 162 137 1092 158 136 1093 161 158 1094 169 144 1095 147 129 1096 145 142 1097 170 145 1098 150 132 1099 147 129 1100 171 146 1101 153 148 1102 150 132 1103 167 151 1104 146 128 1105 148 127 1106 166 153 1107 148 127 1108 151 130 1109 155 154 1110 151 130 1111 154 131 1112 172 155 1113 156 134 1114 153 148 1115 173 156 1116 158 136 1117 156 134 1118 161 158 1119 174 157 1120 175 160 1121 157 133 1122 180 165 1123 155 154 1124 180 165 1125 157 133 1126 159 135 1127 163 167 1128 179 166 1129 165 338 1130 163 167 1131 160 164 1132 159 135 1133 188 169 1134 187 183 1135 189 170 1136 193 171 1137 189 170 1138 192 173 1139 196 172 1140 192 173 1141 195 189 1142 196 172 1143 195 189 1144 198 175 1145 199 174 1146 198 175 1147 200 177 1148 204 178 1149 200 177 1150 203 199 1151 218 185 1152 189 170 1153 187 183 1154 219 186 1155 192 173 1156 189 170 1157 220 187 1158 195 189 1159 192 173 1160 190 168 1161 191 194 1162 226 192 1163 225 193 1164 190 168 1165 193 171 1166 193 171 1167 197 195 1168 225 193 1169 221 196 1170 198 175 1171 195 189 1172 222 197 1173 200 177 1174 198 175 1175 203 199 1176 223 198 1177 224 201 1178 199 174 1179 208 206 1180 197 195 1181 208 206 1182 199 174 1183 201 176 1184 205 208 1185 216 207 1186 207 339 1187 205 208 1188 202 205 1189 201 176 1190 237 213 1191 243 217 1192 244 214 1193 229 212 1194 244 214 1195 245 215 1196 231 221 1197 240 223 1198 241 226 1199 238 220 1200 241 226 1201 242 219 1202 253 232 1203 265 340 1204 266 233 1205 253 232 1206 264 235 1207 265 340 1208 254 234 1209 262 239 1210 263 237 1211 256 240 1212 260 341 1213 261 241 1214 256 240 1215 259 245 1216 260 341 1217 268 248 1218 291 249 1219 269 248 1220 272 249 1221 290 250 1222 291 249 1223 274 251 1224 288 252 1225 289 251 1226 275 252 1227 287 253 1228 288 252 1229 273 250 1230 289 251 1231 290 250 1232 287 253 1233 277 254 1234 286 254 1235 277 254 1236 285 255 1237 286 254 1238 278 255 1239 284 256 1240 285 255 1241 281 257 1242 283 258 1243 280 258 1244 270 259 1245 282 257 1246 281 257 1247 280 258 1248 284 256 1249 279 256 1250 292 260 1251 305 261 1252 293 260 1253 306 261 1254 304 262 1255 305 261 1256 309 263 1257 303 264 1258 308 264 1259 301 265 1260 302 263 1261 309 263 1262 308 264 1263 304 262 1264 307 262 1265 300 266 1266 310 265 1267 311 266 1268 312 267 1269 299 267 1270 300 266 1271 298 268 1272 299 267 1273 312 267 1274 315 270 1275 296 270 1276 297 269 1277 294 271 1278 296 270 1279 315 270 1280 313 268 1281 297 269 1282 298 268 1283 319 273 1284 318 290 1285 321 274 1286 323 275 1287 319 273 1288 322 272 1289 325 277 1290 321 274 1291 324 280 1292 323 275 1293 322 272 1294 325 277 1295 328 279 1296 324 280 1297 327 297 1298 326 278 1299 325 277 1300 328 279 1301 328 279 1302 327 297 1303 331 283 1304 333 284 1305 328 279 1306 332 282 1307 332 282 1308 331 283 1309 334 286 1310 336 287 1311 332 282 1312 335 285 1313 338 288 1314 334 286 1315 337 309 1316 336 287 1317 335 285 1318 338 288 1319 321 274 1320 347 293 1321 348 295 1322 348 295 1323 324 280 1324 321 274 1325 324 280 1326 349 296 1327 350 298 1328 342 300 1329 319 273 1330 320 276 1331 320 276 1332 362 303 1333 363 301 1334 326 278 1335 360 305 1336 361 304 1337 329 281 1338 330 342 1339 360 305 1340 351 299 1341 331 283 1342 327 297 1343 331 283 1344 352 306 1345 353 307 1346 329 281 1347 359 314 1348 330 342 1349 358 315 1350 333 284 1351 336 287 1352 339 289 1353 356 318 1354 357 317 1355</p>
        </polylist>
      </mesh>
    </geometry>
  </library_geometries>
  <library_controllers/>
  <library_visual_scenes>
    <visual_scene id="Scene" name="Scene">
      <node id="a7052fa6-8885-4489-8324-4d579d15c28e" name="a7052fa6-8885-4489-8324-4d579d15c28e" type="NODE">
        <matrix sid="transform">0.001 0 0 0 0 0.001 0 0 0 0 0.001 0 0 0 0 1</matrix>
        <instance_geometry url="#mesh-a7052fa6-8885-4489-8324-4d579d15c28e-mesh" name="a7052fa6-8885-4489-8324-4d579d15c28e">
          <bind_material>
            <technique_common>
              <instance_material symbol="ad_arm-material" target="#ad_arm-material"/>
            </technique_common>
          </bind_material>
        </instance_geometry>
      </node>
    </visual_scene>
  </library_visual_scenes>
  <scene>
    <instance_visual_scene url="#Scene"/>
  </scene>
</COLLADA>
