####
#
# OBJ File Generated by Meshlab
#
####
# Object quad_table_2.obj
#
# Vertices: 96
# Faces: 48
#
####
mtllib ./quad_table_2.obj.mtl

vn 0.0000000 0.0000000 1.0000000
v 0.3333750 -0.0834000 -0.6318250
vn 0.0000000 0.0000000 1.0000000
v 0.4133750 -0.0834000 -0.6318250
vn 1.0000000 0.0000000 0.0000000
v 0.4133750 -0.0834000 -0.6318250
vn 0.0000000 0.0000000 1.0000000
v 0.4133750 -0.0580000 -0.6318250
vn 1.0000000 0.0000000 0.0000000
v 0.4133750 -0.0580000 -0.6318250
vn 1.0000000 0.0000000 0.0000000
v 0.4133750 -0.0834000 -0.7118250
vn 0.0000000 0.0000000 -1.0000000
v 0.4133750 -0.0834000 -0.7118250
vn 1.0000000 0.0000000 0.0000000
v 0.4133750 -0.0580000 -0.7118250
vn 0.0000000 0.0000000 -1.0000000
v 0.4133750 -0.0580000 -0.7118250
vn 0.0000000 0.0000000 -1.0000000
v 0.3333750 -0.0834000 -0.7118250
vn -1.0000000 0.0000000 0.0000000
v 0.3333750 -0.0834000 -0.7118250
vn 0.0000000 0.0000000 -1.0000000
v 0.3333750 -0.0580000 -0.7118250
vn -1.0000000 0.0000000 0.0000000
v 0.3333750 -0.0580000 -0.7118250
vn -1.0000000 0.0000000 0.0000000
v 0.3333750 -0.0834000 -0.6318250
vn -1.0000000 0.0000000 0.0000000
v 0.3333750 -0.0580000 -0.6318250
vn 0.0000000 -1.0000000 0.0000000
v 0.4133750 -0.0834000 -0.6318250
vn 0.0000000 -1.0000000 0.0000000
v 0.3333750 -0.0834000 -0.6318250
vn 0.0000000 -1.0000000 0.0000000
v 0.3333750 -0.0834000 -0.7118250
vn 0.0000000 -1.0000000 0.0000000
v 0.4133750 -0.0834000 -0.7118250
vn 0.0000000 1.0000000 0.0000000
v 0.4133750 -0.0580000 -0.6318250
vn 0.0000000 1.0000000 0.0000000
v 0.3333750 -0.0580000 -0.7118250
vn 0.0000000 1.0000000 0.0000000
v 0.3333750 -0.0580000 -0.6318250
vn 0.0000000 1.0000000 0.0000000
v 0.4133750 -0.0580000 -0.7118250
vn 0.0000000 0.0000000 1.0000000
v 0.3333750 -0.0580000 -0.6318250
vn -1.0000000 0.0000000 0.0000000
v 0.3333750 -0.0834000 0.6318250
vn -1.0000000 0.0000000 0.0000000
v 0.3333750 -0.0834000 0.7118250
vn 0.0000000 0.0000000 1.0000000
v 0.3333750 -0.0834000 0.7118250
vn -1.0000000 0.0000000 0.0000000
v 0.3333750 -0.0580000 0.7118250
vn 0.0000000 0.0000000 1.0000000
v 0.3333750 -0.0580000 0.7118250
vn 0.0000000 0.0000000 1.0000000
v 0.4133750 -0.0834000 0.7118250
vn 1.0000000 0.0000000 0.0000000
v 0.4133750 -0.0834000 0.7118250
vn 0.0000000 0.0000000 1.0000000
v 0.4133750 -0.0580000 0.7118250
vn 1.0000000 0.0000000 0.0000000
v 0.4133750 -0.0580000 0.7118250
vn 1.0000000 0.0000000 0.0000000
v 0.4133750 -0.0834000 0.6318250
vn 0.0000000 0.0000000 -1.0000000
v 0.4133750 -0.0834000 0.6318250
vn 1.0000000 0.0000000 0.0000000
v 0.4133750 -0.0580000 0.6318250
vn 0.0000000 0.0000000 -1.0000000
v 0.4133750 -0.0580000 0.6318250
vn 0.0000000 0.0000000 -1.0000000
v 0.3333750 -0.0834000 0.6318250
vn 0.0000000 0.0000000 -1.0000000
v 0.3333750 -0.0580000 0.6318250
vn 0.0000000 -1.0000000 0.0000000
v 0.3333750 -0.0834000 0.6318250
vn 0.0000000 -1.0000000 0.0000000
v 0.4133750 -0.0834000 0.6318250
vn 0.0000000 -1.0000000 0.0000000
v 0.4133750 -0.0834000 0.7118250
vn 0.0000000 -1.0000000 0.0000000
v 0.3333750 -0.0834000 0.7118250
vn 0.0000000 1.0000000 0.0000000
v 0.3333750 -0.0580000 0.6318250
vn 0.0000000 1.0000000 0.0000000
v 0.4133750 -0.0580000 0.7118250
vn 0.0000000 1.0000000 0.0000000
v 0.4133750 -0.0580000 0.6318250
vn 0.0000000 1.0000000 0.0000000
v 0.3333750 -0.0580000 0.7118250
vn -1.0000000 0.0000000 0.0000000
v 0.3333750 -0.0580000 0.6318250
vn 0.0000000 0.0000000 -1.0000000
v -0.3333750 -0.0834000 0.6318250
vn 0.0000000 0.0000000 -1.0000000
v -0.4133750 -0.0834000 0.6318250
vn -1.0000000 0.0000000 0.0000000
v -0.4133750 -0.0834000 0.6318250
vn 0.0000000 0.0000000 -1.0000000
v -0.4133750 -0.0580000 0.6318250
vn -1.0000000 0.0000000 0.0000000
v -0.4133750 -0.0580000 0.6318250
vn -1.0000000 0.0000000 0.0000000
v -0.4133750 -0.0834000 0.7118250
vn 0.0000000 0.0000000 1.0000000
v -0.4133750 -0.0834000 0.7118250
vn -1.0000000 0.0000000 0.0000000
v -0.4133750 -0.0580000 0.7118250
vn 0.0000000 0.0000000 1.0000000
v -0.4133750 -0.0580000 0.7118250
vn 0.0000000 0.0000000 1.0000000
v -0.3333750 -0.0834000 0.7118250
vn 1.0000000 0.0000000 0.0000000
v -0.3333750 -0.0834000 0.7118250
vn 0.0000000 0.0000000 1.0000000
v -0.3333750 -0.0580000 0.7118250
vn 1.0000000 0.0000000 0.0000000
v -0.3333750 -0.0580000 0.7118250
vn 1.0000000 0.0000000 0.0000000
v -0.3333750 -0.0834000 0.6318250
vn 1.0000000 0.0000000 0.0000000
v -0.3333750 -0.0580000 0.6318250
vn 0.0000000 -1.0000000 0.0000000
v -0.4133750 -0.0834000 0.6318250
vn 0.0000000 -1.0000000 0.0000000
v -0.3333750 -0.0834000 0.6318250
vn 0.0000000 -1.0000000 0.0000000
v -0.3333750 -0.0834000 0.7118250
vn 0.0000000 -1.0000000 0.0000000
v -0.4133750 -0.0834000 0.7118250
vn 0.0000000 1.0000000 0.0000000
v -0.4133750 -0.0580000 0.6318250
vn 0.0000000 1.0000000 0.0000000
v -0.3333750 -0.0580000 0.7118250
vn 0.0000000 1.0000000 0.0000000
v -0.3333750 -0.0580000 0.6318250
vn 0.0000000 1.0000000 0.0000000
v -0.4133750 -0.0580000 0.7118250
vn 0.0000000 0.0000000 -1.0000000
v -0.3333750 -0.0580000 0.6318250
vn 1.0000000 0.0000000 0.0000000
v -0.3333750 -0.0834000 -0.6318250
vn 1.0000000 0.0000000 0.0000000
v -0.3333750 -0.0834000 -0.7118250
vn 0.0000000 0.0000000 -1.0000000
v -0.3333750 -0.0834000 -0.7118250
vn 1.0000000 0.0000000 0.0000000
v -0.3333750 -0.0580000 -0.7118250
vn 0.0000000 0.0000000 -1.0000000
v -0.3333750 -0.0580000 -0.7118250
vn 0.0000000 0.0000000 -1.0000000
v -0.4133750 -0.0834000 -0.7118250
vn -1.0000000 0.0000000 0.0000000
v -0.4133750 -0.0834000 -0.7118250
vn 0.0000000 0.0000000 -1.0000000
v -0.4133750 -0.0580000 -0.7118250
vn -1.0000000 0.0000000 0.0000000
v -0.4133750 -0.0580000 -0.7118250
vn -1.0000000 0.0000000 0.0000000
v -0.4133750 -0.0834000 -0.6318250
vn 0.0000000 0.0000000 1.0000000
v -0.4133750 -0.0834000 -0.6318250
vn -1.0000000 0.0000000 0.0000000
v -0.4133750 -0.0580000 -0.6318250
vn 0.0000000 0.0000000 1.0000000
v -0.4133750 -0.0580000 -0.6318250
vn 0.0000000 0.0000000 1.0000000
v -0.3333750 -0.0834000 -0.6318250
vn 0.0000000 0.0000000 1.0000000
v -0.3333750 -0.0580000 -0.6318250
vn 0.0000000 -1.0000000 0.0000000
v -0.3333750 -0.0834000 -0.6318250
vn 0.0000000 -1.0000000 0.0000000
v -0.4133750 -0.0834000 -0.6318250
vn 0.0000000 -1.0000000 0.0000000
v -0.4133750 -0.0834000 -0.7118250
vn 0.0000000 -1.0000000 0.0000000
v -0.3333750 -0.0834000 -0.7118250
vn 0.0000000 1.0000000 0.0000000
v -0.3333750 -0.0580000 -0.6318250
vn 0.0000000 1.0000000 0.0000000
v -0.4133750 -0.0580000 -0.7118250
vn 0.0000000 1.0000000 0.0000000
v -0.4133750 -0.0580000 -0.6318250
vn 0.0000000 1.0000000 0.0000000
v -0.3333750 -0.0580000 -0.7118250
vn 1.0000000 0.0000000 0.0000000
v -0.3333750 -0.0580000 -0.6318250
# 96 vertices, 0 vertices normals


usemtl material_0
vt 0.0000000 0.0000000
vt 0.2500000 0.0000000
vt 0.2500000 0.5685000
f 1/1/1 2/2/2 4/3/4
vt 0.5000000 0.0000000
vt 0.5000000 0.5685000
f 3/2/3 6/4/6 8/5/8
vt 0.7500000 0.0000000
vt 0.7500000 0.5685000
f 7/4/7 10/6/10 12/7/12
vt 1.0000000 0.0000000
vt 1.0000000 0.5685000
f 11/6/11 14/8/14 15/9/15
vt 0.2500000 1.0000000
vt 0.0000000 1.0000000
vt 0.0000000 0.5685000
f 16/10/16 17/11/17 18/12/18
f 18/12/18 19/3/19 16/10/16
vt 0.7500000 1.0000000
f 20/9/20 21/13/21 22/7/22
vt 1.0000000 1.0000000
f 21/13/21 20/9/20 23/14/23
f 1/1/1 4/3/4 24/12/24
f 3/2/3 8/5/8 5/3/5
f 7/4/7 12/7/12 9/5/9
f 11/6/11 15/9/15 13/7/13
f 25/1/25 26/2/26 28/3/28
f 27/2/27 30/4/30 32/5/32
f 31/4/31 34/6/34 36/7/36
f 35/6/35 38/8/38 39/9/39
f 40/10/40 41/11/41 42/12/42
f 42/12/42 43/3/43 40/10/40
f 44/9/44 45/13/45 46/7/46
f 45/13/45 44/9/44 47/14/47
f 25/1/25 28/3/28 48/12/48
f 27/2/27 32/5/32 29/3/29
f 31/4/31 36/7/36 33/5/33
f 35/6/35 39/9/39 37/7/37
f 49/1/49 50/2/50 52/3/52
f 51/2/51 54/4/54 56/5/56
f 55/4/55 58/6/58 60/7/60
f 59/6/59 62/8/62 63/9/63
f 64/10/64 65/11/65 66/12/66
f 66/12/66 67/3/67 64/10/64
f 68/9/68 69/13/69 70/7/70
f 69/13/69 68/9/68 71/14/71
f 49/1/49 52/3/52 72/12/72
f 51/2/51 56/5/56 53/3/53
f 55/4/55 60/7/60 57/5/57
f 59/6/59 63/9/63 61/7/61
f 73/1/73 74/2/74 76/3/76
f 75/2/75 78/4/78 80/5/80
f 79/4/79 82/6/82 84/7/84
f 83/6/83 86/8/86 87/9/87
f 88/10/88 89/11/89 90/12/90
f 90/12/90 91/3/91 88/10/88
f 92/9/92 93/13/93 94/7/94
f 93/13/93 92/9/92 95/14/95
f 73/1/73 76/3/76 96/12/96
f 75/2/75 80/5/80 77/3/77
f 79/4/79 84/7/84 81/5/81
f 83/6/83 87/9/87 85/7/85
# 48 faces, 14 coords texture

# End of File
