mtllib material.mtl
usemtl material_0
v -0.00515829 -0.00179723 -0.00515829
v -0.00673962 -0.00179723 -0.00279164
v -0.00535095 -0.00156349 -0.00535095
v -0.00492707 -0.00194538 -0.00492707
v -0.00643753 -0.00194538 -0.00266651
v -0.00279164 -0.00179723 -0.00673962
v -0.00266651 -0.00194538 -0.00643753
v 0.00000000 -0.00179723 -0.00729492
v -0.00289591 -0.00156349 -0.00699135
v 0.00000000 -0.00194538 -0.00696793
v 0.00279164 -0.00179723 -0.00673962
v 0.00289591 -0.00156349 -0.00699135
v 0.00266651 -0.00194538 -0.00643753
v 0.00515829 -0.00179723 -0.00515829
v 0.00535095 -0.00156349 -0.00535095
v 0.00492707 -0.00194538 -0.00492707
v 0.00673962 -0.00179723 -0.00279164
v 0.00643753 -0.00194538 -0.00266651
v -0.00699135 -0.00156349 -0.00289591
v -0.00776356 -0.00126285 -0.00000000
v -0.00744908 -0.00126285 -0.00218725
v -0.00653112 -0.00126285 -0.00419730
v -0.00748407 -0.00164988 -0.00000000
v -0.00508405 -0.00126285 -0.00586730
v -0.00322510 -0.00126285 -0.00706198
v 0.00000000 -0.00156349 -0.00756738
v -0.00110487 -0.00126285 -0.00768454
v 0.00110487 -0.00126285 -0.00768454
v -0.00708144 -0.00190639 -0.00000000
v -0.00628891 -0.00199612 -0.00204339
v -0.00661255 -0.00199612 -0.00000000
v -0.00534966 -0.00199612 -0.00388676
v -0.00388676 -0.00199612 -0.00534966
v -0.00204339 -0.00199612 -0.00628891
v 0.00322510 -0.00126285 -0.00706198
v 0.00508405 -0.00126285 -0.00586730
v 0.00653112 -0.00126285 -0.00419730
v 0.00699135 -0.00156349 -0.00289591
v 0.00744908 -0.00126285 -0.00218725
v 0.00776356 -0.00126285 -0.00000000
v 0.00748407 -0.00164988 -0.00000000
v 0.00708144 -0.00190639 -0.00000000
v 0.00204339 -0.00199612 -0.00628891
v 0.00388676 -0.00199612 -0.00534966
v 0.00661255 -0.00199612 -0.00000000
v 0.00534966 -0.00199612 -0.00388676
v 0.00628891 -0.00199612 -0.00204339
v 0.00737028 -0.00080398 -0.00305287
v 0.00776356 -0.00126285 -0.00000000
v 0.00744908 -0.00126285 -0.00218725
v 0.00653112 -0.00126285 -0.00419730
v 0.00819150 -0.00034512 -0.00000000
v 0.00508405 -0.00126285 -0.00586730
v 0.00322510 -0.00126285 -0.00706198
v 0.00305287 -0.00080398 -0.00737028
v 0.00110487 -0.00126285 -0.00768454
v 0.00785969 -0.00034512 -0.00230781
v 0.00536429 -0.00034512 -0.00619072
v 0.00689113 -0.00034512 -0.00442866
v 0.00000000 -0.00080398 -0.00797753
v 0.00116577 -0.00034512 -0.00810812
v -0.00116577 -0.00034512 -0.00810812
v 0.00340287 -0.00034512 -0.00745125
v -0.00110487 -0.00126285 -0.00768454
v -0.00305287 -0.00080398 -0.00737028
v -0.00322510 -0.00126285 -0.00706198
v -0.00508405 -0.00126285 -0.00586730
v -0.00744908 -0.00126285 -0.00218725
v -0.00737028 -0.00080398 -0.00305287
v -0.00653112 -0.00126285 -0.00419730
v -0.00564096 -0.00080398 -0.00564096
v -0.00776356 -0.00126285 -0.00000000
v -0.00536429 -0.00034512 -0.00619072
v -0.00689113 -0.00034512 -0.00442866
v -0.00785969 -0.00034512 -0.00230781
v -0.00819150 -0.00034512 -0.00000000
v -0.00819150 0.00067088 0.00000000
v -0.00785969 0.00067088 -0.00230781
v -0.00785969 -0.00034512 -0.00230781
v -0.00689113 0.00067088 -0.00442866
v -0.00689113 -0.00034512 -0.00442866
v -0.00536429 0.00067088 -0.00619072
v -0.00340287 0.00067088 -0.00745125
v -0.00340287 -0.00034512 -0.00745125
v -0.00116577 0.00067088 -0.00810812
v -0.00116577 -0.00034512 -0.00810812
v -0.00536429 -0.00034512 -0.00619072
v 0.00116577 0.00067088 -0.00810812
v 0.00340287 0.00067088 -0.00745125
v 0.00340287 -0.00034512 -0.00745125
v 0.00536429 0.00067088 -0.00619072
v 0.00536429 -0.00034512 -0.00619072
v 0.00785969 0.00067088 -0.00230781
v 0.00785969 -0.00034512 -0.00230781
v 0.00689113 -0.00034512 -0.00442866
v 0.00819150 0.00067088 0.00000000
v 0.00819150 -0.00034512 -0.00000000
v 0.00689113 0.00067088 -0.00442866
v -0.00514904 0.00680043 -0.00247964
v -0.00695325 0.00373566 0.00000000
v -0.00571500 0.00680043 0.00000000
v -0.00785969 0.00067088 -0.00230781
v -0.00356324 0.00680043 -0.00446817
v -0.00689113 0.00067088 -0.00442866
v -0.00127171 0.00680043 -0.00557171
v -0.00340287 0.00067088 -0.00745125
v -0.00819150 0.00067088 0.00000000
v -0.00116577 0.00067088 -0.00810812
v 0.00127171 0.00680043 -0.00557171
v 0.00116577 0.00067088 -0.00810812
v 0.00356324 0.00680043 -0.00446817
v 0.00340287 0.00067088 -0.00745125
v 0.00695325 0.00373566 0.00000000
v 0.00514904 0.00680043 -0.00247964
v 0.00571500 0.00680043 0.00000000
v 0.00689113 0.00067088 -0.00442866
v 0.00785969 0.00067088 -0.00230781
v 0.00819150 0.00067088 0.00000000
v -0.00522605 0.04586526 0.00000000
v -0.00473710 0.08493009 0.00000000
v -0.00437651 0.08493009 -0.00181281
v -0.00334964 0.08493009 -0.00334964
v -0.00181281 0.08493009 -0.00437651
v -0.00356324 0.00680043 -0.00446817
v -0.00514904 0.00680043 -0.00247964
v -0.00571500 0.00680043 0.00000000
v -0.00127171 0.00680043 -0.00557171
v 0.00000000 0.08493009 -0.00473710
v 0.00127171 0.00680043 -0.00557171
v 0.00181281 0.08493009 -0.00437651
v 0.00334964 0.08493009 -0.00334964
v 0.00437651 0.08493009 -0.00181281
v 0.00514904 0.00680043 -0.00247964
v 0.00522605 0.04586526 0.00000000
v 0.00473710 0.08493009 0.00000000
v 0.00356324 0.00680043 -0.00446817
v 0.00571500 0.00680043 0.00000000
v 0.00416233 0.08685604 -0.00416233
v 0.00225264 0.08685604 -0.00543834
v 0.00444523 0.08906288 -0.00444523
v 0.00543834 0.08685604 -0.00225263
v 0.00588642 0.08685604 0.00000000
v 0.00580797 0.08906288 -0.00240574
v 0.00543834 0.08685604 0.00225264
v 0.00580797 0.08906288 0.00240574
v 0.00416233 0.08685604 0.00416233
v 0.00444523 0.08906288 0.00444523
v 0.00225264 0.08685604 0.00543834
v 0.00000000 0.09068800 -0.00607282
v 0.00000000 0.09211087 -0.00549816
v 0.00169902 0.09211087 -0.00522906
v 0.00000000 0.08916827 -0.00628562
v 0.00240574 0.08906288 -0.00580797
v 0.00000000 0.08764227 -0.00612388
v 0.00323174 0.09211087 -0.00444811
v 0.00444811 0.09211087 -0.00323174
v 0.00522906 0.09211087 -0.00169902
v 0.00549816 0.09211087 0.00000000
v 0.00628650 0.08906288 0.00000000
v 0.00000000 0.08620092 -0.00559725
v 0.00000000 0.08493009 -0.00473710
v 0.00181281 0.08493009 -0.00437651
v 0.00334964 0.08493009 -0.00334964
v 0.00437651 0.08493009 -0.00181281
v 0.00473710 0.08493009 0.00000000
v 0.00522906 0.09211087 0.00169903
v 0.00444811 0.09211087 0.00323174
v 0.00323174 0.09211087 0.00444811
v 0.00240574 0.08906288 0.00580797
v 0.00000000 0.09068800 0.00607282
v 0.00169902 0.09211087 0.00522906
v 0.00000000 0.09211087 0.00549816
v 0.00000000 0.08916827 0.00628562
v 0.00000000 0.08764227 0.00612388
v 0.00334964 0.08493009 0.00334964
v 0.00437651 0.08493009 0.00181281
v 0.00000000 0.08620092 0.00559725
v 0.00181281 0.08493009 0.00437651
v -0.00416233 0.08685604 0.00416233
v -0.00225264 0.08685604 0.00543834
v -0.00444523 0.08906288 0.00444523
v -0.00543834 0.08685604 0.00225264
v -0.00588642 0.08685604 0.00000000
v -0.00580797 0.08906288 0.00240574
v -0.00543834 0.08685604 -0.00225263
v -0.00580797 0.08906288 -0.00240574
v -0.00416233 0.08685604 -0.00416233
v -0.00444523 0.08906288 -0.00444523
v -0.00225264 0.08685604 -0.00543834
v 0.00000000 0.09068800 0.00607282
v 0.00000000 0.09211087 0.00549816
v -0.00169902 0.09211087 0.00522906
v 0.00000000 0.08916827 0.00628562
v -0.00240574 0.08906288 0.00580797
v 0.00000000 0.08764227 0.00612388
v -0.00323174 0.09211087 0.00444811
v -0.00444811 0.09211087 0.00323174
v -0.00522906 0.09211087 0.00169903
v -0.00549816 0.09211087 0.00000000
v -0.00628650 0.08906288 0.00000000
v 0.00000000 0.08620092 0.00559725
v 0.00000000 0.08493009 0.00473710
v -0.00181281 0.08493009 0.00437651
v -0.00437651 0.08493009 0.00181281
v -0.00334964 0.08493009 0.00334964
v -0.00473710 0.08493009 0.00000000
v -0.00522906 0.09211087 -0.00169902
v -0.00444811 0.09211087 -0.00323174
v -0.00323174 0.09211087 -0.00444811
v -0.00240574 0.08906288 -0.00580797
v 0.00000000 0.09068800 -0.00607282
v -0.00169902 0.09211087 -0.00522906
v 0.00000000 0.09211087 -0.00549816
v 0.00000000 0.08916827 -0.00628562
v 0.00000000 0.08764227 -0.00612388
v -0.00334964 0.08493009 -0.00334964
v -0.00437651 0.08493009 -0.00181281
v 0.00000000 0.08620092 -0.00559725
v -0.00181281 0.08493009 -0.00437651
v 0.00522605 0.04586526 0.00000000
v 0.00473710 0.08493009 0.00000000
v 0.00437651 0.08493009 0.00181281
v 0.00334964 0.08493009 0.00334964
v 0.00181281 0.08493009 0.00437651
v 0.00356324 0.00680043 0.00446817
v 0.00514904 0.00680043 0.00247965
v 0.00571500 0.00680043 0.00000000
v 0.00127171 0.00680043 0.00557171
v 0.00000000 0.08493009 0.00473710
v -0.00127171 0.00680043 0.00557171
v -0.00181281 0.08493009 0.00437651
v -0.00334964 0.08493009 0.00334964
v -0.00437651 0.08493009 0.00181281
v -0.00514904 0.00680043 0.00247965
v -0.00522605 0.04586526 0.00000000
v -0.00473710 0.08493009 0.00000000
v -0.00356324 0.00680043 0.00446817
v -0.00571500 0.00680043 0.00000000
v 0.00514904 0.00680043 0.00247965
v 0.00695325 0.00373566 0.00000000
v 0.00571500 0.00680043 0.00000000
v 0.00785969 0.00067088 0.00230781
v 0.00356324 0.00680043 0.00446817
v 0.00689113 0.00067088 0.00442866
v 0.00127171 0.00680043 0.00557171
v 0.00340287 0.00067088 0.00745125
v 0.00819150 0.00067088 0.00000000
v 0.00116577 0.00067088 0.00810812
v -0.00127171 0.00680043 0.00557171
v -0.00116577 0.00067088 0.00810812
v -0.00356324 0.00680043 0.00446817
v -0.00340287 0.00067088 0.00745125
v -0.00695325 0.00373566 0.00000000
v -0.00514904 0.00680043 0.00247965
v -0.00571500 0.00680043 0.00000000
v -0.00689113 0.00067088 0.00442866
v -0.00785969 0.00067088 0.00230781
v -0.00819150 0.00067088 0.00000000
v 0.00819150 0.00067088 0.00000000
v 0.00785969 0.00067088 0.00230781
v 0.00785969 -0.00034512 0.00230781
v 0.00689113 0.00067088 0.00442866
v 0.00689113 -0.00034512 0.00442866
v 0.00536429 0.00067088 0.00619072
v 0.00340287 0.00067088 0.00745125
v 0.00340287 -0.00034512 0.00745125
v 0.00116577 0.00067088 0.00810812
v 0.00116577 -0.00034512 0.00810812
v 0.00536429 -0.00034512 0.00619072
v -0.00116577 0.00067088 0.00810812
v -0.00340287 0.00067088 0.00745125
v -0.00340287 -0.00034512 0.00745125
v -0.00536429 0.00067088 0.00619072
v -0.00536429 -0.00034512 0.00619072
v -0.00785969 0.00067088 0.00230781
v -0.00785969 -0.00034512 0.00230781
v -0.00689113 -0.00034512 0.00442866
v -0.00819150 0.00067088 0.00000000
v -0.00819150 -0.00034512 -0.00000000
v -0.00689113 0.00067088 0.00442866
v -0.00776356 -0.00126285 -0.00000000
v -0.00744908 -0.00126285 0.00218725
v -0.00785969 -0.00034512 0.00230781
v -0.00653112 -0.00126285 0.00419730
v -0.00689113 -0.00034512 0.00442866
v -0.00322510 -0.00126285 0.00706198
v -0.00340287 -0.00034512 0.00745125
v -0.00536429 -0.00034512 0.00619072
v -0.00110487 -0.00126285 0.00768454
v -0.00116577 -0.00034512 0.00810812
v -0.00508405 -0.00126285 0.00586730
v 0.00116577 -0.00034512 0.00810812
v 0.00110487 -0.00126285 0.00768454
v 0.00322510 -0.00126285 0.00706198
v 0.00508405 -0.00126285 0.00586730
v 0.00536429 -0.00034512 0.00619072
v 0.00653112 -0.00126285 0.00419730
v 0.00744908 -0.00126285 0.00218725
v 0.00689113 -0.00034512 0.00442866
v 0.00776356 -0.00126285 -0.00000000
v 0.00819150 -0.00034512 -0.00000000
v 0.00785969 -0.00034512 0.00230781
v 0.00515829 -0.00179723 0.00515829
v 0.00673962 -0.00179723 0.00279164
v 0.00535095 -0.00156349 0.00535095
v 0.00492707 -0.00194539 0.00492707
v 0.00643753 -0.00194539 0.00266651
v 0.00279164 -0.00179723 0.00673962
v 0.00266651 -0.00194539 0.00643753
v 0.00000000 -0.00179723 0.00729492
v 0.00289591 -0.00156349 0.00699135
v 0.00000000 -0.00194539 0.00696793
v -0.00279164 -0.00179723 0.00673962
v -0.00289591 -0.00156349 0.00699135
v -0.00266651 -0.00194539 0.00643753
v -0.00515829 -0.00179723 0.00515829
v -0.00535095 -0.00156349 0.00535095
v -0.00492707 -0.00194539 0.00492707
v -0.00673962 -0.00179723 0.00279164
v -0.00643753 -0.00194539 0.00266651
v 0.00699135 -0.00156349 0.00289591
v 0.00776356 -0.00126285 -0.00000000
v 0.00744908 -0.00126285 0.00218725
v 0.00653112 -0.00126285 0.00419730
v 0.00748407 -0.00164988 -0.00000000
v 0.00508405 -0.00126285 0.00586730
v 0.00322510 -0.00126285 0.00706198
v 0.00000000 -0.00156349 0.00756738
v 0.00110487 -0.00126285 0.00768454
v -0.00110487 -0.00126285 0.00768454
v 0.00708144 -0.00190639 -0.00000000
v 0.00628891 -0.00199612 0.00204339
v 0.00661255 -0.00199612 -0.00000000
v 0.00534966 -0.00199612 0.00388676
v 0.00388676 -0.00199612 0.00534966
v 0.00204339 -0.00199612 0.00628891
v -0.00322510 -0.00126285 0.00706198
v -0.00508405 -0.00126285 0.00586730
v -0.00653112 -0.00126285 0.00419730
v -0.00699135 -0.00156349 0.00289591
v -0.00744908 -0.00126285 0.00218725
v -0.00776356 -0.00126285 -0.00000000
v -0.00748407 -0.00164988 -0.00000000
v -0.00708144 -0.00190639 -0.00000000
v -0.00204339 -0.00199612 0.00628891
v -0.00388676 -0.00199612 0.00534966
v -0.00661255 -0.00199612 -0.00000000
v -0.00534966 -0.00199612 0.00388676
v -0.00628891 -0.00199612 0.00204339
v -0.00323174 0.09211087 -0.00444811
v -0.00323174 0.09211087 -0.00444811
v -0.00323174 0.09211087 -0.00444811
v -0.00444811 0.09211087 -0.00323174
v -0.00522906 0.09211087 -0.00169902
v -0.00522906 0.09211087 -0.00169902
v 0.00000000 0.09211087 -0.00549816
v -0.00169902 0.09211087 -0.00522906
v -0.00549816 0.09211087 0.00000000
v -0.00549816 0.09211087 0.00000000
v -0.00549816 0.09211087 0.00000000
v -0.00444811 0.09211087 0.00323174
v -0.00444811 0.09211087 0.00323174
v 0.00323174 0.09211087 -0.00444811
v 0.00323174 0.09211087 -0.00444811
v -0.00522906 0.09211087 0.00169903
v -0.00323174 0.09211087 0.00444811
v -0.00169902 0.09211087 0.00522906
v 0.00000000 0.09211087 0.00549816
v 0.00323174 0.09211087 0.00444811
v 0.00323174 0.09211087 0.00444811
v 0.00323174 0.09211087 0.00444811
v 0.00522906 0.09211087 -0.00169902
v 0.00522906 0.09211087 -0.00169902
v 0.00444811 0.09211087 -0.00323174
v 0.00444811 0.09211087 -0.00323174
v 0.00444811 0.09211087 -0.00323174
v 0.00444811 0.09211087 0.00323174
v 0.00444811 0.09211087 0.00323174
v 0.00444811 0.09211087 0.00323174
v 0.00444811 0.09211087 0.00323174
v 0.00549816 0.09211087 0.00000000
v 0.00549816 0.09211087 0.00000000
v 0.00169902 0.09211087 0.00522906
v 0.00522906 0.09211087 0.00169903
v 0.00169902 0.09211087 -0.00522906
v -0.00388676 -0.00199612 0.00534966
v -0.00534966 -0.00199612 0.00388676
v -0.00628891 -0.00199612 0.00204339
v -0.00628891 -0.00199612 0.00204339
v 0.00534966 -0.00199612 0.00388676
v 0.00534966 -0.00199612 0.00388676
v 0.00534966 -0.00199612 0.00388676
v -0.00204339 -0.00199612 0.00628891
v 0.00534966 -0.00199612 -0.00388676
v -0.00534966 -0.00199612 -0.00388676
v -0.00534966 -0.00199612 -0.00388676
v -0.00628891 -0.00199612 -0.00204339
v -0.00628891 -0.00199612 -0.00204339
v -0.00661255 -0.00199612 -0.00000000
v -0.00388676 -0.00199612 -0.00534966
v -0.00204339 -0.00199612 -0.00628891
v 0.00000000 -0.00199612 -0.00661255
v 0.00000000 -0.00199612 0.00661255
v 0.00000000 -0.00199612 0.00661255
v 0.00388676 -0.00199612 0.00534966
v 0.00388676 -0.00199612 0.00534966
v 0.00661255 -0.00199612 -0.00000000
v 0.00661255 -0.00199612 -0.00000000
v 0.00628891 -0.00199612 0.00204339
v 0.00628891 -0.00199612 -0.00204339
v 0.00204339 -0.00199612 -0.00628891
v 0.00388676 -0.00199612 -0.00534966
v 0.00204339 -0.00199612 0.00628891
v 0.00000000 -0.00199612 -0.00661255
v -0.00340287 -0.00034512 -0.00745125
v -0.00819150 -0.00034512 -0.00000000
v 0.00116577 -0.00034512 -0.00810812
v -0.00536429 0.00067088 -0.00619072
v 0.00536429 0.00067088 -0.00619072
v 0.00000000 0.08493009 0.00473710
v 0.00000000 0.08493009 -0.00473710
v 0.00536429 0.00067088 0.00619072
v -0.00536429 0.00067088 0.00619072
v 0.00819150 -0.00034512 -0.00000000
v -0.00116577 -0.00034512 0.00810812
v -0.00819150 -0.00034512 -0.00000000
v 0.00340287 -0.00034512 0.00745125
v 0.00000000 -0.00199612 0.00661255
vn -0.38863000 0.38863000 -0.83543000
vn -0.50711000 0.21187000 -0.83544000
vn -0.56021000 0.53793000 -0.62992000
vn -0.20598000 0.20598000 -0.95663000
vn -0.26951000 0.11429000 -0.95619000
vn -0.21031000 0.50777000 -0.83543000
vn -0.11393000 0.27049000 -0.95596000
vn 0.00000000 0.54961000 -0.83542000
vn -0.27778000 0.70758000 -0.64975000
vn 0.00000000 0.29756000 -0.95470000
vn 0.21031000 0.50777000 -0.83543000
vn 0.27778000 0.70758000 -0.64975000
vn 0.11393000 0.27049000 -0.95596000
vn 0.38863000 0.38863000 -0.83543000
vn 0.56021000 0.53793000 -0.62992000
vn 0.20598000 0.20598000 -0.95663000
vn 0.50711000 0.21187000 -0.83544000
vn 0.26951000 0.11429000 -0.95619000
vn -0.72566000 0.30922000 -0.61466000
vn -0.78697000 0.14765000 -0.59906000
vn -0.67784000 0.13087000 -0.72347000
vn -0.59017000 0.38945000 -0.70712000
vn -0.69267000 0.13126000 -0.70921000
vn -0.46209000 0.61505000 -0.63889000
vn -0.37728000 0.72013000 -0.58230000
vn 0.00000000 0.79238000 -0.61003000
vn -0.12730000 0.70607000 -0.69661000
vn 0.12730000 0.70607000 -0.69661000
vn -0.38765000 0.07013000 -0.91914000
vn -0.18193000 0.03659000 -0.98263000
vn -0.18854000 0.03104000 -0.98157000
vn -0.16465000 0.11188000 -0.97999000
vn -0.11188000 0.16465000 -0.97999000
vn -0.03955000 0.16560000 -0.98540000
vn 0.37728000 0.72013000 -0.58230000
vn 0.46209000 0.61505000 -0.63889000
vn 0.59017000 0.38945000 -0.70712000
vn 0.72566000 0.30922000 -0.61466000
vn 0.67784000 0.13087000 -0.72347000
vn 0.78697000 0.14765000 -0.59906000
vn 0.69267000 0.13126000 -0.70921000
vn 0.38765000 0.07013000 -0.91914000
vn 0.03955000 0.16560000 -0.98540000
vn 0.11188000 0.16465000 -0.97999000
vn 0.18854000 0.03104000 -0.98157000
vn 0.16465000 0.11188000 -0.97999000
vn 0.18193000 0.03659000 -0.98263000
vn 0.83208000 0.36816000 -0.41485000
vn 0.90453000 0.17497000 -0.38885000
vn 0.96645000 0.18333000 -0.17991000
vn 0.76470000 0.62446000 0.15898000
vn 0.87941000 0.16969000 -0.44479000
vn 0.57248000 0.58640000 0.57306000
vn 0.42309000 0.81761000 -0.39052000
vn 0.34279000 0.83925000 -0.42208000
vn 0.17258000 0.95579000 -0.23808000
vn 0.79379000 0.16001000 -0.58677000
vn 0.37279000 0.38671000 -0.84349000
vn 0.54066000 0.42954000 -0.72332000
vn 0.00000000 0.91118000 -0.41201000
vn 0.14469000 0.81896000 -0.55530000
vn -0.14469000 0.81896000 -0.55530000
vn 0.40612000 0.79527000 -0.45013000
vn -0.17258000 0.95579000 -0.23808000
vn -0.33290000 0.84379000 -0.42095000
vn -0.42309000 0.81761000 -0.39052000
vn -0.56964000 0.75447000 -0.32601000
vn -0.96645000 0.18333000 -0.17991000
vn -0.83860000 0.35448000 -0.41363000
vn -0.81432000 0.53760000 -0.21879000
vn -0.65611000 0.62916000 -0.41674000
vn -0.90453000 0.17497000 -0.38885000
vn -0.52731000 0.68776000 -0.49893000
vn -0.68833000 0.45315000 -0.56644000
vn -0.79379000 0.16001000 -0.58677000
vn -0.87941000 0.16969000 -0.44479000
vn -0.98982000 0.14231000 0.00000000
vn -0.95950000 0.28172000 0.00000000
vn -0.95950000 0.28172000 0.00000000
vn -0.84125000 0.54064000 0.00000000
vn -0.84125000 0.54064000 0.00000000
vn -0.65486000 0.75575000 0.00000000
vn -0.41540000 0.90964000 0.00000000
vn -0.41540000 0.90964000 0.00000000
vn -0.14231000 0.98982000 0.00000000
vn -0.14231000 0.98982000 0.00000000
vn -0.65486000 0.75575000 0.00000000
vn 0.14231000 0.98982000 0.00000000
vn 0.41540000 0.90964000 0.00000000
vn 0.41540000 0.90964000 0.00000000
vn 0.65486000 0.75575000 0.00000000
vn 0.65486000 0.75575000 0.00000000
vn 0.95950000 0.28172000 0.00000000
vn 0.95950000 0.28172000 0.00000000
vn 0.84125000 0.54064000 0.00000000
vn 0.98982000 0.14231000 0.00000000
vn 0.98982000 0.14231000 0.00000000
vn 0.84125000 0.54064000 0.00000000
vn -0.83253000 0.39458000 0.38884000
vn -0.90746000 0.16941000 0.38448000
vn -0.90710000 0.20704000 0.36648000
vn -0.88996000 0.25810000 0.37596000
vn -0.57455000 0.71748000 0.39385000
vn -0.77766000 0.50463000 0.37496000
vn -0.20106000 0.89750000 0.39251000
vn -0.38628000 0.84382000 0.37251000
vn -0.91905000 0.13212000 0.37133000
vn -0.12623000 0.91740000 0.37743000
vn 0.20106000 0.89750000 0.39251000
vn 0.12623000 0.91740000 0.37743000
vn 0.57455000 0.71748000 0.39385000
vn 0.38628000 0.84382000 0.37251000
vn 0.90746000 0.16941000 0.38448000
vn 0.83253000 0.39458000 0.38884000
vn 0.90710000 0.20704000 0.36648000
vn 0.77766000 0.50463000 0.37496000
vn 0.88996000 0.25810000 0.37596000
vn 0.91905000 0.13212000 0.37133000
vn -0.97742000 0.21098000 0.01148000
vn -0.98071000 0.19508000 0.01227000
vn -0.92389000 0.38243000 0.01285000
vn -0.70715000 0.70694000 0.01340000
vn -0.38271000 0.92376000 0.01376000
vn -0.62352000 0.78173000 0.01120000
vn -0.90107000 0.43352000 0.01190000
vn -0.97486000 0.22248000 0.01218000
vn -0.22251000 0.97487000 0.01102000
vn 0.00000000 0.99990000 0.01386000
vn 0.22251000 0.97487000 0.01102000
vn 0.38271000 0.92376000 0.01376000
vn 0.70715000 0.70694000 0.01340000
vn 0.92389000 0.38243000 0.01285000
vn 0.90107000 0.43352000 0.01190000
vn 0.97742000 0.21098000 0.01148000
vn 0.98071000 0.19508000 0.01227000
vn 0.62352000 0.78173000 0.01120000
vn 0.97486000 0.22248000 0.01218000
vn 0.66397000 0.66397000 -0.34395000
vn 0.37151000 0.86231000 -0.34410000
vn 0.70689000 0.70689000 0.02496000
vn 0.86751000 0.35933000 -0.34395000
vn 0.93899000 0.00000000 -0.34395000
vn 0.92403000 0.38137000 0.02680000
vn 0.86751000 -0.35933000 -0.34395000
vn 0.92403000 -0.38137000 0.02680000
vn 0.66397000 -0.66397000 -0.34395000
vn 0.70689000 -0.70689000 0.02496000
vn 0.37151000 -0.86231000 -0.34410000
vn 0.21290000 0.94682000 0.24125000
vn 0.14530000 0.91740000 0.37050000
vn 0.31939000 0.90482000 0.28160000
vn 0.19550000 0.98051000 0.01938000
vn 0.39623000 0.91784000 0.02399000
vn 0.19215000 0.95778000 -0.21388000
vn 0.56589000 0.78310000 0.25792000
vn 0.78310000 0.56589000 0.25792000
vn 0.92213000 0.29268000 0.25300000
vn 0.96815000 0.00000000 0.25038000
vn 0.99958000 0.00000000 0.02899000
vn 0.17777000 0.87525000 -0.44982000
vn 0.16252000 0.81713000 -0.55307000
vn 0.33871000 0.78293000 -0.52183000
vn 0.60721000 0.60721000 -0.51245000
vn 0.79335000 0.32860000 -0.51245000
vn 0.85872000 0.00000000 -0.51245000
vn 0.92213000 -0.29268000 0.25300000
vn 0.78310000 -0.56589000 0.25792000
vn 0.56589000 -0.78310000 0.25792000
vn 0.39623000 -0.91784000 0.02399000
vn 0.21290000 -0.94682000 0.24125000
vn 0.31939000 -0.90482000 0.28160000
vn 0.14530000 -0.91740000 0.37050000
vn 0.19550000 -0.98051000 0.01938000
vn 0.19215000 -0.95778000 -0.21388000
vn 0.60721000 -0.60721000 -0.51245000
vn 0.79335000 -0.32860000 -0.51245000
vn 0.17774000 -0.87525000 -0.44982000
vn 0.33870000 -0.78291000 -0.52185000
vn -0.66397000 -0.66397000 -0.34395000
vn -0.37151000 -0.86231000 -0.34410000
vn -0.70689000 -0.70689000 0.02496000
vn -0.86751000 -0.35933000 -0.34395000
vn -0.93899000 0.00000000 -0.34395000
vn -0.92403000 -0.38137000 0.02680000
vn -0.86751000 0.35933000 -0.34395000
vn -0.92403000 0.38137000 0.02680000
vn -0.66397000 0.66397000 -0.34395000
vn -0.70689000 0.70689000 0.02496000
vn -0.37151000 0.86231000 -0.34410000
vn -0.21290000 -0.94682000 0.24125000
vn -0.14530000 -0.91740000 0.37050000
vn -0.31939000 -0.90482000 0.28160000
vn -0.19550000 -0.98051000 0.01938000
vn -0.39623000 -0.91784000 0.02399000
vn -0.19215000 -0.95778000 -0.21388000
vn -0.56589000 -0.78310000 0.25792000
vn -0.78310000 -0.56589000 0.25792000
vn -0.92213000 -0.29268000 0.25300000
vn -0.96815000 0.00000000 0.25038000
vn -0.99958000 0.00000000 0.02899000
vn -0.17777000 -0.87525000 -0.44982000
vn -0.16252000 -0.81713000 -0.55307000
vn -0.33870000 -0.78291000 -0.52185000
vn -0.79335000 -0.32860000 -0.51245000
vn -0.60721000 -0.60721000 -0.51245000
vn -0.85872000 0.00000000 -0.51245000
vn -0.92213000 0.29268000 0.25300000
vn -0.78310000 0.56589000 0.25792000
vn -0.56589000 0.78310000 0.25792000
vn -0.39623000 0.91784000 0.02399000
vn -0.21290000 0.94682000 0.24125000
vn -0.31939000 0.90482000 0.28160000
vn -0.14530000 0.91740000 0.37050000
vn -0.19550000 0.98051000 0.01938000
vn -0.19215000 0.95778000 -0.21388000
vn -0.60721000 0.60721000 -0.51245000
vn -0.79335000 0.32860000 -0.51245000
vn -0.17774000 0.87525000 -0.44982000
vn -0.33870000 0.78291000 -0.52185000
vn 0.97742000 -0.21098000 0.01148000
vn 0.98071000 -0.19508000 0.01227000
vn 0.92389000 -0.38243000 0.01285000
vn 0.70715000 -0.70694000 0.01340000
vn 0.38271000 -0.92376000 0.01376000
vn 0.62352000 -0.78173000 0.01120000
vn 0.90107000 -0.43352000 0.01190000
vn 0.97486000 -0.22248000 0.01218000
vn 0.22251000 -0.97487000 0.01102000
vn 0.00000000 -0.99990000 0.01386000
vn -0.22251000 -0.97487000 0.01102000
vn -0.38271000 -0.92376000 0.01376000
vn -0.70715000 -0.70694000 0.01340000
vn -0.92389000 -0.38243000 0.01285000
vn -0.90107000 -0.43352000 0.01190000
vn -0.97742000 -0.21098000 0.01148000
vn -0.98071000 -0.19508000 0.01227000
vn -0.62352000 -0.78173000 0.01120000
vn -0.97486000 -0.22248000 0.01218000
vn 0.83253000 -0.39458000 0.38884000
vn 0.90746000 -0.16941000 0.38448000
vn 0.90710000 -0.20704000 0.36648000
vn 0.88996000 -0.25810000 0.37596000
vn 0.57455000 -0.71748000 0.39385000
vn 0.77766000 -0.50463000 0.37496000
vn 0.20106000 -0.89750000 0.39251000
vn 0.38628000 -0.84382000 0.37251000
vn 0.91905000 -0.13212000 0.37133000
vn 0.12623000 -0.91740000 0.37743000
vn -0.20106000 -0.89750000 0.39251000
vn -0.12623000 -0.91740000 0.37743000
vn -0.57455000 -0.71748000 0.39385000
vn -0.38628000 -0.84382000 0.37251000
vn -0.90746000 -0.16941000 0.38448000
vn -0.83253000 -0.39458000 0.38884000
vn -0.90710000 -0.20704000 0.36648000
vn -0.77766000 -0.50463000 0.37496000
vn -0.88996000 -0.25810000 0.37596000
vn -0.91905000 -0.13212000 0.37133000
vn 0.98982000 -0.14231000 0.00000000
vn 0.95950000 -0.28172000 0.00000000
vn 0.95950000 -0.28172000 0.00000000
vn 0.84125000 -0.54064000 0.00000000
vn 0.84125000 -0.54064000 0.00000000
vn 0.65486000 -0.75575000 0.00000000
vn 0.41540000 -0.90964000 0.00000000
vn 0.41540000 -0.90964000 0.00000000
vn 0.14231000 -0.98982000 0.00000000
vn 0.14231000 -0.98982000 0.00000000
vn 0.65486000 -0.75575000 0.00000000
vn -0.14231000 -0.98982000 0.00000000
vn -0.41540000 -0.90964000 0.00000000
vn -0.41540000 -0.90964000 0.00000000
vn -0.65486000 -0.75575000 0.00000000
vn -0.65486000 -0.75575000 0.00000000
vn -0.95950000 -0.28172000 0.00000000
vn -0.95950000 -0.28172000 0.00000000
vn -0.84125000 -0.54064000 0.00000000
vn -0.98982000 -0.14231000 0.00000000
vn -0.98982000 -0.14231000 0.00000000
vn -0.84125000 -0.54064000 0.00000000
vn -0.89872000 -0.12919000 -0.41906000
vn -0.86961000 -0.25532000 -0.42260000
vn -0.86961000 -0.25532000 -0.42260000
vn -0.76244000 -0.48999000 -0.42260000
vn -0.76244000 -0.48999000 -0.42260000
vn -0.37649000 -0.82442000 -0.42260000
vn -0.37649000 -0.82442000 -0.42260000
vn -0.59351000 -0.68495000 -0.42260000
vn -0.12898000 -0.89709000 -0.42260000
vn -0.12898000 -0.89709000 -0.42260000
vn -0.59351000 -0.68495000 -0.42260000
vn 0.12898000 -0.89709000 -0.42260000
vn 0.12898000 -0.89709000 -0.42260000
vn 0.37649000 -0.82442000 -0.42260000
vn 0.59351000 -0.68495000 -0.42260000
vn 0.59351000 -0.68495000 -0.42260000
vn 0.76244000 -0.48999000 -0.42260000
vn 0.86961000 -0.25532000 -0.42260000
vn 0.76244000 -0.48999000 -0.42260000
vn 0.89872000 -0.12919000 -0.41906000
vn 0.89872000 -0.12919000 -0.41906000
vn 0.86961000 -0.25532000 -0.42260000
vn 0.38863000 -0.38863000 -0.83543000
vn 0.50711000 -0.21187000 -0.83544000
vn 0.56021000 -0.53793000 -0.62992000
vn 0.20598000 -0.20598000 -0.95663000
vn 0.26951000 -0.11429000 -0.95619000
vn 0.21031000 -0.50777000 -0.83543000
vn 0.11393000 -0.27049000 -0.95596000
vn 0.00000000 -0.54961000 -0.83542000
vn 0.27778000 -0.70758000 -0.64975000
vn 0.00000000 -0.29756000 -0.95470000
vn -0.21031000 -0.50777000 -0.83543000
vn -0.27778000 -0.70758000 -0.64975000
vn -0.11393000 -0.27049000 -0.95596000
vn -0.38863000 -0.38863000 -0.83543000
vn -0.56021000 -0.53793000 -0.62992000
vn -0.20598000 -0.20598000 -0.95663000
vn -0.50711000 -0.21187000 -0.83544000
vn -0.26951000 -0.11429000 -0.95619000
vn 0.72566000 -0.30922000 -0.61466000
vn 0.78697000 -0.14765000 -0.59906000
vn 0.67784000 -0.13087000 -0.72347000
vn 0.59017000 -0.38945000 -0.70712000
vn 0.69267000 -0.13126000 -0.70921000
vn 0.46209000 -0.61505000 -0.63889000
vn 0.37728000 -0.72013000 -0.58230000
vn 0.00000000 -0.79238000 -0.61003000
vn 0.12730000 -0.70607000 -0.69661000
vn -0.12730000 -0.70607000 -0.69661000
vn 0.38765000 -0.07013000 -0.91914000
vn 0.18193000 -0.03659000 -0.98263000
vn 0.18854000 -0.03104000 -0.98157000
vn 0.16465000 -0.11188000 -0.97999000
vn 0.11188000 -0.16465000 -0.97999000
vn 0.03955000 -0.16560000 -0.98540000
vn -0.37728000 -0.72013000 -0.58230000
vn -0.46209000 -0.61505000 -0.63889000
vn -0.59017000 -0.38945000 -0.70712000
vn -0.72566000 -0.30922000 -0.61466000
vn -0.67784000 -0.13087000 -0.72347000
vn -0.78697000 -0.14765000 -0.59906000
vn -0.69267000 -0.13126000 -0.70921000
vn -0.38765000 -0.07013000 -0.91914000
vn -0.03955000 -0.16560000 -0.98540000
vn -0.11188000 -0.16465000 -0.97999000
vn -0.18854000 -0.03104000 -0.98157000
vn -0.16465000 -0.11188000 -0.97999000
vn -0.18193000 -0.03659000 -0.98263000
vn 0.00001000 0.00000000 1.00000000
vn -0.00007000 0.00000000 1.00000000
vn 0.00000000 0.00000000 1.00000000
vn -0.00007000 0.00000000 1.00000000
vn 0.00001000 0.00000000 1.00000000
vn -0.00007000 0.00000000 1.00000000
vn 0.00000000 0.00000000 1.00000000
vn 0.00000000 0.00000000 1.00000000
vn 0.00000000 0.00000000 1.00000000
vn 0.00001000 0.00000000 1.00000000
vn -0.00003000 0.00000000 1.00000000
vn 0.00000000 0.00000000 1.00000000
vn -0.00003000 0.00000000 1.00000000
vn 0.00000000 0.00000000 1.00000000
vn 0.00000000 0.00000000 1.00000000
vn -0.00003000 0.00000000 1.00000000
vn 0.00000000 0.00000000 1.00000000
vn 0.00000000 0.00000000 1.00000000
vn 0.00000000 0.00000000 1.00000000
vn -0.00002000 0.00000000 1.00000000
vn 0.00000000 0.00000000 1.00000000
vn 0.00000000 0.00000000 1.00000000
vn -0.00003000 0.00000000 1.00000000
vn 0.00002000 0.00000000 1.00000000
vn 0.00002000 0.00000000 1.00000000
vn -0.00002000 0.00000000 1.00000000
vn 0.00000000 0.00000000 1.00000000
vn -0.00002000 0.00000000 1.00000000
vn -0.00003000 0.00000000 1.00000000
vn 0.00002000 0.00000000 1.00000000
vn 0.00003000 0.00000000 1.00000000
vn 0.00003000 0.00000000 1.00000000
vn -0.00003000 0.00000000 1.00000000
vn 0.00000000 0.00000000 1.00000000
vn 0.00003000 0.00000000 1.00000000
vn 0.00000000 0.00000000 1.00000000
vn 0.00000000 0.00000000 -1.00000000
vn 0.00000000 0.00000000 -1.00000000
vn 0.00000000 0.00000000 -1.00000000
vn 0.00000000 0.00000000 -1.00000000
vn 0.00000000 0.00000000 -1.00000000
vn -0.00000000 0.00000000 -1.00000000
vn -0.00000000 0.00000000 -1.00000000
vn 0.00000000 0.00000000 -1.00000000
vn 0.00000000 0.00000000 -1.00000000
vn 0.00000000 0.00000000 -1.00000000
vn 0.00000000 0.00000000 -1.00000000
vn 0.00000000 0.00000000 -1.00000000
vn 0.00000000 0.00000000 -1.00000000
vn 0.00000000 0.00000000 -1.00000000
vn 0.00000000 0.00000000 -1.00000000
vn 0.00000000 0.00000000 -1.00000000
vn 0.00000000 0.00000000 -1.00000000
vn -0.00000000 0.00000000 -1.00000000
vn 0.00000000 0.00000000 -1.00000000
vn 0.00000000 0.00000000 -1.00000000
vn -0.00000000 0.00000000 -1.00000000
vn -0.00000000 0.00000000 -1.00000000
vn 0.00000000 0.00000000 -1.00000000
vn -0.00000000 0.00000000 -1.00000000
vn 0.00000000 0.00000000 -1.00000000
vn 0.00000000 0.00000000 -1.00000000
vn 0.00000000 0.00000000 -1.00000000
vn 0.00000000 0.00000000 -1.00000000
vn 0.00000000 0.14133000 -0.98996000
vn -0.40612000 0.79527000 -0.45013000
vn -0.98982000 0.14231000 0.00000000
vn 0.14231000 0.98982000 0.00000000
vn -0.60912000 0.69866000 0.37530000
vn 0.60912000 0.69866000 0.37530000
vn 0.16252000 -0.81713000 -0.55307000
vn -0.16252000 0.81713000 -0.55307000
vn 0.60912000 -0.69866000 0.37530000
vn -0.60912000 -0.69866000 0.37530000
vn 0.98982000 -0.14231000 0.00000000
vn -0.14231000 -0.98982000 0.00000000
vn -0.89872000 -0.12919000 -0.41906000
vn 0.37649000 -0.82442000 -0.42260000
vn 0.00000000 -0.14133000 -0.98996000
vt 0.00774000 0.07145000
vt 0.00774000 0.03572000
vt 0.01161000 0.07145000
vt 0.00387000 0.07145000
vt 0.00387000 0.03572000
vt 0.00774000 0.10718000
vt 0.00387000 0.10718000
vt 0.00774000 0.14290000
vt 0.01161000 0.10718000
vt 0.00387000 0.14290000
vt 0.00774000 0.17863000
vt 0.01161000 0.17863000
vt 0.00387000 0.17863000
vt 0.00774000 0.21435000
vt 0.01161000 0.21435000
vt 0.00387000 0.21435000
vt 0.00774000 0.25008000
vt 0.00387000 0.25008000
vt 0.01161000 0.03572000
vt 0.01548000 0.00000000
vt 0.01548000 0.02598000
vt 0.01548000 0.05196000
vt 0.01032000 0.00000000
vt 0.01548000 0.07795000
vt 0.01548000 0.10393000
vt 0.01161000 0.14290000
vt 0.01548000 0.12991000
vt 0.01548000 0.15589000
vt 0.00516000 0.00000000
vt 0.00000000 0.02858000
vt 0.00000000 0.00000000
vt 0.00000000 0.05716000
vt 0.00000000 0.08574000
vt 0.00000000 0.11432000
vt 0.01548000 0.18187000
vt 0.01548000 0.20786000
vt 0.01548000 0.23384000
vt 0.01161000 0.25008000
vt 0.01548000 0.25982000
vt 0.01548000 0.28580000
vt 0.01032000 0.28580000
vt 0.00516000 0.28580000
vt 0.00000000 0.17148000
vt 0.00000000 0.20006000
vt 0.00000000 0.28580000
vt 0.00000000 0.22864000
vt 0.00000000 0.25722000
vt 0.52605000 0.50829000
vt 0.48858000 0.50233000
vt 0.51583000 0.50233000
vt 0.54308000 0.50233000
vt 0.48858000 0.51426000
vt 0.57034000 0.50233000
vt 0.59759000 0.50233000
vt 0.60100000 0.50829000
vt 0.62484000 0.50233000
vt 0.51583000 0.51426000
vt 0.57034000 0.51426000
vt 0.54308000 0.51426000
vt 0.63847000 0.50829000
vt 0.62484000 0.51426000
vt 0.65210000 0.51426000
vt 0.59759000 0.51426000
vt 0.65210000 0.50233000
vt 0.67594000 0.50829000
vt 0.67935000 0.50233000
vt 0.70660000 0.50233000
vt 0.76111000 0.50233000
vt 0.75089000 0.50829000
vt 0.73386000 0.50233000
vt 0.71342000 0.50829000
vt 0.78836000 0.50233000
vt 0.70660000 0.51426000
vt 0.73386000 0.51426000
vt 0.76111000 0.51426000
vt 0.78836000 0.51426000
vt 0.48858000 0.55448000
vt 0.51583000 0.55448000
vt 0.51583000 0.56645000
vt 0.54308000 0.55448000
vt 0.54308000 0.56645000
vt 0.57034000 0.55448000
vt 0.59759000 0.55448000
vt 0.59759000 0.56645000
vt 0.62484000 0.55448000
vt 0.62484000 0.56645000
vt 0.57034000 0.56645000
vt 0.65210000 0.55448000
vt 0.67935000 0.55448000
vt 0.67935000 0.56645000
vt 0.70660000 0.55448000
vt 0.70660000 0.56645000
vt 0.76111000 0.55448000
vt 0.76111000 0.56645000
vt 0.73386000 0.56645000
vt 0.78836000 0.55448000
vt 0.78836000 0.56645000
vt 0.73386000 0.55448000
vt 0.27694000 0.04303000
vt 0.23873000 0.00000000
vt 0.27694000 0.00000000
vt 0.20052000 0.02739000
vt 0.27694000 0.08607000
vt 0.20052000 0.05477000
vt 0.27694000 0.12911000
vt 0.20052000 0.10954000
vt 0.20052000 0.00000000
vt 0.20052000 0.13693000
vt 0.27694000 0.17214000
vt 0.20052000 0.16432000
vt 0.27694000 0.21518000
vt 0.20052000 0.19170000
vt 0.23873000 0.30125000
vt 0.27694000 0.25821000
vt 0.27694000 0.30125000
vt 0.20052000 0.24648000
vt 0.20052000 0.27386000
vt 0.20052000 0.30125000
vt 0.27840000 0.45956000
vt 0.27840000 0.00000000
vt 0.30449000 0.00000000
vt 0.33058000 0.00000000
vt 0.35667000 0.00000000
vt 0.33804000 0.91913000
vt 0.30822000 0.91913000
vt 0.27840000 0.91913000
vt 0.36785000 0.91913000
vt 0.38276000 0.00000000
vt 0.39767000 0.91913000
vt 0.40885000 0.00000000
vt 0.43494000 0.00000000
vt 0.46102000 0.00000000
vt 0.45730000 0.91913000
vt 0.48711000 0.45956000
vt 0.48711000 0.00000000
vt 0.42748000 0.91913000
vt 0.48711000 0.91913000
vt 0.05948000 0.05753000
vt 0.05948000 0.02876000
vt 0.08506000 0.05753000
vt 0.05948000 0.08629000
vt 0.05948000 0.11505000
vt 0.08506000 0.08629000
vt 0.05948000 0.14382000
vt 0.08506000 0.14382000
vt 0.05948000 0.17258000
vt 0.08506000 0.17258000
vt 0.05948000 0.20134000
vt 0.10371000 0.00000000
vt 0.12116000 0.00000000
vt 0.12116000 0.02301000
vt 0.08626000 0.00000000
vt 0.08506000 0.02876000
vt 0.06880000 0.00000000
vt 0.12116000 0.04602000
vt 0.12116000 0.06903000
vt 0.12116000 0.09204000
vt 0.12116000 0.11505000
vt 0.08506000 0.11505000
vt 0.05135000 0.00000000
vt 0.03390000 0.00000000
vt 0.03390000 0.02876000
vt 0.03390000 0.05753000
vt 0.03390000 0.08629000
vt 0.03390000 0.11505000
vt 0.12116000 0.13806000
vt 0.12116000 0.16107000
vt 0.12116000 0.18408000
vt 0.08506000 0.20134000
vt 0.10371000 0.23011000
vt 0.12116000 0.20710000
vt 0.12116000 0.23011000
vt 0.08626000 0.23011000
vt 0.06880000 0.23011000
vt 0.03390000 0.17258000
vt 0.03390000 0.14382000
vt 0.05135000 0.23011000
vt 0.03390000 0.20134000
vt 0.54610000 0.34541000
vt 0.51734000 0.34541000
vt 0.54610000 0.31940000
vt 0.57487000 0.34541000
vt 0.60363000 0.34541000
vt 0.57487000 0.31940000
vt 0.63240000 0.34541000
vt 0.63240000 0.31940000
vt 0.66116000 0.34541000
vt 0.66116000 0.31940000
vt 0.68992000 0.34541000
vt 0.48858000 0.30044000
vt 0.48858000 0.28270000
vt 0.51159000 0.28270000
vt 0.48858000 0.31819000
vt 0.51734000 0.31940000
vt 0.48858000 0.33593000
vt 0.53460000 0.28270000
vt 0.55761000 0.28270000
vt 0.58062000 0.28270000
vt 0.60363000 0.28270000
vt 0.60363000 0.31940000
vt 0.48858000 0.35368000
vt 0.48858000 0.37142000
vt 0.51734000 0.37142000
vt 0.57487000 0.37142000
vt 0.54610000 0.37142000
vt 0.60363000 0.37142000
vt 0.62664000 0.28270000
vt 0.64965000 0.28270000
vt 0.67266000 0.28270000
vt 0.68992000 0.31940000
vt 0.71868000 0.30044000
vt 0.69567000 0.28270000
vt 0.71868000 0.28270000
vt 0.71868000 0.31819000
vt 0.71868000 0.33593000
vt 0.66116000 0.37142000
vt 0.63240000 0.37142000
vt 0.71868000 0.35368000
vt 0.68992000 0.37142000
vt 0.78983000 0.45956000
vt 0.78983000 0.00000000
vt 0.81592000 0.00000000
vt 0.84200000 0.00000000
vt 0.86809000 0.00000000
vt 0.84946000 0.91913000
vt 0.81964000 0.91913000
vt 0.78983000 0.91913000
vt 0.87927000 0.91913000
vt 0.89418000 0.00000000
vt 0.90909000 0.91913000
vt 0.92027000 0.00000000
vt 0.94636000 0.00000000
vt 0.97245000 0.00000000
vt 0.96872000 0.91913000
vt 0.99854000 0.45956000
vt 0.99854000 0.00000000
vt 0.93890000 0.91913000
vt 0.99854000 0.91913000
vt 0.19905000 0.04303000
vt 0.16084000 0.00000000
vt 0.19905000 0.00000000
vt 0.12262000 0.02739000
vt 0.19905000 0.08607000
vt 0.12262000 0.05477000
vt 0.19905000 0.12911000
vt 0.12262000 0.10954000
vt 0.12262000 0.00000000
vt 0.12262000 0.13693000
vt 0.19905000 0.17214000
vt 0.12262000 0.16432000
vt 0.19905000 0.21518000
vt 0.12262000 0.19170000
vt 0.16084000 0.30125000
vt 0.19905000 0.25821000
vt 0.19905000 0.30125000
vt 0.12262000 0.24648000
vt 0.12262000 0.27386000
vt 0.12262000 0.30125000
vt 0.48858000 0.52836000
vt 0.51583000 0.52836000
vt 0.51583000 0.54033000
vt 0.54308000 0.52836000
vt 0.54308000 0.54033000
vt 0.57034000 0.52836000
vt 0.59759000 0.52836000
vt 0.59759000 0.54033000
vt 0.62484000 0.52836000
vt 0.62484000 0.54033000
vt 0.57034000 0.54033000
vt 0.65210000 0.52836000
vt 0.67935000 0.52836000
vt 0.67935000 0.54033000
vt 0.70660000 0.52836000
vt 0.70660000 0.54033000
vt 0.76111000 0.52836000
vt 0.76111000 0.54033000
vt 0.73386000 0.54033000
vt 0.78836000 0.52836000
vt 0.78836000 0.54033000
vt 0.73386000 0.52836000
vt 0.48858000 0.47630000
vt 0.51583000 0.47630000
vt 0.51583000 0.48823000
vt 0.54308000 0.47630000
vt 0.54308000 0.48823000
vt 0.59759000 0.47630000
vt 0.59759000 0.48823000
vt 0.57034000 0.48823000
vt 0.62484000 0.47630000
vt 0.62484000 0.48823000
vt 0.57034000 0.47630000
vt 0.65210000 0.48823000
vt 0.65210000 0.47630000
vt 0.67935000 0.47630000
vt 0.70660000 0.47630000
vt 0.70660000 0.48823000
vt 0.73386000 0.47630000
vt 0.76111000 0.47630000
vt 0.73386000 0.48823000
vt 0.78836000 0.47630000
vt 0.78836000 0.48823000
vt 0.76111000 0.48823000
vt 0.02469000 0.07145000
vt 0.02469000 0.03572000
vt 0.02856000 0.07145000
vt 0.02082000 0.07145000
vt 0.02082000 0.03572000
vt 0.02469000 0.10718000
vt 0.02082000 0.10718000
vt 0.02469000 0.14290000
vt 0.02856000 0.10718000
vt 0.02082000 0.14290000
vt 0.02469000 0.17863000
vt 0.02856000 0.17863000
vt 0.02082000 0.17863000
vt 0.02469000 0.21435000
vt 0.02856000 0.21435000
vt 0.02082000 0.21435000
vt 0.02469000 0.25008000
vt 0.02082000 0.25008000
vt 0.02856000 0.03572000
vt 0.03243000 0.00000000
vt 0.03243000 0.02598000
vt 0.03243000 0.05196000
vt 0.02727000 0.00000000
vt 0.03243000 0.07795000
vt 0.03243000 0.10393000
vt 0.02856000 0.14290000
vt 0.03243000 0.12991000
vt 0.03243000 0.15589000
vt 0.02211000 0.00000000
vt 0.01695000 0.02858000
vt 0.01695000 0.00000000
vt 0.01695000 0.05716000
vt 0.01695000 0.08574000
vt 0.01695000 0.11432000
vt 0.03243000 0.18187000
vt 0.03243000 0.20786000
vt 0.03243000 0.23384000
vt 0.02856000 0.25008000
vt 0.03243000 0.25982000
vt 0.03243000 0.28580000
vt 0.02727000 0.28580000
vt 0.02211000 0.28580000
vt 0.01695000 0.17148000
vt 0.01695000 0.20006000
vt 0.01695000 0.28580000
vt 0.01695000 0.22864000
vt 0.01695000 0.25722000
vt 0.60576000 0.02670000
vt 0.60576000 0.02670000
vt 0.60576000 0.02670000
vt 0.59143000 0.01237000
vt 0.57338000 0.00317000
vt 0.57338000 0.00317000
vt 0.61814000 0.06478000
vt 0.61497000 0.04476000
vt 0.55336000 0.00000000
vt 0.55336000 0.00000000
vt 0.55336000 0.00000000
vt 0.51528000 0.01237000
vt 0.51528000 0.01237000
vt 0.60576000 0.10286000
vt 0.60576000 0.10286000
vt 0.53334000 0.00317000
vt 0.50095000 0.02670000
vt 0.49175000 0.04476000
vt 0.48858000 0.06478000
vt 0.50095000 0.10286000
vt 0.50095000 0.10286000
vt 0.50095000 0.10286000
vt 0.57338000 0.12639000
vt 0.57338000 0.12639000
vt 0.59143000 0.11719000
vt 0.59143000 0.11719000
vt 0.59143000 0.11719000
vt 0.51528000 0.11719000
vt 0.51528000 0.11719000
vt 0.51528000 0.11719000
vt 0.51528000 0.11719000
vt 0.55336000 0.12956000
vt 0.55336000 0.12956000
vt 0.49175000 0.08480000
vt 0.53334000 0.12639000
vt 0.61497000 0.08480000
vt 0.62952000 0.61272000
vt 0.61228000 0.59548000
vt 0.59056000 0.58441000
vt 0.59056000 0.58441000
vt 0.61228000 0.72154000
vt 0.61228000 0.72154000
vt 0.61228000 0.72154000
vt 0.64058000 0.63443000
vt 0.52069000 0.72154000
vt 0.52069000 0.59548000
vt 0.52069000 0.59548000
vt 0.54241000 0.58441000
vt 0.54241000 0.58441000
vt 0.56649000 0.58060000
vt 0.50346000 0.61272000
vt 0.49239000 0.63443000
vt 0.48858000 0.65851000
vt 0.64440000 0.65851000
vt 0.64440000 0.65851000
vt 0.62952000 0.70430000
vt 0.62952000 0.70430000
vt 0.56649000 0.73642000
vt 0.56649000 0.73642000
vt 0.59056000 0.73260000
vt 0.54241000 0.73260000
vt 0.49239000 0.68258000
vt 0.50346000 0.70430000
vt 0.64058000 0.68258000
vt 0.00000000 0.14290000
vt 0.67935000 0.51426000
vt 0.48858000 0.56645000
vt 0.65210000 0.56645000
vt 0.20052000 0.08216000
vt 0.20052000 0.21909000
vt 0.03390000 0.23011000
vt 0.71868000 0.37142000
vt 0.12262000 0.08216000
vt 0.12262000 0.21909000
vt 0.48858000 0.54033000
vt 0.65210000 0.54033000
vt 0.48858000 0.48823000
vt 0.67935000 0.48823000
vt 0.01695000 0.14290000
f 1/1/1 2/2/2 3/3/3
f 4/4/4 5/5/5 2/2/2
f 6/6/6 1/1/1 3/3/3
f 7/7/7 4/4/4 6/6/6
f 8/8/8 6/6/6 9/9/9
f 10/10/10 7/7/7 8/8/8
f 11/11/11 8/8/8 12/12/12
f 13/13/13 10/10/10 8/8/8
f 14/14/14 11/11/11 15/15/15
f 16/16/16 13/13/13 11/11/11
f 17/17/17 14/14/14 15/15/15
f 18/18/18 16/16/16 17/17/17
f 19/19/19 20/20/20 21/21/21
f 3/3/3 19/19/19 22/22/22
f 21/21/21 22/22/22 19/19/19
f 23/23/23 20/20/20 19/19/19
f 24/24/24 25/25/25 9/9/9
f 26/26/26 9/9/9 27/27/27
f 28/28/28 26/26/26 27/27/27
f 29/29/29 23/23/23 2/2/2
f 30/30/30 31/31/31 5/5/5
f 31/31/31 29/29/29 5/5/5
f 5/5/5 29/29/29 2/2/2
f 5/5/5 4/4/4 32/32/32
f 4/4/4 7/7/7 33/33/33
f 4/4/4 33/33/33 32/32/32
f 7/7/7 10/10/10 34/34/34
f 28/28/28 35/35/35 12/12/12
f 15/15/15 12/12/12 36/36/36
f 37/37/37 15/15/15 36/36/36
f 38/38/38 37/37/37 39/39/39
f 38/38/38 39/39/39 40/40/40
f 17/17/17 38/38/38 41/41/41
f 40/40/40 41/41/41 38/38/38
f 41/41/41 42/42/42 17/17/17
f 37/37/37 38/38/38 15/15/15
f 10/10/10 13/13/13 43/43/43
f 44/44/44 43/43/43 13/13/13
f 45/45/45 18/18/18 42/42/42
f 16/16/16 18/18/18 46/46/46
f 18/18/18 45/45/45 47/47/47
f 44/44/44 16/16/16 46/46/46
f 48/48/48 49/49/49 50/50/50
f 51/51/51 48/48/48 50/50/50
f 52/52/52 49/49/49 48/48/48
f 48/48/48 51/51/51 53/53/53
f 54/54/54 55/55/55 53/53/53
f 55/55/55 48/48/48 53/53/53
f 54/54/54 56/56/56 55/55/55
f 57/57/57 52/52/52 48/48/48
f 58/58/58 59/59/59 48/48/48
f 57/57/57 48/48/48 59/59/59
f 55/55/55 60/60/60 61/61/61
f 61/61/61 60/60/60 62/62/62
f 58/58/58 55/55/55 63/63/63
f 55/55/55 58/58/58 48/48/48
f 60/60/60 56/56/56 64/64/64
f 65/65/65 64/64/64 66/66/66
f 66/66/66 67/67/67 65/65/65
f 60/60/60 65/65/65 62/62/62
f 68/68/68 69/69/69 70/70/70
f 70/70/70 71/71/71 67/67/67
f 72/72/72 69/69/69 68/68/68
f 65/65/65 71/71/71 73/73/73
f 73/73/73 71/71/71 74/74/74
f 75/75/75 74/74/74 69/69/69
f 71/71/71 69/69/69 74/74/74
f 69/69/69 76/76/76 75/75/75
f 76/76/76 69/69/69 72/72/72
f 69/69/69 71/71/71 70/70/70
f 64/64/64 65/65/65 60/60/60
f 77/77/77 78/78/78 79/79/79
f 78/78/78 80/80/80 81/81/81
f 82/82/82 83/83/83 84/84/84
f 83/83/83 85/85/85 86/86/86
f 80/80/80 82/82/82 87/87/87
f 86/86/86 85/85/85 88/88/88
f 88/88/88 89/89/89 90/90/90
f 89/89/89 91/91/91 92/92/92
f 93/93/93 94/94/94 95/95/95
f 96/96/96 97/97/97 94/94/94
f 98/98/98 95/95/95 92/92/92
f 99/99/99 100/100/100 101/101/101
f 102/102/102 100/100/100 99/99/99
f 99/99/99 103/103/103 104/104/104
f 103/103/103 105/105/105 106/106/106
f 100/100/100 102/102/102 107/107/107
f 99/99/99 104/104/104 102/102/102
f 105/105/105 108/108/108 106/106/106
f 105/105/105 109/109/109 110/110/110
f 109/109/109 111/111/111 112/112/112
f 113/113/113 114/114/114 115/115/115
f 111/111/111 114/114/114 116/116/116
f 114/114/114 113/113/113 117/117/117
f 109/109/109 112/112/112 110/110/110
f 114/114/114 117/117/117 116/116/116
f 113/113/113 118/118/118 117/117/117
f 119/119/119 120/120/120 121/121/121
f 122/122/122 123/123/123 124/124/124
f 121/121/121 122/122/122 125/125/125
f 125/125/125 126/126/126 119/119/119
f 121/121/121 125/125/125 119/119/119
f 127/127/127 123/123/123 128/128/128
f 129/129/129 128/128/128 130/130/130
f 131/131/131 132/132/132 133/133/133
f 134/134/134 132/132/132 135/135/135
f 130/130/130 131/131/131 136/136/136
f 137/137/137 133/133/133 134/134/134
f 132/132/132 134/134/134 133/133/133
f 127/127/127 128/128/128 129/129/129
f 138/138/138 139/139/139 140/140/140
f 141/141/141 138/138/138 140/140/140
f 142/142/142 141/141/141 143/143/143
f 144/144/144 142/142/142 145/145/145
f 146/146/146 144/144/144 147/147/147
f 148/148/148 146/146/146 147/147/147
f 149/149/149 150/150/150 151/151/151
f 152/152/152 149/149/149 153/153/153
f 151/151/151 153/153/153 149/149/149
f 154/154/154 152/152/152 153/153/153
f 151/151/151 155/155/155 153/153/153
f 140/140/140 155/155/155 156/156/156
f 156/156/156 157/157/157 143/143/143
f 157/157/157 158/158/158 159/159/159
f 160/160/160 154/154/154 139/139/139
f 139/139/139 154/154/154 153/153/153
f 161/161/161 160/160/160 162/162/162
f 139/139/139 162/162/162 160/160/160
f 163/163/163 162/162/162 138/138/138
f 164/164/164 163/163/163 138/138/138
f 165/165/165 164/164/164 141/141/141
f 158/158/158 166/166/166 159/159/159
f 166/166/166 167/167/167 145/145/145
f 168/168/168 147/147/147 167/167/167
f 169/169/169 147/147/147 168/168/168
f 170/170/170 171/171/171 172/172/172
f 173/173/173 169/169/169 170/170/170
f 171/171/171 170/170/170 169/169/169
f 174/174/174 169/169/169 173/173/173
f 142/142/142 144/144/144 165/165/165
f 175/175/175 176/176/176 146/146/146
f 177/177/177 148/148/148 174/174/174
f 178/178/178 148/148/148 177/177/177
f 148/148/148 178/178/178 146/146/146
f 174/174/174 148/148/148 169/169/169
f 179/179/179 180/180/180 181/181/181
f 182/182/182 179/179/179 181/181/181
f 183/183/183 182/182/182 184/184/184
f 185/185/185 183/183/183 186/186/186
f 187/187/187 185/185/185 188/188/188
f 189/189/189 187/187/187 188/188/188
f 190/190/190 191/191/191 192/192/192
f 193/193/193 190/190/190 194/194/194
f 192/192/192 194/194/194 190/190/190
f 195/195/195 193/193/193 194/194/194
f 192/192/192 196/196/196 194/194/194
f 181/181/181 196/196/196 197/197/197
f 197/197/197 198/198/198 184/184/184
f 198/198/198 199/199/199 200/200/200
f 201/201/201 195/195/195 180/180/180
f 180/180/180 195/195/195 194/194/194
f 202/202/202 201/201/201 203/203/203
f 180/180/180 203/203/203 201/201/201
f 180/180/180 179/179/179 203/203/203
f 204/204/204 205/205/205 179/179/179
f 182/182/182 183/183/183 206/206/206
f 199/199/199 207/207/207 200/200/200
f 207/207/207 208/208/208 186/186/186
f 209/209/209 188/188/188 208/208/208
f 210/210/210 188/188/188 209/209/209
f 211/211/211 212/212/212 213/213/213
f 214/214/214 210/210/210 211/211/211
f 212/212/212 211/211/211 210/210/210
f 215/215/215 210/210/210 214/214/214
f 183/183/183 185/185/185 206/206/206
f 216/216/216 217/217/217 187/187/187
f 218/218/218 189/189/189 215/215/215
f 219/219/219 189/189/189 218/218/218
f 189/189/189 219/219/219 187/187/187
f 215/215/215 189/189/189 210/210/210
f 220/220/220 221/221/221 222/222/222
f 223/223/223 224/224/224 225/225/225
f 222/222/222 223/223/223 226/226/226
f 226/226/226 227/227/227 220/220/220
f 222/222/222 226/226/226 220/220/220
f 228/228/228 224/224/224 229/229/229
f 230/230/230 229/229/229 231/231/231
f 232/232/232 233/233/233 234/234/234
f 235/235/235 233/233/233 236/236/236
f 231/231/231 232/232/232 237/237/237
f 238/238/238 234/234/234 235/235/235
f 233/233/233 235/235/235 234/234/234
f 228/228/228 229/229/229 230/230/230
f 239/239/239 240/240/240 241/241/241
f 242/242/242 240/240/240 239/239/239
f 239/239/239 243/243/243 244/244/244
f 243/243/243 245/245/245 246/246/246
f 240/240/240 242/242/242 247/247/247
f 239/239/239 244/244/244 242/242/242
f 245/245/245 248/248/248 246/246/246
f 245/245/245 249/249/249 250/250/250
f 249/249/249 251/251/251 252/252/252
f 253/253/253 254/254/254 255/255/255
f 251/251/251 254/254/254 256/256/256
f 254/254/254 253/253/253 257/257/257
f 249/249/249 252/252/252 250/250/250
f 254/254/254 257/257/257 256/256/256
f 253/253/253 258/258/258 257/257/257
f 259/259/259 260/260/260 261/261/261
f 260/260/260 262/262/262 263/263/263
f 264/264/264 265/265/265 266/266/266
f 265/265/265 267/267/267 268/268/268
f 262/262/262 264/264/264 269/269/269
f 268/268/268 267/267/267 270/270/270
f 270/270/270 271/271/271 272/272/272
f 271/271/271 273/273/273 274/274/274
f 275/275/275 276/276/276 277/277/277
f 278/278/278 279/279/279 276/276/276
f 280/280/280 277/277/277 274/274/274
f 281/281/281 282/282/282 283/283/283
f 282/282/282 284/284/284 285/285/285
f 286/286/286 287/287/287 288/288/288
f 289/289/289 290/290/290 286/286/286
f 291/291/291 288/288/288 285/285/285
f 292/292/292 290/290/290 289/289/289
f 293/293/293 294/294/294 292/292/292
f 295/295/295 296/296/296 294/294/294
f 297/297/297 298/298/298 299/299/299
f 300/300/300 301/301/301 302/302/302
f 295/295/295 297/297/297 299/299/299
f 303/303/303 304/304/304 305/305/305
f 306/306/306 307/307/307 304/304/304
f 308/308/308 303/303/303 305/305/305
f 309/309/309 306/306/306 308/308/308
f 310/310/310 308/308/308 311/311/311
f 312/312/312 309/309/309 310/310/310
f 313/313/313 310/310/310 314/314/314
f 315/315/315 312/312/312 310/310/310
f 316/316/316 313/313/313 317/317/317
f 318/318/318 315/315/315 313/313/313
f 319/319/319 316/316/316 317/317/317
f 320/320/320 318/318/318 319/319/319
f 321/321/321 322/322/322 323/323/323
f 305/305/305 321/321/321 324/324/324
f 323/323/323 324/324/324 321/321/321
f 325/325/325 322/322/322 321/321/321
f 326/326/326 327/327/327 311/311/311
f 328/328/328 311/311/311 329/329/329
f 330/330/330 328/328/328 329/329/329
f 331/331/331 325/325/325 304/304/304
f 304/304/304 325/325/325 321/321/321
f 332/332/332 333/333/333 307/307/307
f 333/333/333 331/331/331 307/307/307
f 307/307/307 306/306/306 334/334/334
f 306/306/306 309/309/309 335/335/335
f 306/306/306 335/335/335 334/334/334
f 309/309/309 312/312/312 336/336/336
f 330/330/330 337/337/337 314/314/314
f 317/317/317 314/314/314 338/338/338
f 339/339/339 317/317/317 338/338/338
f 340/340/340 339/339/339 341/341/341
f 340/340/340 341/341/341 342/342/342
f 319/319/319 340/340/340 343/343/343
f 342/342/342 343/343/343 340/340/340
f 344/344/344 319/319/319 343/343/343
f 339/339/339 340/340/340 317/317/317
f 312/312/312 315/315/315 345/345/345
f 346/346/346 345/345/345 315/315/315
f 347/347/347 320/320/320 344/344/344
f 318/318/318 320/320/320 348/348/348
f 320/320/320 347/347/347 349/349/349
f 346/346/346 318/318/318 348/348/348
f 344/344/344 320/320/320 319/319/319
f 351/351/351 353/353/353 355/355/355
f 356/356/356 357/357/357 352/352/352
f 359/359/359 350/350/350 354/354/354
f 361/361/361 364/364/364 352/352/352
f 362/362/362 360/360/360 365/365/365
f 358/358/358 361/361/361 352/352/352
f 366/366/366 364/364/364 361/361/361
f 367/367/367 368/368/368 366/366/366
f 356/356/356 352/352/352 364/364/364
f 366/366/366 371/371/371 364/364/364
f 373/373/373 374/374/374 379/379/379
f 370/370/370 376/376/376 363/363/363
f 378/378/378 382/382/382 372/372/372
f 371/371/371 368/368/368 383/383/383
f 366/366/366 368/368/368 371/371/371
f 369/369/369 377/377/377 375/375/375
f 380/380/380 384/384/384 381/381/381
f 385/385/385 356/356/356 364/364/364
f 386/386/386 387/387/387 388/388/388
f 390/390/390 393/393/393 388/388/388
f 386/386/386 388/388/388 393/393/393
f 394/394/394 388/388/388 395/395/395
f 397/397/397 388/388/388 399/399/399
f 389/389/389 398/398/398 396/396/396
f 400/400/400 394/394/394 395/395/395
f 401/401/401 402/402/402 400/400/400
f 390/390/390 404/404/404 393/393/393
f 403/403/403 391/391/391 406/406/406
f 407/407/407 409/409/409 392/392/392
f 390/390/390 388/388/388 394/394/394
f 408/408/408 390/390/390 410/410/410
f 411/411/411 400/400/400 402/402/402
f 412/412/412 394/394/394 411/411/411
f 400/400/400 411/411/411 394/394/394
f 394/394/394 410/410/410 390/390/390
f 405/405/405 413/413/413 404/404/404
f 2/2/2 19/19/19 3/3/3
f 4/4/4 2/2/2 1/1/1
f 6/6/6 3/3/3 9/9/9
f 4/4/4 1/1/1 6/6/6
f 8/8/8 9/9/9 26/26/26
f 7/7/7 6/6/6 8/8/8
f 8/8/8 26/26/26 12/12/12
f 13/13/13 8/8/8 11/11/11
f 11/11/11 12/12/12 15/15/15
f 16/16/16 11/11/11 14/14/14
f 17/17/17 15/15/15 38/38/38
f 16/16/16 14/14/14 17/17/17
f 3/3/3 22/22/22 24/24/24
f 24/24/24 9/9/9 3/3/3
f 9/9/9 25/25/25 27/27/27
f 23/23/23 19/19/19 2/2/2
f 5/5/5 32/32/32 30/30/30
f 7/7/7 34/34/34 33/33/33
f 10/10/10 414/414/414 34/34/34
f 28/28/28 12/12/12 26/26/26
f 12/12/12 35/35/35 36/36/36
f 42/42/42 18/18/18 17/17/17
f 10/10/10 43/43/43 414/414/414
f 44/44/44 13/13/13 16/16/16
f 18/18/18 47/47/47 46/46/46
f 56/56/56 60/60/60 55/55/55
f 55/55/55 61/61/61 63/63/63
f 67/67/67 71/71/71 65/65/65
f 65/65/65 415/415/415 62/62/62
f 65/65/65 73/73/73 415/415/415
f 77/77/77 79/79/79 416/416/416
f 78/78/78 81/81/81 79/79/79
f 82/82/82 84/84/84 87/87/87
f 83/83/83 86/86/86 84/84/84
f 80/80/80 87/87/87 81/81/81
f 86/86/86 88/88/88 417/417/417
f 88/88/88 90/90/90 417/417/417
f 89/89/89 92/92/92 90/90/90
f 93/93/93 95/95/95 98/98/98
f 96/96/96 94/94/94 93/93/93
f 98/98/98 92/92/92 91/91/91
f 103/103/103 418/418/418 104/104/104
f 103/103/103 106/106/106 418/418/418
f 105/105/105 110/110/110 108/108/108
f 111/111/111 419/419/419 112/112/112
f 111/111/111 116/116/116 419/419/419
f 123/123/123 127/127/127 124/124/124
f 122/122/122 124/124/124 125/125/125
f 131/131/131 133/133/133 136/136/136
f 130/130/130 136/136/136 129/129/129
f 139/139/139 153/153/153 140/140/140
f 141/141/141 140/140/140 143/143/143
f 142/142/142 143/143/143 159/159/159
f 142/142/142 159/159/159 145/145/145
f 144/144/144 145/145/145 147/147/147
f 148/148/148 147/147/147 169/169/169
f 155/155/155 140/140/140 153/153/153
f 156/156/156 143/143/143 140/140/140
f 157/157/157 159/159/159 143/143/143
f 162/162/162 139/139/139 138/138/138
f 164/164/164 138/138/138 141/141/141
f 165/165/165 141/141/141 142/142/142
f 166/166/166 145/145/145 159/159/159
f 167/167/167 147/147/147 145/145/145
f 169/169/169 168/168/168 171/171/171
f 144/144/144 176/176/176 165/165/165
f 176/176/176 144/144/144 146/146/146
f 178/178/178 177/177/177 420/420/420
f 178/178/178 175/175/175 146/146/146
f 180/180/180 194/194/194 181/181/181
f 182/182/182 181/181/181 184/184/184
f 183/183/183 184/184/184 200/200/200
f 183/183/183 200/200/200 186/186/186
f 185/185/185 186/186/186 188/188/188
f 189/189/189 188/188/188 210/210/210
f 196/196/196 181/181/181 194/194/194
f 197/197/197 184/184/184 181/181/181
f 198/198/198 200/200/200 184/184/184
f 179/179/179 205/205/205 203/203/203
f 204/204/204 179/179/179 182/182/182
f 182/182/182 206/206/206 204/204/204
f 207/207/207 186/186/186 200/200/200
f 208/208/208 188/188/188 186/186/186
f 210/210/210 209/209/209 212/212/212
f 185/185/185 217/217/217 206/206/206
f 217/217/217 185/185/185 187/187/187
f 219/219/219 218/218/218 421/421/421
f 219/219/219 216/216/216 187/187/187
f 224/224/224 228/228/228 225/225/225
f 223/223/223 225/225/225 226/226/226
f 232/232/232 234/234/234 237/237/237
f 231/231/231 237/237/237 230/230/230
f 243/243/243 422/422/422 244/244/244
f 243/243/243 246/246/246 422/422/422
f 245/245/245 250/250/250 248/248/248
f 251/251/251 423/423/423 252/252/252
f 251/251/251 256/256/256 423/423/423
f 259/259/259 261/261/261 424/424/424
f 260/260/260 263/263/263 261/261/261
f 264/264/264 266/266/266 269/269/269
f 265/265/265 268/268/268 266/266/266
f 262/262/262 269/269/269 263/263/263
f 268/268/268 270/270/270 425/425/425
f 270/270/270 272/272/272 425/425/425
f 271/271/271 274/274/274 272/272/272
f 275/275/275 277/277/277 280/280/280
f 278/278/278 276/276/276 275/275/275
f 280/280/280 274/274/274 273/273/273
f 281/281/281 283/283/283 426/426/426
f 282/282/282 285/285/285 283/283/283
f 286/286/286 288/288/288 291/291/291
f 290/290/290 287/287/287 286/286/286
f 291/291/291 285/285/285 284/284/284
f 292/292/292 289/289/289 293/293/293
f 294/294/294 427/427/427 292/292/292
f 296/296/296 427/427/427 294/294/294
f 298/298/298 302/302/302 299/299/299
f 300/300/300 302/302/302 298/298/298
f 295/295/295 299/299/299 296/296/296
f 304/304/304 321/321/321 305/305/305
f 306/306/306 304/304/304 303/303/303
f 308/308/308 305/305/305 311/311/311
f 306/306/306 303/303/303 308/308/308
f 310/310/310 311/311/311 328/328/328
f 309/309/309 308/308/308 310/310/310
f 310/310/310 328/328/328 314/314/314
f 315/315/315 310/310/310 313/313/313
f 313/313/313 314/314/314 317/317/317
f 318/318/318 313/313/313 316/316/316
f 319/319/319 317/317/317 340/340/340
f 318/318/318 316/316/316 319/319/319
f 305/305/305 324/324/324 326/326/326
f 326/326/326 311/311/311 305/305/305
f 311/311/311 327/327/327 329/329/329
f 331/331/331 304/304/304 307/307/307
f 307/307/307 334/334/334 332/332/332
f 309/309/309 336/336/336 335/335/335
f 312/312/312 428/428/428 336/336/336
f 330/330/330 314/314/314 328/328/328
f 314/314/314 337/337/337 338/338/338
f 312/312/312 345/345/345 428/428/428
f 346/346/346 315/315/315 318/318/318
f 320/320/320 349/349/349 348/348/348

